<?xml version="1.0" encoding="UTF-8"?>
<svg width="27px" height="31px" viewBox="0 0 27 31" version="1.1" xmlns="http://www.w3.org/2000/svg" xmlns:xlink="http://www.w3.org/1999/xlink">
    <title>icon - user profile</title>
    <defs>
        <path d="M7.063,2.497 C5.694,3.903 5.863,5.928 5.934,6.794 L5.934,6.794 L6.007,7.568 C5.921,7.644 5.842,7.731 5.773,7.83 L5.773,7.83 C5.542,8.16 5.439,8.574 5.479,8.988 L5.479,8.988 L5.711,11.553 C5.764,12.146 6.09,12.632 6.538,12.854 L6.538,12.854 C6.558,13.068 6.579,13.281 6.599,13.493 L6.599,13.493 C6.65,14.137 6.998,14.81 7.536,15.334 L7.536,15.334 L7.568,15.582 C5.573,15.961 3.658,16.649 1.841,17.646 L1.841,17.646 C0.866,18.236 0.188,19.679 0.296,20.921 L0.296,20.921 C0.372,21.833 0.453,22.739 0.535,23.641 L0.535,23.641 C0.647,24.92 1.561,26.098 2.639,26.331 L2.639,26.331 C5.434,26.848 8.283,27.109 11.104,27.109 L11.104,27.109 C13.926,27.109 16.775,26.848 19.592,26.327 L19.592,26.327 C20.646,26.1 21.562,24.924 21.681,23.641 L21.681,23.641 L21.913,20.926 C22.018,19.673 21.337,18.232 20.331,17.628 L20.331,17.628 C18.545,16.647 16.639,15.961 14.647,15.583 L14.647,15.583 L14.677,15.334 C15.216,14.806 15.562,14.134 15.602,13.524 L15.602,13.524 L15.672,12.856 C16.125,12.634 16.452,12.144 16.5,11.553 L16.5,11.553 L16.73,8.99 C16.769,8.567 16.664,8.153 16.434,7.824 L16.434,7.824 C16.367,7.728 16.289,7.64 16.206,7.567 L16.206,7.567 C16.224,7.385 16.243,7.197 16.262,7.001 L16.262,7.001 L16.278,6.789 C16.35,5.925 16.517,3.902 15.183,2.531 L15.183,2.531 C14.233,1.459 12.747,0.844 11.105,0.844 L11.105,0.844 C9.464,0.844 7.978,1.459 7.063,2.497 L7.063,2.497 Z M2.969,24.155 C2.763,24.11 2.471,23.745 2.441,23.415 L2.441,23.415 C2.361,22.516 2.28,21.618 2.208,20.708 L2.208,20.708 C2.177,20.378 2.419,19.791 2.699,19.622 L2.699,19.622 C4.587,18.588 6.628,17.913 8.762,17.619 L8.762,17.619 C9.019,17.582 9.253,17.429 9.41,17.192 L9.41,17.192 C9.568,16.957 9.635,16.657 9.598,16.363 L9.598,16.363 L9.38,14.571 C9.343,14.249 9.184,13.965 8.943,13.79 L8.943,13.79 C8.662,13.584 8.525,13.344 8.507,13.273 L8.507,13.273 C8.454,12.712 8.399,12.156 8.34,11.593 L8.34,11.593 C8.297,11.168 8.045,10.808 7.691,10.674 L7.691,10.674 C7.645,10.657 7.6,10.645 7.555,10.635 L7.555,10.635 L7.446,9.408 C7.496,9.382 7.544,9.35 7.591,9.314 L7.591,9.314 C7.887,9.085 8.049,8.682 8.008,8.272 L8.008,8.272 L7.845,6.584 C7.773,5.725 7.747,4.756 8.374,4.111 L8.374,4.111 C8.959,3.447 9.98,3.053 11.105,3.053 L11.105,3.053 C12.231,3.053 13.255,3.448 13.873,4.146 L13.873,4.146 C14.465,4.754 14.439,5.721 14.368,6.579 L14.368,6.579 L14.351,6.805 C14.308,7.257 14.261,7.705 14.214,8.155 L14.214,8.155 L14.201,8.265 C14.161,8.675 14.318,9.078 14.611,9.309 L14.611,9.309 C14.66,9.348 14.713,9.381 14.766,9.408 L14.766,9.408 L14.655,10.635 C14.61,10.645 14.566,10.657 14.521,10.674 L14.521,10.674 C14.168,10.808 13.915,11.165 13.871,11.591 L13.871,11.591 L13.697,13.279 C13.679,13.354 13.546,13.589 13.269,13.793 L13.269,13.793 C13.035,13.965 12.877,14.246 12.836,14.562 L12.836,14.562 L12.611,16.364 C12.576,16.659 12.644,16.958 12.801,17.192 L12.801,17.192 C12.958,17.429 13.189,17.582 13.448,17.619 L13.448,17.619 C15.582,17.913 17.621,18.587 19.476,19.604 L19.476,19.604 C19.788,19.791 20.032,20.38 20.003,20.714 L20.003,20.714 L19.772,23.415 C19.741,23.753 19.45,24.11 19.264,24.15 L19.264,24.15 C16.569,24.648 13.83,24.897 11.097,24.897 L11.097,24.897 C8.365,24.897 5.637,24.648 2.969,24.155 L2.969,24.155 Z" id="path-1"></path>
        <path d="M6.778,2.388 C5.409,3.792 5.578,5.819 5.65,6.683 L5.65,6.683 L5.722,7.458 C5.636,7.533 5.558,7.621 5.489,7.72 L5.489,7.72 C5.257,8.049 5.155,8.463 5.193,8.877 L5.193,8.877 L5.426,11.444 C5.479,12.036 5.805,12.523 6.252,12.743 L6.252,12.743 C6.273,12.958 6.295,13.172 6.314,13.384 L6.314,13.384 C6.364,14.027 6.714,14.7 7.251,15.223 L7.251,15.223 L7.282,15.472 C5.288,15.851 3.374,16.539 1.557,17.536 L1.557,17.536 C0.58,18.126 -0.098,19.569 0.012,20.811 L0.012,20.811 C0.086,21.722 0.167,22.628 0.249,23.531 L0.249,23.531 C0.361,24.809 1.276,25.988 2.355,26.221 L2.355,26.221 C5.148,26.738 7.998,27 10.818,27 L10.818,27 C13.642,27 16.489,26.738 19.307,26.217 L19.307,26.217 C20.361,25.99 21.276,24.814 21.396,23.53 L21.396,23.53 L21.628,20.815 C21.733,19.563 21.053,18.122 20.046,17.518 L20.046,17.518 C18.26,16.537 16.353,15.851 14.363,15.474 L14.363,15.474 L14.393,15.223 C14.93,14.695 15.276,14.025 15.318,13.413 L15.318,13.413 L15.387,12.745 C15.84,12.524 16.167,12.034 16.214,11.444 L16.214,11.444 L16.444,8.881 C16.484,8.457 16.38,8.043 16.15,7.714 L16.15,7.714 C16.083,7.617 16.004,7.531 15.921,7.457 L15.921,7.457 C15.939,7.275 15.958,7.087 15.976,6.892 L15.976,6.892 L15.994,6.68 C16.064,5.815 16.232,3.791 14.897,2.422 L14.897,2.422 C13.949,1.349 12.461,0.733 10.82,0.733 L10.82,0.733 C9.179,0.733 7.694,1.349 6.778,2.388 L6.778,2.388 Z M2.684,24.045 C2.478,24 2.186,23.636 2.155,23.305 L2.155,23.305 C2.076,22.406 1.994,21.508 1.922,20.597 L1.922,20.597 C1.892,20.268 2.134,19.682 2.415,19.513 L2.415,19.513 C4.301,18.478 6.342,17.803 8.477,17.508 L8.477,17.508 C8.734,17.473 8.968,17.32 9.126,17.082 L9.126,17.082 C9.283,16.848 9.35,16.547 9.313,16.253 L9.313,16.253 L9.095,14.462 C9.058,14.139 8.899,13.855 8.658,13.68 L8.658,13.68 C8.378,13.475 8.239,13.234 8.222,13.164 L8.222,13.164 C8.169,12.602 8.115,12.045 8.055,11.482 L8.055,11.482 C8.012,11.057 7.76,10.698 7.406,10.563 L7.406,10.563 C7.361,10.547 7.316,10.534 7.271,10.525 L7.271,10.525 L7.16,9.298 C7.211,9.272 7.26,9.24 7.307,9.204 L7.307,9.204 C7.603,8.975 7.764,8.572 7.722,8.163 L7.722,8.163 L7.559,6.474 C7.488,5.614 7.462,4.646 8.088,4 L8.088,4 C8.674,3.337 9.694,2.942 10.82,2.942 L10.82,2.942 C11.946,2.942 12.97,3.338 13.589,4.035 L13.589,4.035 C14.181,4.644 14.155,5.611 14.084,6.47 L14.084,6.47 L14.066,6.694 C14.023,7.147 13.976,7.595 13.929,8.046 L13.929,8.046 L13.917,8.156 C13.875,8.564 14.032,8.967 14.327,9.198 L14.327,9.198 C14.375,9.238 14.428,9.271 14.48,9.298 L14.48,9.298 L14.369,10.525 C14.325,10.534 14.281,10.547 14.238,10.563 L14.238,10.563 C13.883,10.698 13.63,11.055 13.585,11.48 L13.585,11.48 L13.412,13.168 C13.393,13.243 13.261,13.478 12.984,13.683 L12.984,13.683 C12.749,13.855 12.592,14.136 12.551,14.453 L12.551,14.453 L12.325,16.254 C12.29,16.549 12.358,16.849 12.516,17.082 L12.516,17.082 C12.673,17.32 12.906,17.473 13.162,17.508 L13.162,17.508 C15.297,17.803 17.336,18.477 19.19,19.493 L19.19,19.493 C19.504,19.682 19.747,20.271 19.719,20.604 L19.719,20.604 L19.486,23.305 C19.457,23.644 19.164,24 18.979,24.04 L18.979,24.04 C16.285,24.538 13.545,24.787 10.813,24.787 L10.813,24.787 C8.08,24.787 5.353,24.538 2.684,24.045 L2.684,24.045 Z" id="path-3"></path>
    </defs>
    <g id="Page-1" stroke="none" stroke-width="1" fill="none" fill-rule="evenodd">
        <g id="Group-7">
            <g id="Group-3" transform="translate(5.000000, 0.156100)">
                <mask id="mask-2" fill="white">
                    <use xlink:href="#path-1"></use>
                </mask>
                <g id="Clip-2"></g>
                <path d="M13.2717,29.1944 C12.7277,29.4014 12.1137,29.5224 11.4207,29.5224 C10.8217,29.5224 10.2857,29.4254 9.7977,29.2684 C9.0517,29.8124 8.0947,30.1474 6.9207,30.1474 C4.8087,30.1474 3.3947,29.0714 2.6677,27.6274 C-2.3193,27.4114 -3.2263,21.0534 -0.0543,18.5994 C-0.7163,16.3004 0.1067,13.5094 2.4307,12.4544 C-0.1413,9.6914 1.0177,3.8974 5.9207,3.8974 C6.8817,3.8974 7.6957,4.1234 8.3697,4.5014 C11.2847,5.3994 12.2277,8.7854 11.2287,11.3224 C13.1407,13.8724 12.3567,18.3324 8.8887,19.3184 C8.7257,19.6764 8.5167,20.0104 8.2707,20.3174 C8.3687,20.3414 8.4697,20.3644 8.5637,20.3944 C8.9557,20.1114 9.4067,19.8894 9.9137,19.7384 C10.4647,19.5234 11.0887,19.3974 11.7957,19.3974 C17.7027,19.3974 18.1827,27.7904 13.2717,29.1944 L13.2717,29.1944 Z M-4.7143,32.1094 L26.9237,32.1094 L26.9237,-4.1566 L-4.7143,-4.1566 L-4.7143,32.1094 Z" id="Fill-1" fill="#103068" mask="url(#mask-2)"></path>
            </g>
            <g id="Group-6" transform="translate(0.000000, 3.156100)">
                <mask id="mask-4" fill="white">
                    <use xlink:href="#path-3"></use>
                </mask>
                <g id="Clip-5"></g>
                <polygon id="Fill-4" fill="#103068" mask="url(#mask-4)" points="-10 32 32.639 32 32.639 -4.267 -10 -4.267"></polygon>
            </g>
        </g>
    </g>
</svg>