<?xml version="1.0" encoding="utf-8"?>
<!-- Generator: Adobe Illustrator 22.0.0, SVG Export Plug-In . SVG Version: 6.00 Build 0)  -->
<svg version="1.1" id="Layer_1" xmlns="http://www.w3.org/2000/svg" xmlns:xlink="http://www.w3.org/1999/xlink" x="0px" y="0px"
	 viewBox="0 0 22.9 16.6" style="enable-background:new 0 0 22.9 16.6;" xml:space="preserve">
<style type="text/css">
	.st0{fill:#00227D;}
</style>
<g>
	<g>
		<path class="st0" d="M11.1,16.7c-3.8,0-6.9-3.1-6.9-6.9s3.1-6.9,6.9-6.9C14.9,2.9,18,6,18,9.8S14.9,16.7,11.1,16.7L11.1,16.7z
			 M11.1,4.2c-3.1,0-5.6,2.5-5.6,5.6c0,3.1,2.5,5.6,5.6,5.6c3.1,0,5.6-2.5,5.6-5.6C16.7,6.7,14.2,4.2,11.1,4.2L11.1,4.2z"/>
	</g>
	<g>
		<g>
			<g>
				<path class="st0" d="M18,6.7c-0.1,0-0.3,0-0.4-0.1c-0.2-0.2-0.2-0.5,0-0.7L20,3.6l-2.4-2.3c-0.2-0.2-0.2-0.5,0-0.7
					c0.2-0.2,0.5-0.2,0.7,0l2.7,2.6c0.2,0.2,0.2,0.5,0,0.7l-2.7,2.6C18.3,6.6,18.2,6.7,18,6.7L18,6.7z"/>
			</g>
			<g>
				<path class="st0" d="M10.6,4.2c-0.3,0-0.5-0.3-0.5-0.6c0-0.3,0.2-0.6,0.5-0.6l9.9,0c0.3,0,0.5,0.3,0.5,0.6
					c0,0.3-0.2,0.6-0.5,0.6L10.6,4.2L10.6,4.2z"/>
			</g>
		</g>
	</g>
	<g>
		<g>
			<g>
				<path class="st0" d="M9.8,12.5c-0.1,0-0.3,0-0.4-0.1c-0.2-0.2-0.2-0.5,0-0.7l2.4-2.3L9.5,7.2C9.3,7,9.3,6.7,9.5,6.5
					c0.2-0.2,0.5-0.2,0.7,0l2.7,2.6c0.2,0.2,0.2,0.5,0,0.7l-2.7,2.6C10.1,12.5,10,12.5,9.8,12.5L9.8,12.5z"/>
			</g>
			<g>
				<path class="st0" d="M2.5,10c-0.3,0-0.5-0.3-0.5-0.6c0-0.3,0.2-0.6,0.5-0.6l9.9,0c0.3,0,0.5,0.3,0.5,0.6c0,0.3-0.2,0.6-0.5,0.6
					L2.5,10L2.5,10z"/>
			</g>
		</g>
	</g>
</g>
</svg>
