<?xml version="1.0" encoding="UTF-8"?>
<svg width="20px" height="18px" viewBox="0 0 20 18" version="1.1" xmlns="http://www.w3.org/2000/svg" xmlns:xlink="http://www.w3.org/1999/xlink">
    <!-- Generator: Sketch 64 (93537) - https://sketch.com -->
    <title>Icon - resume</title>
    <desc>Created with Sketch.</desc>
    <g id="Page-1" stroke="none" stroke-width="1" fill="none" fill-rule="evenodd">
        <g id="Config-/-Package-creation-int-logic-/-FILTER" transform="translate(-1054.000000, -303.000000)" fill="#F2EEE8">
            <g id="Integration-logic---Content" transform="translate(182.000000, 302.000000)">
                <g id="top---transformation-engine" transform="translate(75.773438, 0.210938)">
                    <g id="Icon---resume" transform="translate(796.226562, 0.789062)">
                        <path d="M10.91752,17.05704 C8.72552,17.05704 6.64392,16.22744 5.05512,14.72104 C4.71752,14.40504 4.40472,14.05624 4.12392,13.68744 C3.85672,13.33544 3.92552,12.83384 4.27672,12.56664 C4.63032,12.29864 5.13032,12.36744 5.39752,12.71864 C5.62552,13.01784 5.87832,13.30024 6.15352,13.55784 C7.44552,14.78344 9.13752,15.45704 10.91752,15.45704 C14.73752,15.45704 17.84712,12.34824 17.84712,8.52744 C17.84712,4.70744 14.73752,1.60024 10.91752,1.60024 C7.09592,1.60024 3.98792,4.70744 3.98792,8.52744 C3.98792,8.96984 3.63032,9.32744 3.18792,9.32744 C2.74552,9.32744 2.38792,8.96984 2.38792,8.52744 C2.38792,3.82504 6.21432,0.00024 10.91752,0.00024 C15.62072,0.00024 19.44712,3.82504 19.44712,8.52744 C19.44712,13.23064 15.62072,17.05704 10.91752,17.05704" id="Fill-1"></path>
                        <path d="M3.23,10.418 C3.038,10.418 2.8468,10.35 2.6956,10.2132 L0.266,8.034 C-0.0636,7.7388 -0.09,7.2332 0.2052,6.9036 C0.5004,6.5756 1.0052,6.5476 1.3348,6.8428 L3.23,8.5428 L5.1252,6.8428 C5.4532,6.5468 5.958,6.5748 6.2548,6.9036 C6.55,7.2332 6.522,7.7388 6.194,8.034 L3.7644,10.2132 C3.6116,10.35 3.4204,10.418 3.23,10.418" id="Fill-3"></path>
                    </g>
                </g>
            </g>
        </g>
    </g>
</svg>