<?xml version="1.0" encoding="utf-8"?>
<!-- Generator: Adobe Illustrator 22.0.0, SVG Export Plug-In . SVG Version: 6.00 Build 0)  -->
<svg version="1.1" id="Layer_1" xmlns="http://www.w3.org/2000/svg" xmlns:xlink="http://www.w3.org/1999/xlink" x="0px" y="0px"
	 viewBox="0 0 22.9 25.5" style="enable-background:new 0 0 22.9 25.5;" xml:space="preserve">
<style type="text/css">
	.st0{fill:#103068;}
</style>
<g>
	<g>
		<g>
			<g>
				<path class="st0" d="M16.2,12.4c-3.4,0-6.2-2.8-6.2-6.2C10,2.8,12.8,0,16.2,0c3.4,0,6.2,2.8,6.2,6.2
					C22.4,9.7,19.7,12.4,16.2,12.4L16.2,12.4z M16.2,1C13.4,1,11,3.4,11,6.2c0,2.9,2.3,5.2,5.2,5.2c2.9,0,5.2-2.3,5.2-5.2
					C21.4,3.4,19.1,1,16.2,1L16.2,1z"/>
			</g>
		</g>
		<g>
			<path class="st0" d="M15.2,9.5c-0.3,0-0.5-0.1-0.7-0.3l-1.6-1.7c-0.4-0.4-0.4-1,0-1.4c0.4-0.4,1-0.4,1.4,0L15.2,7l2.8-3.4
				c0.3-0.4,1-0.5,1.4-0.1c0.4,0.4,0.5,1,0.1,1.4L16,9.2C15.8,9.4,15.5,9.5,15.2,9.5C15.2,9.5,15.2,9.5,15.2,9.5L15.2,9.5z"/>
		</g>
	</g>
	<g>
		<g>
			<g>
				<path class="st0" d="M20.5,25.5H2.4c-1.3,0-2.4-1.1-2.4-2.4V9.9c0-0.3,0.1-0.6,0.4-0.8l10.5-8.9c0.4-0.4,1.1-0.3,1.4,0.1
					c0.4,0.4,0.3,1.1-0.1,1.4L2,10.4v12.8c0,0.2,0.2,0.4,0.4,0.4h18.2c0.2,0,0.4-0.2,0.4-0.4V9.9c0-0.6,0.4-1,1-1s1,0.4,1,1v13.2
					C22.9,24.5,21.8,25.5,20.5,25.5L20.5,25.5z"/>
			</g>
			<g>
				<path class="st0" d="M20.5,25H2.4c-0.8,0-1.5-0.5-1.7-1.2c-0.1-0.2,0-0.4,0.1-0.6L11.1,14c0.2-0.2,0.5-0.2,0.7,0l10.3,9.2
					c0.2,0.1,0.2,0.4,0.1,0.6C22,24.5,21.3,25,20.5,25L20.5,25z M1.7,23.7C1.9,23.9,2.1,24,2.4,24h18.2c0.2,0,0.5-0.1,0.6-0.3
					l-9.7-8.7L1.7,23.7L1.7,23.7z"/>
			</g>
			<g>
				<path class="st0" d="M14.6,17.7c-0.1,0-0.3-0.1-0.4-0.2c-0.2-0.2-0.2-0.5,0-0.7l7.2-6.4c0.2-0.2,0.5-0.2,0.7,0
					c0.2,0.2,0.2,0.5,0,0.7L15,17.6C14.9,17.6,14.7,17.7,14.6,17.7L14.6,17.7z"/>
			</g>
			<g>
				<path class="st0" d="M8.3,17.7c-0.1,0-0.2,0-0.3-0.1l-7.2-6.4c-0.2-0.2-0.2-0.5,0-0.7c0.2-0.2,0.5-0.2,0.7,0l7.2,6.4
					c0.2,0.2,0.2,0.5,0,0.7C8.6,17.7,8.4,17.7,8.3,17.7L8.3,17.7z"/>
			</g>
			<g>
				<g>
					<path class="st0" d="M16.2,12.4c-3.4,0-6.2-2.8-6.2-6.2C10,2.8,12.8,0,16.2,0c3.4,0,6.2,2.8,6.2,6.2
						C22.4,9.7,19.7,12.4,16.2,12.4L16.2,12.4z M16.2,1C13.4,1,11,3.4,11,6.2c0,2.9,2.3,5.2,5.2,5.2c2.9,0,5.2-2.3,5.2-5.2
						C21.4,3.4,19.1,1,16.2,1L16.2,1z"/>
				</g>
			</g>
		</g>
		<polygon class="st0" points="13.3,1.6 12.3,0.4 10.8,1.8 11.9,3 		"/>
		<polygon class="st0" points="22.7,9.3 21.6,8 20.5,9.8 21.3,10.7 		"/>
	</g>
</g>
</svg>
