<?xml version="1.0" encoding="UTF-8"?>
<svg width="19px" height="19px" viewBox="0 0 19 19" version="1.1" xmlns="http://www.w3.org/2000/svg" xmlns:xlink="http://www.w3.org/1999/xlink">
    <!-- Generator: Sketch 64 (93537) - https://sketch.com -->
    <title>icon - dashboard inactive</title>
    <desc>Created with Sketch.</desc>
    <g id="Page-1" stroke="none" stroke-width="1" fill="none" fill-rule="evenodd">
        <g id="Artboard" transform="translate(-79.000000, -94.000000)" fill="#B7CDCD">
            <g id="icon---dashboard-inactive" transform="translate(79.000000, 94.000000)">
                <path d="M1.6,9.50512 L7.2264,9.50512 L7.2264,2.10432 L1.6,2.10432 L1.6,9.50512 Z M8.0264,11.60912 L0.8,11.60912 C0.3576,11.60912 0,11.13872 0,10.55632 L0,1.05152 C0,0.47072 0.3576,0.00032 0.8,0.00032 L8.0264,0.00032 C8.4688,0.00032 8.8264,0.47072 8.8264,1.05152 L8.8264,10.55632 C8.8264,11.13872 8.4688,11.60912 8.0264,11.60912 L8.0264,11.60912 Z" id="Fill-1"></path>
                <path d="M1.6,17.66592 L7.2264,17.66592 L7.2264,13.96192 L1.6,13.96192 L1.6,17.66592 Z M8.0264,18.71952 L0.8,18.71952 C0.3576,18.71952 0,18.48352 0,18.19312 L0,13.43552 C0,13.14512 0.3576,12.90912 0.8,12.90912 L8.0264,12.90912 C8.4688,12.90912 8.8264,13.14512 8.8264,13.43552 L8.8264,18.19312 C8.8264,18.48352 8.4688,18.71952 8.0264,18.71952 L8.0264,18.71952 Z" id="Fill-3"></path>
                <path d="M11.4936,16.65312 L17.12,16.65312 L17.12,9.38592 L11.4936,9.38592 L11.4936,16.65312 Z M17.92,18.71952 L10.6936,18.71952 C10.2512,18.71952 9.8936,18.25712 9.8936,17.68592 L9.8936,8.35312 C9.8936,7.78192 10.2512,7.31952 10.6936,7.31952 L17.92,7.31952 C18.3624,7.31952 18.72,7.78192 18.72,8.35312 L18.72,17.68592 C18.72,18.25712 18.3624,18.71952 17.92,18.71952 L17.92,18.71952 Z" id="Fill-4"></path>
                <path d="M11.4936,4.83232 L17.12,4.83232 L17.12,1.12832 L11.4936,1.12832 L11.4936,4.83232 Z M17.92,5.88512 L10.6936,5.88512 C10.2512,5.88512 9.8936,5.64912 9.8936,5.35872 L9.8936,0.60112 C9.8936,0.31072 10.2512,0.07472 10.6936,0.07472 L17.92,0.07472 C18.3624,0.07472 18.72,0.31072 18.72,0.60112 L18.72,5.35872 C18.72,5.64912 18.3624,5.88512 17.92,5.88512 L17.92,5.88512 Z" id="Fill-5"></path>
            </g>
        </g>
    </g>
</svg>