<?xml version="1.0" encoding="UTF-8"?>
<svg width="24px" height="29px" viewBox="0 0 24 29" version="1.1" xmlns="http://www.w3.org/2000/svg" xmlns:xlink="http://www.w3.org/1999/xlink">
    <title>icon_notification</title>
    <defs>
        <polygon id="path-1" points="0 0.0330518945 22.4524454 0.0330518945 22.4524454 3.4618099 0 3.4618099"></polygon>
        <polygon id="path-3" points="0.677324881 0.563291021 2.59527726 0.563291021 2.59527726 5.00312876 0.677324881 5.00312876"></polygon>
    </defs>
    <g id="Symbols" stroke="none" stroke-width="1" fill="none" fill-rule="evenodd">
        <g id="Header---Packages" transform="translate(-941.000000, -22.000000)">
            <g id="icon_notification" transform="translate(941.691194, 22.089845)">
                <path d="M1.1194129,24.9487116 C0.975566475,24.9487116 0.826925166,24.9100543 0.686914643,24.8294264 C0.215098359,24.5544079 0.0252210737,23.8895035 0.264965121,23.3449889 L0.535396405,22.7419362 C1.3610749,20.9007477 1.61232666,20.3451881 2.02948131,14.1136431 C2.44951288,7.90087449 6.14444813,3.56353363 11.0179651,3.56353363 L11.023719,3.56353363 L11.6048585,3.56353363 C12.1342134,3.56353363 12.5638347,4.05834613 12.5638347,4.66802583 C12.5638347,5.27770552 12.1342134,5.77251802 11.6048585,5.77251802 L11.021801,5.77251802 L11.0198831,5.77251802 C7.12835769,5.77251802 4.2849933,9.19313036 3.94167982,14.2848394 C3.51109951,20.6975211 3.2339554,21.5424576 2.23757914,23.758069 L1.97769659,24.3434498 C1.80699883,24.7278131 1.46943921,24.9487116 1.1194129,24.9487116" id="Fill-1" fill="#103068"></path>
                <path d="M21.3308909,24.9487116 C20.9808646,24.9487116 20.643305,24.7267086 20.4745252,24.3423454 L20.2127247,23.75586 C19.2201843,21.5413531 18.9411223,20.6964166 18.510542,14.2848394 C18.1653105,9.19313036 15.3219461,5.77251802 11.4342567,5.77251802 L11.4304208,5.77251802 L10.8473632,5.77251802 C10.3180084,5.77251802 9.88838706,5.27770552 9.88838706,4.66802583 C9.88838706,4.05834613 10.3180084,3.56353363 10.8473632,3.56353363 L11.4285028,3.56353363 L11.4323387,3.56353363 C16.3058557,3.56353363 20.0027089,7.90087449 20.4227405,14.1136431 C20.8418131,20.3451881 21.0911469,20.8996432 21.9168254,22.7419362 L22.1872567,23.3460934 C22.4250828,23.890608 22.2352055,24.5544079 21.7633892,24.8305309 C21.6252966,24.9100543 21.4766553,24.9487116 21.3308909,24.9487116" id="Fill-3" fill="#103068"></path>
                <g id="Group-7" transform="translate(0.000000, 21.526774)">
                    <mask id="mask-2" fill="white">
                        <use xlink:href="#path-1"></use>
                    </mask>
                    <g id="Clip-6"></g>
                    <path d="M21.493821,3.4618099 C21.4305286,3.4618099 21.3643592,3.45407845 21.2991488,3.43861556 C14.6141258,1.84372883 7.83608212,1.84483332 1.15297707,3.43861556 C0.636088905,3.55790072 0.12687255,3.17905989 0.0194672166,2.58152961 C-0.0869791402,1.98399934 0.246744573,1.39972296 0.763632738,1.27601984 C7.70853829,-0.381822953 14.7455056,-0.380718461 21.6884931,1.27601984 C22.2053813,1.39972296 22.539105,1.98399934 22.4326587,2.58152961 C22.338679,3.10284993 21.9397449,3.4618099 21.493821,3.4618099" id="Fill-5" fill="#15346B" mask="url(#mask-2)"></path>
                </g>
                <g id="Group-10" transform="translate(9.589762, 0.541422)">
                    <mask id="mask-4" fill="white">
                        <use xlink:href="#path-3"></use>
                    </mask>
                    <g id="Clip-9"></g>
                    <path d="M1.63630107,5.00312876 C1.10598724,5.00312876 0.677324881,4.50831625 0.677324881,3.89863656 L0.677324881,1.66756232 C0.677324881,1.05788263 1.10598724,0.563070123 1.63630107,0.563070123 C2.1666149,0.563070123 2.59527726,1.05788263 2.59527726,1.66756232 L2.59527726,3.89863656 C2.59527726,4.50831625 2.1666149,5.00312876 1.63630107,5.00312876" id="Fill-8" fill="#15346B" mask="url(#mask-4)"></path>
                </g>
                <path d="M11.2242409,27.0492348 C9.64384813,27.0492348 8.35882004,25.5681108 8.35882004,23.7479077 C8.35882004,23.1371235 8.7874824,22.6434155 9.31779623,22.6434155 C9.84715108,22.6434155 10.2767724,23.1371235 10.2767724,23.7479077 C10.2767724,24.3498559 10.7015989,24.8402504 11.2242409,24.8402504 C11.7507188,24.8402504 12.1774632,24.3498559 12.1774632,23.7479077 C12.1774632,23.1371235 12.6061256,22.6434155 13.1364394,22.6434155 C13.6667532,22.6434155 14.0954156,23.1371235 14.0954156,23.7479077 C14.0954156,25.5681108 12.8065516,27.0492348 11.2242409,27.0492348" id="Fill-11" fill="#103068"></path>
            </g>
        </g>
    </g>
</svg>