<?xml version="1.0" encoding="utf-8"?>
<!-- Generator: Adobe Illustrator 22.0.0, SVG Export Plug-In . SVG Version: 6.00 Build 0)  -->
<svg version="1.1" id="Layer_1" xmlns="http://www.w3.org/2000/svg" xmlns:xlink="http://www.w3.org/1999/xlink" x="0px" y="0px"
	 viewBox="0 0 18.6 20.3" style="enable-background:new 0 0 18.6 20.3;" xml:space="preserve">
<style type="text/css">
	.st0{fill:#00227D;}
</style>
<g>
	<g>
		<g>
			<g>
				<path class="st0" d="M11.5,10.1c-0.1,0-0.2,0-0.2-0.1c-0.1-0.1-0.1-0.3,0-0.4l1.2-1.2l-1.2-1.2c-0.1-0.1-0.1-0.3,0-0.4
					c0.1-0.1,0.3-0.1,0.4,0l1.4,1.5c0.1,0.1,0.1,0.3,0,0.4L11.7,10C11.6,10,11.5,10.1,11.5,10.1L11.5,10.1z"/>
			</g>
			<g>
				<path class="st0" d="M7.4,10.1c-0.1,0-0.2,0-0.2-0.1L5.8,8.5c-0.1-0.1-0.1-0.3,0-0.4l1.4-1.5c0.1-0.1,0.3-0.1,0.4,0
					c0.1,0.1,0.1,0.3,0,0.4L6.4,8.3l1.2,1.2c0.1,0.1,0.1,0.3,0,0.4C7.6,10,7.5,10.1,7.4,10.1L7.4,10.1z"/>
			</g>
		</g>
		<g>
			<path class="st0" d="M8.3,11.8c0,0-0.1,0-0.1,0C8,11.7,7.9,11.5,8,11.4L10.3,5c0.1-0.2,0.2-0.2,0.4-0.2c0.2,0.1,0.2,0.2,0.2,0.4
				l-2.4,6.4C8.5,11.7,8.4,11.8,8.3,11.8L8.3,11.8z"/>
		</g>
	</g>
	<g>
		<g>
			<g>
				<path class="st0" d="M11.3,19.2c-0.2,0-0.4-0.2-0.4-0.4v-5.1c0-0.2,0.2-0.4,0.4-0.4h5.1c0.2,0,0.4,0.2,0.4,0.4
					c0,0.2-0.2,0.4-0.4,0.4h-4.7v4.7C11.7,19,11.5,19.2,11.3,19.2L11.3,19.2z"/>
			</g>
			<g>
				<path class="st0" d="M11.3,19.6H2.5c-0.5,0-0.9-0.4-0.9-0.9V1.3c0-0.5,0.4-0.9,0.9-0.9h13.9c0.5,0,0.9,0.4,0.9,0.9v12.4
					c0,0.2-0.1,0.4-0.2,0.6l-5.1,5.1C11.7,19.5,11.5,19.6,11.3,19.6L11.3,19.6z M3.3,17.9h7.6l4.6-4.6V2.1H3.3V17.9L3.3,17.9z"/>
			</g>
		</g>
	</g>
</g>
</svg>
