<?xml version="1.0" encoding="UTF-8"?>
<svg width="21px" height="17px" viewBox="0 0 21 17" version="1.1" xmlns="http://www.w3.org/2000/svg" xmlns:xlink="http://www.w3.org/1999/xlink">
    <!-- Generator: Sketch 64 (93537) - https://sketch.com -->
    <title>icon - users inactive</title>
    <desc>Created with Sketch.</desc>
    <defs>
        <polygon id="path-1" points="0 0.318168421 4.562874 0.318168421 4.562874 6.54285263 0 6.54285263"></polygon>
    </defs>
    <g id="Page-1" stroke="none" stroke-width="1" fill="none" fill-rule="evenodd">
        <g id="Artboard" transform="translate(-78.000000, -131.000000)">
            <g id="icon---users-inactive" transform="translate(78.000000, 131.000000)">
                <path d="M10.2080222,1.85890526 C9.41313333,1.85890526 8.76602222,2.77869474 8.76602222,3.91053684 C8.76602222,5.04327368 9.41313333,5.96395789 10.2080222,5.96395789 C11.0029111,5.96395789 11.6492444,5.04327368 11.6492444,3.91053684 C11.6492444,2.77869474 11.0029111,1.85890526 10.2080222,1.85890526 M10.2080222,7.82232632 C8.52335556,7.82232632 7.15057778,6.06774737 7.15057778,3.91053684 C7.15057778,1.75422105 8.52335556,-0.000357894737 10.2080222,-0.000357894737 C11.8934667,-0.000357894737 13.2646889,1.75422105 13.2646889,3.91053684 C13.2646889,6.06774737 11.8934667,7.82232632 10.2080222,7.82232632" id="Fill-1" fill="#B7CDCD"></path>
                <path d="M6.57657778,15.0597632 L13.7282444,15.0597632 L13.8666889,12.7119737 C13.8908,12.3156053 13.5532444,11.5738684 13.0375778,11.3546579 C11.1911333,10.5941316 9.1238,10.5914474 7.26257778,11.3564474 C6.75468889,11.5738684 6.41557778,12.3173947 6.43891111,12.7110789 C6.48324444,13.4868158 6.53068889,14.2723947 6.57657778,15.0597632 M14.4819111,16.9181316 L5.82368889,16.9181316 C5.39902222,16.9181316 5.04746667,16.5405526 5.01713333,16.0529211 C4.95102222,14.9747632 4.88802222,13.8957105 4.82657778,12.8354474 C4.7488,11.5336053 5.59502222,10.0850263 6.71035556,9.61081579 C8.9348,8.69192105 11.3778,8.69728947 13.5882444,9.60813158 C14.7129111,10.0832368 15.5583556,11.5318158 15.4790222,12.8390263 L15.2884667,16.0529211 C15.2589111,16.5405526 14.9065778,16.9181316 14.4819111,16.9181316" id="Fill-3" fill="#B7CDCD"></path>
                <path d="M6.57657778,15.0597632 L13.7282444,15.0597632 L13.8666889,12.7119737 C13.8908,12.3156053 13.5532444,11.5738684 13.0375778,11.3546579 C11.1911333,10.5941316 9.1238,10.5914474 7.26257778,11.3564474 C6.75468889,11.5738684 6.41557778,12.3173947 6.43891111,12.7110789 C6.48324444,13.4868158 6.53068889,14.2723947 6.57657778,15.0597632 M14.4819111,16.9181316 L5.82368889,16.9181316 C5.39902222,16.9181316 5.04746667,16.5405526 5.01713333,16.0529211 C4.95102222,14.9747632 4.88802222,13.8957105 4.82657778,12.8354474 C4.7488,11.5336053 5.59502222,10.0850263 6.71035556,9.61081579 C8.9348,8.69192105 11.3778,8.69728947 13.5882444,9.60813158 C14.7129111,10.0832368 15.5583556,11.5318158 15.4790222,12.8390263 L15.2884667,16.0529211 C15.2589111,16.5405526 14.9065778,16.9181316 14.4819111,16.9181316" id="Fill-5" fill="#B7CDCD"></path>
                <path d="M19.7206333,15.4084421 L16.2727444,15.4084421 C16.0487444,15.4084421 15.8690778,15.2008632 15.8690778,14.9431789 C15.8690778,14.6863895 16.0487444,14.4788105 16.2727444,14.4788105 L19.3434111,14.4788105 L19.4834111,12.1381789 C19.5137444,11.6272842 19.1240778,10.8560211 18.5749667,10.6242842 C17.7909667,10.3021789 16.9673,10.1294947 16.1280778,10.1133895 C15.9040778,10.1080211 15.7267444,9.89686316 15.7306333,9.64007368 C15.7353,9.38686316 15.9149667,9.18375789 16.1343,9.18375789 L16.1420778,9.18375789 C17.0699667,9.20165263 17.9807444,9.39223158 18.8495222,9.75102105 C19.6903,10.1053368 20.3483,11.2273368 20.2899667,12.1999158 L20.1250778,14.9753895 C20.1087444,15.2196526 19.9329667,15.4084421 19.7206333,15.4084421" id="Fill-7" fill="#B7CDCD"></path>
                <path d="M17.0682556,3.52606842 C16.3239222,3.52606842 15.7180333,4.36085789 15.7180333,5.38622632 C15.7180333,6.41159474 16.3239222,7.24638421 17.0682556,7.24638421 C17.8110333,7.24638421 18.4153667,6.41159474 18.4153667,5.38622632 C18.4153667,4.36085789 17.8110333,3.52606842 17.0682556,3.52606842 M17.0682556,8.17512105 C15.8790333,8.17512105 14.9099222,6.92427895 14.9099222,5.38622632 C14.9099222,3.84817368 15.8790333,2.59733158 17.0682556,2.59733158 C18.2559222,2.59733158 19.2234778,3.84817368 19.2234778,5.38622632 C19.2234778,6.92427895 18.2559222,8.17512105 17.0682556,8.17512105" id="Fill-9" fill="#B7CDCD"></path>
                <g id="Group-13" transform="translate(0.000000, 8.865589)">
                    <mask id="mask-2" fill="white">
                        <use xlink:href="#path-1"></use>
                    </mask>
                    <g id="Clip-12"></g>
                    <path d="M4.02072222,6.54285263 L0.571277778,6.54285263 C0.3605,6.54285263 0.183166667,6.35406316 0.169166667,6.1098 L0.0035,3.33343158 C-0.0548333333,2.36174737 0.603166667,1.23974737 1.44083333,0.886326316 C2.3135,0.526642105 3.22427778,0.336063158 4.15138889,0.318168421 C4.38472222,0.353957895 4.55816667,0.517694737 4.562874,0.774484211 C4.56594444,1.03127368 4.39016667,1.24243158 4.16616667,1.2478 C3.32616667,1.26390526 2.5025,1.43658947 1.71694444,1.75958947 C1.16938889,1.99043158 0.779722222,2.76169474 0.810055556,3.27169474 L0.9485,5.61322105 L4.02072222,5.61322105 C4.24472222,5.61322105 4.42438889,5.8208 4.42438889,6.07758947 C4.42438889,6.33527368 4.24472222,6.54285263 4.02072222,6.54285263" id="Fill-11" fill="#B7CDCD" mask="url(#mask-2)"></path>
                </g>
                <path d="M3.22544444,3.52606842 C2.48188889,3.52606842 1.87833333,4.36085789 1.87833333,5.38622632 C1.87833333,6.41159474 2.48188889,7.24638421 3.22544444,7.24638421 C3.96977778,7.24638421 4.57566667,6.41159474 4.57566667,5.38622632 C4.57566667,4.36085789 3.96977778,3.52606842 3.22544444,3.52606842 M3.22544444,8.17512105 C2.03777778,8.17512105 1.07022222,6.92427895 1.07022222,5.38622632 C1.07022222,3.84817368 2.03777778,2.59733158 3.22544444,2.59733158 C4.41466667,2.59733158 5.383,3.84817368 5.383,5.38622632 C5.383,6.92427895 4.41466667,8.17512105 3.22544444,8.17512105" id="Fill-14" fill="#B7CDCD"></path>
            </g>
        </g>
    </g>
</svg>