<?xml version="1.0" encoding="UTF-8"?>
<svg width="13px" height="13px" viewBox="0 0 13 13" version="1.1" xmlns="http://www.w3.org/2000/svg" xmlns:xlink="http://www.w3.org/1999/xlink">
    <!-- Generator: Sketch 64 (93537) - https://sketch.com -->
    <title>icon - receiver</title>
    <desc>Created with Sketch.</desc>
    <g id="Page-1" stroke="none" stroke-width="1" fill="none" fill-rule="evenodd">
        <g id="Config-/-Package-creation-int-logic-/-FILTER" transform="translate(-928.000000, -382.000000)" fill="#FFFFFF">
            <g id="Integration-logic---Content" transform="translate(182.000000, 302.000000)">
                <g id="top---transformation-engine" transform="translate(75.773438, 0.210938)">
                    <g id="Receiver" transform="translate(660.000000, 71.000000)">
                        <g id="icon---receiver" transform="translate(10.400000, 9.084628)">
                            <path d="M11.600472,12.0999982 C11.467352,12.0999982 11.334232,12.0491243 11.232832,11.9478956 L0.152152,0.885932959 C-0.050648,0.683475527 -0.050648,0.354871541 0.152152,0.151894986 C0.355472,-0.0505624459 0.684632,-0.0505624459 0.887432,0.151894986 L11.968112,11.2138576 C12.171432,11.4168342 12.171432,11.744919 11.968112,11.9478956 C11.866712,12.0491243 11.733592,12.0999982 11.600472,12.0999982" id="Fill-1"></path>
                            <path d="M11.752832,12.3392614 L1.751152,12.3392614 C1.463592,12.3392614 1.231152,12.1066949 1.231152,11.8201398 C1.231152,11.5335846 1.463592,11.3010181 1.751152,11.3010181 L11.232832,11.3010181 L11.232832,1.83535449 C11.232832,1.54828024 11.465272,1.31623287 11.752832,1.31623287 C12.040392,1.31623287 12.272832,1.54828024 12.272832,1.83535449 L12.272832,11.8201398 C12.272832,12.1066949 12.040392,12.3392614 11.752832,12.3392614" id="Fill-3"></path>
                        </g>
                    </g>
                </g>
            </g>
        </g>
    </g>
</svg>