<?xml version="1.0" encoding="utf-8"?>
<!-- Generator: Adobe Illustrator 22.0.0, SVG Export Plug-In . SVG Version: 6.00 Build 0)  -->
<svg version="1.1" id="Layer_1" xmlns="http://www.w3.org/2000/svg" xmlns:xlink="http://www.w3.org/1999/xlink" x="0px" y="0px"
	 viewBox="0 0 22.9 20.3" style="enable-background:new 0 0 22.9 20.3;" xml:space="preserve">
<style type="text/css">
	.st0{fill:#00227D;}
</style>
<g>
	<g>
		<path class="st0" d="M21,10.8h-6.8c-0.3,0-0.5-0.1-0.7-0.3L8.1,4.8H1.4c-0.5,0-1-0.4-1-1s0.4-1,1-1h7.1c0.3,0,0.5,0.1,0.7,0.3
			l5.3,5.6H21c0.5,0,1,0.4,1,1C22,10.3,21.5,10.8,21,10.8L21,10.8z"/>
	</g>
	<g>
		<path class="st0" d="M8.6,16.7H1.4c-0.5,0-1-0.4-1-1c0-0.5,0.4-1,1-1h6.7l5.3-5.6c0.2-0.2,0.4-0.3,0.7-0.3H21c0.5,0,1,0.4,1,1
			c0,0.5-0.4,1-1,1h-6.4l-5.3,5.6C9.1,16.6,8.8,16.7,8.6,16.7L8.6,16.7z"/>
	</g>
	<g>
		<path class="st0" d="M17.6,14.4c-0.2,0-0.5-0.1-0.7-0.3c-0.4-0.4-0.4-1,0-1.4l3-3l-3-3c-0.4-0.4-0.4-1,0-1.4c0.4-0.4,1-0.4,1.4,0
			L22,9.1c0.4,0.4,0.4,1,0,1.4l-3.7,3.7C18.1,14.3,17.8,14.4,17.6,14.4L17.6,14.4z"/>
	</g>
</g>
</svg>
