<?xml version="1.0" encoding="UTF-8"?>
<svg width="19px" height="21px" viewBox="0 0 19 21" version="1.1" xmlns="http://www.w3.org/2000/svg" xmlns:xlink="http://www.w3.org/1999/xlink">
    <!-- Generator: Sketch 64 (93537) - https://sketch.com -->
    <title>Icon - events inactive</title>
    <desc>Created with Sketch.</desc>
    <defs>
        <polygon id="path-1" points="0 0.392038012 18.5955812 0.392038012 18.5955812 2.99843478 0 2.99843478"></polygon>
        <polygon id="path-3" points="0.731240909 0.362478261 2.31946818 0.362478261 2.31946818 3.73763478 0.731240909 3.73763478"></polygon>
    </defs>
    <g id="Page-1" stroke="none" stroke-width="1" fill="none" fill-rule="evenodd">
        <g id="Artboard" transform="translate(-77.000000, -195.000000)">
            <g id="Icon---events-inactive" transform="translate(77.000000, 195.000000)">
                <path d="M0.926940909,19.0408826 C0.807759091,19.0408826 0.685122727,19.0125783 0.568531818,18.9504913 C0.178168182,18.7414043 0.0209863636,18.2355783 0.219622727,17.8219696 L0.442440909,17.3636217 C1.12644091,15.9639261 1.33544091,15.541187 1.68089545,10.8043174 C2.02807727,6.08114348 5.08880455,2.78231739 9.12544091,2.78231739 L9.13062273,2.78231739 L9.61166818,2.78231739 C10.0495318,2.78231739 10.4062136,3.1584913 10.4062136,3.62231739 C10.4062136,4.08614348 10.0495318,4.46231739 9.61166818,4.46231739 L9.12889545,4.46231739 L9.12716818,4.46231739 C5.90407727,4.46231739 3.54894091,7.06266522 3.26480455,10.9330565 C2.90812273,15.8096217 2.67839545,16.4514913 1.85275909,18.1360565 L1.63771364,18.5807087 C1.49607727,18.8728826 1.21712273,19.0408826 0.926940909,19.0408826" id="Fill-1" fill="#B7CDCD"></path>
                <path d="M17.6674955,19.0408826 C17.3773136,19.0408826 17.0983591,18.8719696 16.95845,18.5797957 L16.7416773,18.1342304 C15.9194955,16.4496652 15.6880409,15.8077957 15.3313591,10.9330565 C15.0454955,7.06266522 12.6903591,4.46231739 9.47072273,4.46231739 L9.46726818,4.46231739 L8.98449545,4.46231739 C8.54490455,4.46231739 8.18995,4.08614348 8.18995,3.62231739 C8.18995,3.1584913 8.54490455,2.78231739 8.98449545,2.78231739 L9.46554091,2.78231739 L9.46899545,2.78231739 C13.5056318,2.78231739 16.5680864,6.08023043 16.9152682,10.8034043 C17.26245,15.5402739 17.4688591,15.963013 18.1528591,17.3627087 L18.3756773,17.8228826 C18.57345,18.2364913 18.4162682,18.7414043 18.0259045,18.9504913 C17.9101773,19.0125783 17.7884045,19.0408826 17.6674955,19.0408826" id="Fill-3" fill="#B7CDCD"></path>
                <g id="Group-7" transform="translate(0.000000, 16.072761)">
                    <mask id="mask-2" fill="white">
                        <use xlink:href="#path-1"></use>
                    </mask>
                    <g id="Clip-6"></g>
                    <path d="M17.8024818,2.99843478 C17.7489364,2.99843478 17.6953909,2.99295652 17.6409818,2.98017391 C12.1042091,1.76856522 6.48970909,1.76947826 0.954663636,2.98017391 C0.527163636,3.07147826 0.104845455,2.78386957 0.0158909091,2.32917391 C-0.0713363636,1.8753913 0.204163636,1.43073913 0.632527273,1.33669565 C6.38434545,0.0766956522 12.2130273,0.0776086957 17.9639818,1.33669565 C18.3923455,1.43073913 18.6678455,1.8753913 18.5788909,2.32917391 C18.5020273,2.72543478 18.1721182,2.99843478 17.8024818,2.99843478" id="Fill-5" fill="#B7CDCD" mask="url(#mask-2)"></path>
                </g>
                <g id="Group-10" transform="translate(7.772727, 0.551022)">
                    <mask id="mask-4" fill="white">
                        <use xlink:href="#path-3"></use>
                    </mask>
                    <g id="Clip-9"></g>
                    <path d="M1.52492273,3.73763478 C1.08619545,3.73763478 0.731240909,3.36146087 0.731240909,2.89763478 L0.731240909,1.20211304 C0.731240909,0.738286957 1.08619545,0.362113043 1.52492273,0.362113043 C1.96451364,0.362113043 2.31946818,0.738286957 2.31946818,1.20211304 L2.31946818,2.89763478 C2.31946818,3.36146087 1.96451364,3.73763478 1.52492273,3.73763478" id="Fill-8" fill="#F2EEE8" mask="url(#mask-4)"></path>
                </g>
                <path d="M9.29687273,20.6377957 C7.98673636,20.6377957 6.92273636,19.5129261 6.92273636,18.1278391 C6.92273636,17.664013 7.27769091,17.2878391 7.71728182,17.2878391 C8.15687273,17.2878391 8.51182727,17.664013 8.51182727,18.1278391 C8.51182727,18.586187 8.86332727,18.9587087 9.29687273,18.9587087 C9.73214545,18.9587087 10.0862364,18.586187 10.0862364,18.1278391 C10.0862364,17.664013 10.4411909,17.2878391 10.8807818,17.2878391 C11.3195091,17.2878391 11.6744636,17.664013 11.6744636,18.1278391 C11.6744636,19.5129261 10.6078727,20.6377957 9.29687273,20.6377957" id="Fill-11" fill="#B7CDCD"></path>
            </g>
        </g>
    </g>
</svg>