<?xml version="1.0" encoding="UTF-8"?>
<svg width="15px" height="11px" viewBox="0 0 15 11" version="1.1" xmlns="http://www.w3.org/2000/svg" xmlns:xlink="http://www.w3.org/1999/xlink">
    <!-- Generator: Sketch 64 (93537) - https://sketch.com -->
    <title>icon - join</title>
    <desc>Created with Sketch.</desc>
    <defs>
        <polygon id="path-1" points="0.00026 0.464211921 14.55896 0.464211921 14.55896 6.08902781 0.00026 6.08902781"></polygon>
        <polygon id="path-3" points="0 0.573721854 14.55909 0.573721854 14.55909 6.1986755 0 6.1986755"></polygon>
    </defs>
    <g id="Symbols" stroke="none" stroke-width="1" fill="none" fill-rule="evenodd">
        <g id="Integration-logic---on-click-task-condition" transform="translate(-35.000000, -232.000000)">
            <g id="icon---join">
                <g>
                    <g transform="translate(35.000000, 232.052980)">
                        <g id="Group-3" transform="translate(0.000000, 0.224668)">
                            <mask id="mask-2" fill="white">
                                <use xlink:href="#path-1"></use>
                            </mask>
                            <g id="Clip-2"></g>
                            <path d="M13.90896,6.08902781 L9.27251,6.08902781 C9.09506,6.08902781 8.92346,6.0112 8.80061,5.8741404 L5.20156,1.84155762 L0.65026,1.84155762 C0.29081,1.84155762 0.00026,1.53369007 0.00026,1.15281589 C0.00026,0.771941722 0.29081,0.464074172 0.65026,0.464074172 L5.48041,0.464074172 C5.65981,0.464074172 5.82946,0.541901987 5.95296,0.679650331 L9.55331,4.71154437 L13.90896,4.71154437 C14.26841,4.71154437 14.55896,5.01941192 14.55896,5.40028609 C14.55896,5.78116026 14.26841,6.08902781 13.90896,6.08902781" id="Fill-1" fill="#031739" mask="url(#mask-2)"></path>
                        </g>
                        <g id="Group-6" transform="translate(0.000000, 4.357118)">
                            <mask id="mask-4" fill="white">
                                <use xlink:href="#path-3"></use>
                            </mask>
                            <g id="Clip-5"></g>
                            <path d="M5.48054,6.1986755 L0.64974,6.1986755 C0.29094,6.1986755 -0.00026,5.89080795 -0.00026,5.50993377 C-0.00026,5.1290596 0.29094,4.82119205 0.64974,4.82119205 L5.20104,4.82119205 L8.80009,0.789298013 C8.92359,0.651549669 9.09519,0.573721854 9.27264,0.573721854 L13.90909,0.573721854 C14.26854,0.573721854 14.55909,0.881589404 14.55909,1.26246358 C14.55909,1.64333775 14.26854,1.9512053 13.90909,1.9512053 L9.55344,1.9512053 L5.95309,5.98378808 C5.82959,6.12084768 5.65929,6.1986755 5.48054,6.1986755" id="Fill-4" fill="#031739" mask="url(#mask-4)"></path>
                        </g>
                        <path d="M11.603475,8.95364238 C11.437075,8.95364238 11.270675,8.8861457 11.143925,8.75184106 C10.889775,8.48323179 10.889775,8.04725828 11.143925,7.77796026 L13.197925,5.59878146 L11.143925,3.41960265 C10.889775,3.15030464 10.889775,2.71364238 11.143925,2.44572185 C11.398075,2.17642384 11.808875,2.17642384 12.063025,2.44572185 L14.576575,5.11184106 C14.830725,5.38113907 14.830725,5.81642384 14.576575,6.08572185 L12.063025,8.75184106 C11.936275,8.8861457 11.769875,8.95364238 11.603475,8.95364238" id="Fill-7" fill="#031739"></path>
                    </g>
                </g>
            </g>
        </g>
    </g>
</svg>