<?xml version="1.0" encoding="UTF-8"?>
<svg width="16px" height="16px" viewBox="0 0 16 16" version="1.1" xmlns="http://www.w3.org/2000/svg" xmlns:xlink="http://www.w3.org/1999/xlink">
    <!-- Generator: Sketch 64 (93537) - https://sketch.com -->
    <title>icon - script</title>
    <desc>Created with Sketch.</desc>
    <g id="Symbols" stroke="none" stroke-width="1" fill="none" fill-rule="evenodd">
        <g id="Integration-logic---on-click-task-condition" transform="translate(-39.000000, -153.000000)" fill="#031739">
            <g id="icon---script">
                <g>
                    <g transform="translate(39.000000, 153.642384)">
                        <path d="M11.544246,11.1325256 C11.382966,11.1325256 11.221686,11.0677732 11.098836,10.9376011 C10.852506,10.6765891 10.852506,10.2540302 11.098836,9.99368583 L13.547646,7.39691762 L11.098836,4.79948185 C10.852506,4.53846993 10.852506,4.11591099 11.098836,3.85556662 C11.345166,3.59522225 11.743326,3.5945547 11.989656,3.85623417 L14.883876,6.92562755 C15.129576,7.18597192 15.129576,7.60853086 14.883876,7.86954278 L11.989656,10.9376011 C11.866806,11.0677732 11.705526,11.1325256 11.544246,11.1325256" id="Fill-1"></path>
                        <path d="M3.524094,11.1325256 C3.362814,11.1325256 3.201534,11.0677732 3.078684,10.9376011 L0.184464,7.86954278 C-0.061236,7.60853086 -0.061236,7.18597192 0.184464,6.92562755 L3.078684,3.85623417 C3.325014,3.5945547 3.723174,3.59522225 3.969504,3.85556662 C4.215834,4.11591099 4.215834,4.53846993 3.969504,4.79948185 L1.520694,7.39691762 L3.969504,9.99368583 C4.215834,10.2540302 4.215834,10.6765891 3.969504,10.9376011 C3.846654,11.0677732 3.685374,11.1325256 3.524094,11.1325256" id="Fill-3"></path>
                        <path d="M5.174127,14.7955709 C5.100417,14.7955709 5.026707,14.7815523 4.953627,14.7541828 C4.627917,14.6253457 4.461597,14.2408371 4.583817,13.8943788 L9.305037,0.435242384 C9.425367,0.0894516556 9.786987,-0.0861139073 10.114587,0.0420556291 C10.440297,0.170892715 10.606617,0.554733775 10.486287,0.900524503 L5.764437,14.3603285 C5.669937,14.629351 5.429907,14.7955709 5.174127,14.7955709" id="Fill-5"></path>
                    </g>
                </g>
            </g>
        </g>
    </g>
</svg>