<?xml version="1.0" encoding="UTF-8"?>
<svg width="18px" height="19px" viewBox="0 0 18 19" version="1.1" xmlns="http://www.w3.org/2000/svg" xmlns:xlink="http://www.w3.org/1999/xlink">
    <!-- Generator: Sketch 64 (93537) - https://sketch.com -->
    <title>Icon - Workflows active</title>
    <desc>Created with Sketch.</desc>
    <defs>
        <polygon id="path-1" points="0 0.383108586 7.31235966 0.383108586 7.31235966 5.6118875 0 5.6118875"></polygon>
        <polygon id="path-3" points="0.288609964 0.704198215 6.78130652 0.704198215 6.78130652 10.2489958 0.288609964 10.2489958"></polygon>
    </defs>
    <g id="Page-1" stroke="none" stroke-width="1" fill="none" fill-rule="evenodd">
        <g id="Artboard" transform="translate(-134.000000, -202.000000)">
            <g id="Icon---Workflows-active" transform="translate(134.000000, 202.000000)">
                <path d="M16.2332283,5.7933375 L16.2332283,5.7933375 L12.010313,5.78937917 C11.5833913,5.7885875 11.2388717,5.44104583 11.2388717,5.01275417 C11.2404413,4.58525417 11.5849609,4.2377125 12.010313,4.2377125 L12.0118826,4.2377125 L15.4633565,4.24167083 L15.4696348,0.774170833 C15.4712043,0.345879167 15.8172935,-7.91666667e-05 16.2426457,-7.91666667e-05 L16.2442152,-7.91666667e-05 C16.6703522,0.0007125 17.0156565,0.349045833 17.0140923,0.7773375 L17.0046696,5.0190875 C17.0046696,5.44737917 16.6593652,5.7933375 16.2332283,5.7933375" id="Fill-1" fill="#243E8A"></path>
                <path d="M15.1970798,4.56870833 C14.9969602,4.56870833 14.7944863,4.49033333 14.6445928,4.33358333 C13.5694407,3.22129167 12.1270102,2.59666667 10.582558,2.57370833 L10.4985863,2.57370833 C8.98631022,2.57370833 7.56036022,3.15479167 6.47186674,4.21720833 C6.16580152,4.514875 5.67766674,4.50775 5.38023413,4.19979167 C5.0835863,3.89341667 5.09064935,3.40179167 5.39749935,3.10333333 C6.80069065,1.73454167 8.6574863,0.987208333 10.6053167,1.023625 C12.560995,1.05133333 14.3895385,1.84379167 15.7519211,3.25375 C16.0493537,3.560125 16.0415059,4.05175 15.7362254,4.35020833 C15.5847624,4.495875 15.3917059,4.56870833 15.1970798,4.56870833" id="Fill-3" fill="#243E8A"></path>
                <g id="Group-7" transform="translate(0.000000, 4.022300)">
                    <mask id="mask-2" fill="white">
                        <use xlink:href="#path-1"></use>
                    </mask>
                    <g id="Clip-6"></g>
                    <path d="M6.54147696,5.6118875 C6.27465087,5.6118875 6.01331826,5.47255417 5.87127261,5.22317917 L4.14867478,2.21722083 L1.15708348,3.9446375 C0.78745087,4.15680417 0.315011739,4.02855417 0.103120435,3.65805417 C-0.110340435,3.2867625 0.018363913,2.81255417 0.387211739,2.59880417 L4.04743783,0.485845833 C4.41707043,0.273679167 4.88950957,0.400345833 5.10140087,0.7716375 L7.20932696,4.44892917 C7.42200304,4.82022083 7.29486826,5.29442917 6.92523565,5.50817917 C6.80359435,5.5786375 6.67096609,5.6118875 6.54147696,5.6118875" id="Fill-5" fill="#243E8A" mask="url(#mask-2)"></path>
                </g>
                <path d="M8.41373283,15.5971792 C8.34231761,15.5971792 8.27168717,15.5884708 8.20184152,15.5678875 C6.31993283,15.0311375 4.75821543,13.7913875 3.80391978,12.0758458 C2.84962413,10.3595125 2.61889804,8.37322083 3.15411978,6.48272083 C3.26948283,6.07105417 3.69326543,5.82959583 4.10684587,5.94834583 C4.51650239,6.06630417 4.7550763,6.49459583 4.6381437,6.9062625 C4.21671543,8.3977625 4.39956978,9.9652625 5.15139152,11.3198042 C5.90556761,12.6735542 7.13689152,13.6528458 8.62326978,14.0755958 C9.0329263,14.1927625 9.27150022,14.6218458 9.15535239,15.0327208 C9.05882413,15.3747208 8.75040457,15.5971792 8.41373283,15.5971792" id="Fill-8" fill="#243E8A"></path>
                <path d="M14.1256161,18.2721417 C13.9945574,18.2721417 13.8603596,18.2388917 13.7379335,18.1676417 L10.0855552,16.03885 C9.71749217,15.8235167 9.59271174,15.3501 9.80460304,14.9796 L11.9211617,11.3070583 C12.1354074,10.9357667 12.6086313,10.8083083 12.9766943,11.0244333 C13.346327,11.238975 13.4711074,11.713975 13.2576465,12.084475 L11.5279857,15.086475 L14.5125139,16.8257667 C14.8821465,17.0403083 15.0077117,17.5161 14.7934661,17.8866 C14.6498509,18.1336 14.3908726,18.2721417 14.1256161,18.2721417" id="Fill-10" fill="#243E8A"></path>
                <g id="Group-14" transform="translate(10.986957, 5.605633)">
                    <mask id="mask-4" fill="white">
                        <use xlink:href="#path-3"></use>
                    </mask>
                    <g id="Clip-13"></g>
                    <path d="M1.05945652,10.2489958 C0.714936957,10.2489958 0.399454348,10.0154542 0.312343478,9.6631625 C0.207967391,9.2475375 0.457528261,8.82637083 0.871108696,8.72107917 C2.36847391,8.3426625 3.62648043,7.3997875 4.41832609,6.0674125 C5.20860217,4.7350375 5.43618913,3.17307917 5.05949348,1.66812083 C4.95511739,1.25407917 5.20546304,0.831329167 5.61904348,0.727620833 C6.03183913,0.6239125 6.45169783,0.874079167 6.55607391,1.29049583 C7.03400652,3.19524583 6.7459913,5.1744125 5.74382391,6.8630375 C4.74087174,8.55007917 3.14462391,9.74470417 1.24780435,10.2260375 C1.18502174,10.2418708 1.12145435,10.2489958 1.05945652,10.2489958" id="Fill-12" fill="#243E8A" mask="url(#mask-4)"></path>
                </g>
            </g>
        </g>
    </g>
</svg>