<svg id="Layer_1" data-name="Layer 1" xmlns="http://www.w3.org/2000/svg" xmlns:xlink="http://www.w3.org/1999/xlink" viewBox="0 0 22.9 20.3"><defs><style>.cls-1,.cls-2{fill:none;}.cls-1{clip-rule:evenodd;}.cls-3{clip-path:url(#clip-path);}.cls-4{fill:#1a2c4b;}.cls-5{clip-path:url(#clip-path-2);}.cls-6{clip-path:url(#clip-path-3);}.cls-7{isolation:isolate;}.cls-8{clip-path:url(#clip-path-4);}.cls-9{clip-path:url(#clip-path-5);}.cls-10{clip-path:url(#clip-path-6);}.cls-11{fill:#031739;}.cls-12{clip-path:url(#clip-path-7);}.cls-13{clip-path:url(#clip-path-9);}.cls-14{clip-path:url(#clip-path-11);}.cls-15{clip-path:url(#clip-path-12);}.cls-16{clip-path:url(#clip-path-14);}.cls-17{clip-path:url(#clip-path-15);}</style><clipPath id="clip-path"><path class="cls-1" d="M21,13.28H19.18a7.71,7.71,0,0,0-5.88-7.5L13.73,4A9.53,9.53,0,0,1,21,13.28"/></clipPath><clipPath id="clip-path-2"><path class="cls-1" d="M3.73,13.28H1.9a9.57,9.57,0,0,1,7-9.19l.49,1.75a7.75,7.75,0,0,0-5.64,7.44"/></clipPath><clipPath id="clip-path-3"><rect class="cls-2" y="1.98" width="22.9" height="15.73"/></clipPath><clipPath id="clip-path-4"><rect class="cls-2" x="-0.27" y="0.62" width="24.42" height="17.63"/></clipPath><clipPath id="clip-path-5"><path class="cls-1" d="M0,17.71H5.78V11.93H0Zm1.82-1.82H4V13.76H1.82Z"/></clipPath><clipPath id="clip-path-6"><rect class="cls-2" x="-0.27" y="1.98" width="24.42" height="16.28"/></clipPath><clipPath id="clip-path-7"><path class="cls-1" d="M17.13,17.71H22.9V11.93H17.13ZM19,15.89h2.13V13.76H19Z"/></clipPath><clipPath id="clip-path-9"><path class="cls-1" d="M8.56,7.76h5.78V2H8.56Zm1.83-1.83h2.13V3.8H10.39Z"/></clipPath><clipPath id="clip-path-11"><rect class="cls-2" x="2.12" y="3.84" width="7.06" height="0.91"/></clipPath><clipPath id="clip-path-12"><path class="cls-1" d="M1.91,3.3a1,1,0,1,0,1,1,1,1,0,0,0-1-1"/></clipPath><clipPath id="clip-path-14"><rect class="cls-2" x="13.97" y="3.84" width="7.06" height="0.91"/></clipPath><clipPath id="clip-path-15"><path class="cls-1" d="M21,3.3a1,1,0,1,0,1,1,1,1,0,0,0-1-1"/></clipPath></defs><title>icon_mapping</title><g class="cls-3"><rect class="cls-4" x="6.52" y="-2.77" width="21.26" height="22.84"/></g><g class="cls-5"><rect class="cls-4" x="-4.88" y="-2.69" width="21.03" height="22.76"/></g><g class="cls-6"><g class="cls-7"><g class="cls-8"><g class="cls-9"><g class="cls-10"><rect class="cls-11" x="-6.78" y="5.15" width="19.34" height="19.34"/></g></g><g class="cls-12"><g class="cls-10"><rect class="cls-11" x="10.34" y="5.15" width="19.34" height="19.34"/></g></g><g class="cls-13"><g class="cls-10"><rect class="cls-11" x="1.78" y="-4.8" width="19.34" height="19.34"/></g></g><g class="cls-14"><rect class="cls-11" x="-4.66" y="-2.94" width="20.63" height="14.48"/></g><g class="cls-15"><g class="cls-10"><rect class="cls-11" x="-5.87" y="-3.49" width="15.56" height="15.56"/></g></g><g class="cls-16"><rect class="cls-11" x="7.19" y="-2.94" width="20.63" height="14.48"/></g><g class="cls-17"><g class="cls-10"><rect class="cls-11" x="13.21" y="-3.49" width="15.56" height="15.56"/></g></g></g></g></g></svg>