<?xml version="1.0" encoding="UTF-8"?>
<svg width="20px" height="20px" viewBox="0 0 20 20" version="1.1" xmlns="http://www.w3.org/2000/svg" xmlns:xlink="http://www.w3.org/1999/xlink">
    <!-- Generator: Sketch 64 (93537) - https://sketch.com -->
    <title>icon - sidebar untoggled</title>
    <desc>Created with Sketch.</desc>
    <g id="Page-1" stroke="none" stroke-width="1" fill="none" fill-rule="evenodd">
        <g id="Artboard" transform="translate(-23.000000, -44.000000)" fill="#B7CDCD">
            <g id="icon---sidebar-untoggled" transform="translate(23.000000, 44.000000)">
                <path d="M18.4838064,1.70625002 L0.853125008,1.70625002 C0.381346879,1.70625002 0,1.32490314 0,0.853125008 C0,0.381346879 0.381346879,0 0.853125008,0 L18.4838064,0 C18.9555846,0 19.3369314,0.381346879 19.3369314,0.853125008 C19.3369314,1.32490314 18.9555846,1.70625002 18.4838064,1.70625002" id="Fill-1"></path>
                <path d="M14.5730814,6.18515631 L0.853125008,6.18515631 C0.381346879,6.18515631 0,5.80380943 0,5.3320313 C0,4.86025317 0.381346879,4.47890629 0.853125008,4.47890629 L14.5730814,4.47890629 C15.0448595,4.47890629 15.4262064,4.86025317 15.4262064,5.3320313 C15.4262064,5.80380943 15.0448595,6.18515631 14.5730814,6.18515631" id="Fill-3"></path>
                <path d="M18.4838064,10.6640626 L0.853125008,10.6640626 C0.381346879,10.6640626 0,10.2827157 0,9.81093759 C0,9.33915946 0.381346879,8.95781259 0.853125008,8.95781259 L18.4838064,8.95781259 C18.9555846,8.95781259 19.3369314,9.33915946 19.3369314,9.81093759 C19.3369314,10.2827157 18.9555846,10.6640626 18.4838064,10.6640626" id="Fill-5"></path>
                <path d="M15.8527689,15.1429689 L0.853125008,15.1429689 C0.381346879,15.1429689 0,14.761622 0,14.2898439 C0,13.8180658 0.381346879,13.4367189 0.853125008,13.4367189 L15.8527689,13.4367189 C16.324547,13.4367189 16.7058939,13.8180658 16.7058939,14.2898439 C16.7058939,14.761622 16.324547,15.1429689 15.8527689,15.1429689" id="Fill-7"></path>
                <path d="M8.17464383,19.6218752 L0.853125008,19.6218752 C0.381346879,19.6218752 0,19.2405283 0,18.7687502 C0,18.2969721 0.381346879,17.9156252 0.853125008,17.9156252 L8.17464383,17.9156252 C8.64642196,17.9156252 9.02776884,18.2969721 9.02776884,18.7687502 C9.02776884,19.2405283 8.64642196,19.6218752 8.17464383,19.6218752" id="Fill-9"></path>
            </g>
        </g>
    </g>
</svg>