<?xml version="1.0" encoding="UTF-8"?>
<svg width="16px" height="17px" viewBox="0 0 16 17" version="1.1" xmlns="http://www.w3.org/2000/svg" xmlns:xlink="http://www.w3.org/1999/xlink">
    <!-- Generator: Sketch 64 (93537) - https://sketch.com -->
    <title>icon -m essage routing</title>
    <desc>Created with Sketch.</desc>
    <defs>
        <polygon id="path-1" points="0 0.593140132 15.0520608 0.593140132 15.0520608 6.40847682 0 6.40847682"></polygon>
    </defs>
    <g id="Symbols" stroke="none" stroke-width="1" fill="none" fill-rule="evenodd">
        <g id="Integration-logic---on-click-task-condition" transform="translate(-12.000000, -181.000000)">
            <g id="icon--m-essage-routing">
                <g>
                    <g transform="translate(12.200000, 181.615894)">
                        <g id="Group-3" transform="translate(0.000000, 2.141713)">
                            <mask id="mask-2" fill="white">
                                <use xlink:href="#path-1"></use>
                            </mask>
                            <g id="Clip-2"></g>
                            <path d="M5.4653088,6.40847682 L0.6719328,6.40847682 C0.3003168,6.40847682 -6.72e-05,6.09018914 -6.72e-05,5.69642384 C-6.72e-05,5.30265854 0.3003168,4.98437086 0.6719328,4.98437086 L5.1750048,4.98437086 L8.8972128,0.816012715 C9.0248928,0.673602119 9.2009568,0.593140132 9.3857568,0.593140132 L14.3800608,0.593140132 C14.7510048,0.593140132 15.0520608,0.911427815 15.0520608,1.30519311 C15.0520608,1.69895841 14.7510048,2.01724609 14.3800608,2.01724609 L9.6747168,2.01724609 L5.9538528,6.18631629 C5.8261728,6.32801483 5.6487648,6.40847682 5.4653088,6.40847682" id="Fill-1" fill="#D8D8D8" mask="url(#mask-2)"></path>
                        </g>
                        <path d="M11.9962752,6.93696254 C11.8242432,6.93696254 11.6522112,6.86718135 11.5211712,6.72833102 C11.2584192,6.45063036 11.2584192,5.99990082 11.5211712,5.72148811 L13.6446912,3.46855248 L11.5211712,1.21561685 C11.2584192,0.937204132 11.2584192,0.485762543 11.5211712,0.208773934 C11.7839232,-0.0696387815 12.2086272,-0.0696387815 12.4713792,0.208773934 L15.0700032,2.96513102 C15.3327552,3.24354374 15.3327552,3.69356122 15.0700032,3.97197393 L12.4713792,6.72833102 C12.3403392,6.86718135 12.1683072,6.93696254 11.9962752,6.93696254" id="Fill-4" fill="#FFFFFF"></path>
                        <path d="M14.379792,12.9358665 L9.385488,12.9358665 C9.200688,12.9358665 9.024624,12.8554045 8.897616,12.713706 L5.175408,8.54463576 L0.672336,8.54463576 C0.30072,8.54463576 0.000336,8.22634808 0.000336,7.83258278 C0.000336,7.43881748 0.30072,7.1205298 0.672336,7.1205298 L5.46504,7.1205298 C5.649168,7.1205298 5.825904,7.20099179 5.953584,7.34340238 L9.674448,11.5117605 L14.379792,11.5117605 C14.751408,11.5117605 15.051792,11.8300482 15.051792,12.2238135 C15.051792,12.6175788 14.751408,12.9358665 14.379792,12.9358665" id="Fill-6" fill="#FFFFFF"></path>
                        <path d="M11.9962752,15.6707196 C11.8242432,15.6707196 11.6522112,15.6009384 11.5211712,15.4620881 C11.2584192,15.1843874 11.2584192,14.7336579 11.5211712,14.4552451 L13.6446912,12.2023095 L11.5211712,9.94937388 C11.2584192,9.67096117 11.2584192,9.21951958 11.5211712,8.94253097 C11.7839232,8.66411825 12.2086272,8.66411825 12.4713792,8.94253097 L15.0700032,11.6988881 C15.3327552,11.9773008 15.3327552,12.4273183 15.0700032,12.705731 L12.4713792,15.4620881 C12.3403392,15.6009384 12.1683072,15.6707196 11.9962752,15.6707196" id="Fill-8" fill="#FFFFFF"></path>
                    </g>
                </g>
            </g>
        </g>
    </g>
</svg>