<?xml version="1.0" encoding="utf-8"?>
<!-- Generator: Adobe Illustrator 22.0.0, SVG Export Plug-In . SVG Version: 6.00 Build 0)  -->
<svg version="1.1" id="Layer_1" xmlns="http://www.w3.org/2000/svg" xmlns:xlink="http://www.w3.org/1999/xlink" x="0px" y="0px"
	 viewBox="0 0 22.9 20.3" style="enable-background:new 0 0 22.9 20.3;" xml:space="preserve">
<style type="text/css">
	.st0{fill:#00227D;}
</style>
<g>
	<g>
		<path class="st0" d="M16.2,6.3h1.2c0.1,0,0.2,0,0.3,0.1c0.1,0.1,0.1,0.1,0.1,0.2c0,0.1,0,0.1-0.1,0.2c-0.1,0.1-0.1,0.1-0.2,0.1
			h-1.7c-0.1,0-0.2,0-0.3-0.1c-0.1-0.1-0.1-0.1-0.1-0.2c0-0.1,0-0.1,0.1-0.2c0-0.1,0.1-0.2,0.1-0.2c0.2-0.2,0.4-0.4,0.6-0.6
			c0.2-0.2,0.3-0.3,0.4-0.3c0.1-0.1,0.2-0.2,0.3-0.3C16.9,4.9,17,4.8,17,4.7c0-0.1,0.1-0.2,0.1-0.3c0-0.1,0-0.2-0.1-0.3
			c0-0.1-0.1-0.1-0.2-0.2c-0.1,0-0.2-0.1-0.3-0.1c-0.2,0-0.4,0.1-0.5,0.3c0,0,0,0.1-0.1,0.2c0,0.1-0.1,0.2-0.1,0.2
			c0,0.1-0.1,0.1-0.2,0.1c-0.1,0-0.1,0-0.2-0.1c-0.1-0.1-0.1-0.1-0.1-0.2c0-0.1,0-0.2,0.1-0.3c0-0.1,0.1-0.2,0.2-0.3
			c0.1-0.1,0.2-0.2,0.4-0.2c0.1-0.1,0.3-0.1,0.5-0.1c0.2,0,0.4,0,0.6,0.1c0.1,0.1,0.2,0.1,0.3,0.2c0.1,0.1,0.1,0.2,0.2,0.3
			c0,0.1,0.1,0.2,0.1,0.4c0,0.2,0,0.4-0.1,0.5c-0.1,0.2-0.2,0.3-0.3,0.4c-0.1,0.1-0.3,0.2-0.5,0.4c-0.2,0.2-0.4,0.3-0.5,0.4
			C16.2,6.2,16.2,6.2,16.2,6.3z"/>
	</g>
	<g>
		<path class="st0" d="M6.4,6.5V4.4C6,4.7,5.7,4.8,5.6,4.8c-0.1,0-0.1,0-0.2-0.1C5.4,4.7,5.3,4.7,5.3,4.6c0-0.1,0-0.1,0.1-0.2
			c0.1,0,0.1-0.1,0.3-0.1C5.9,4.2,6,4.1,6.1,4c0.1-0.1,0.2-0.2,0.3-0.3c0.1-0.1,0.1-0.2,0.2-0.2c0,0,0.1,0,0.2,0
			c0.1,0,0.2,0,0.2,0.1C7,3.5,7,3.6,7,3.7v2.7c0,0.3-0.1,0.5-0.3,0.5c-0.1,0-0.2,0-0.2-0.1C6.4,6.7,6.4,6.7,6.4,6.5z"/>
	</g>
	<g>
		<path class="st0" d="M16.8,16.6v-0.4h-1.2c-0.1,0-0.3,0-0.3-0.1c-0.1-0.1-0.1-0.2-0.1-0.3c0,0,0-0.1,0-0.1c0,0,0-0.1,0-0.1
			c0,0,0-0.1,0.1-0.1c0,0,0.1-0.1,0.1-0.1l1.2-1.7c0.1-0.1,0.1-0.2,0.2-0.2c0.1-0.1,0.1-0.1,0.2-0.1c0.2,0,0.4,0.1,0.4,0.4v1.8h0.1
			c0.1,0,0.2,0,0.3,0c0.1,0,0.1,0.1,0.1,0.2c0,0.1,0,0.2-0.1,0.2c-0.1,0-0.1,0.1-0.3,0.1h-0.1v0.4c0,0.1,0,0.2-0.1,0.3
			c-0.1,0.1-0.1,0.1-0.2,0.1c-0.1,0-0.2,0-0.2-0.1C16.8,16.8,16.8,16.7,16.8,16.6z M15.8,15.6h1v-1.4L15.8,15.6z"/>
	</g>
	<g>
		<path class="st0" d="M6.4,14.8c0.1,0,0.3,0,0.4-0.1c0.1-0.1,0.2-0.2,0.2-0.4c0-0.1,0-0.2-0.1-0.3c-0.1-0.1-0.2-0.1-0.3-0.1
			c-0.1,0-0.2,0-0.2,0c-0.1,0-0.1,0.1-0.1,0.1c0,0-0.1,0.1-0.1,0.2c0,0.1-0.1,0.1-0.1,0.2c0,0,0,0.1-0.1,0.1c0,0-0.1,0-0.1,0
			c-0.1,0-0.1,0-0.2-0.1c-0.1-0.1-0.1-0.1-0.1-0.2c0-0.1,0-0.2,0.1-0.3c0-0.1,0.1-0.2,0.2-0.3c0.1-0.1,0.2-0.1,0.4-0.2
			c0.1-0.1,0.3-0.1,0.5-0.1c0.2,0,0.3,0,0.4,0.1c0.1,0,0.2,0.1,0.3,0.2c0.1,0.1,0.2,0.2,0.2,0.3c0,0.1,0.1,0.2,0.1,0.3
			c0,0.2,0,0.3-0.1,0.4c-0.1,0.1-0.2,0.2-0.3,0.3c0.1,0.1,0.2,0.1,0.3,0.2c0.1,0.1,0.1,0.2,0.2,0.3c0,0.1,0.1,0.2,0.1,0.3
			c0,0.1,0,0.3-0.1,0.4c-0.1,0.1-0.1,0.3-0.3,0.4c-0.1,0.1-0.2,0.2-0.4,0.2C6.8,16.9,6.6,17,6.4,17c-0.2,0-0.4,0-0.5-0.1
			c-0.1-0.1-0.3-0.2-0.4-0.3c-0.1-0.1-0.2-0.2-0.2-0.3c0-0.1-0.1-0.2-0.1-0.3c0-0.1,0-0.2,0.1-0.2c0.1-0.1,0.1-0.1,0.2-0.1
			c0,0,0.1,0,0.1,0c0,0,0.1,0.1,0.1,0.1c0.1,0.2,0.2,0.4,0.3,0.5c0.1,0.1,0.2,0.2,0.4,0.2c0.1,0,0.2,0,0.3-0.1
			c0.1,0,0.2-0.1,0.2-0.2C7,16.1,7,16,7,15.9c0-0.2-0.1-0.3-0.2-0.4c-0.1-0.1-0.2-0.2-0.4-0.2c0,0-0.1,0-0.1,0c-0.1,0-0.1,0-0.1,0
			c-0.1,0-0.2,0-0.2-0.1c0,0-0.1-0.1-0.1-0.2c0-0.1,0-0.1,0.1-0.2S6.2,14.8,6.4,14.8L6.4,14.8z"/>
	</g>
	<g>
		<path class="st0" d="M10.1,9.6H2.8C2.3,9.6,2,9.2,2,8.8V1.5C2,1,2.3,0.7,2.8,0.7h7.3c0.4,0,0.8,0.4,0.8,0.8v7.3
			C10.9,9.2,10.5,9.6,10.1,9.6L10.1,9.6z M3.6,8h5.7V2.3H3.6V8L3.6,8z"/>
	</g>
	<g>
		<path class="st0" d="M20.1,9.6h-7.3c-0.4,0-0.8-0.4-0.8-0.8V1.5c0-0.4,0.4-0.8,0.8-0.8h7.3c0.4,0,0.8,0.4,0.8,0.8v7.3
			C20.9,9.2,20.6,9.6,20.1,9.6L20.1,9.6z M13.6,8h5.7V2.3h-5.7V8L13.6,8z"/>
	</g>
	<g>
		<path class="st0" d="M10.1,19.6H2.8c-0.4,0-0.8-0.4-0.8-0.8v-7.3c0-0.4,0.4-0.8,0.8-0.8h7.3c0.4,0,0.8,0.4,0.8,0.8v7.3
			C10.9,19.3,10.5,19.6,10.1,19.6L10.1,19.6z M3.6,18h5.7v-5.7H3.6V18L3.6,18z"/>
	</g>
	<g>
		<path class="st0" d="M20.1,19.6h-7.3c-0.4,0-0.8-0.4-0.8-0.8v-7.3c0-0.4,0.4-0.8,0.8-0.8h7.3c0.4,0,0.8,0.4,0.8,0.8v7.3
			C20.9,19.3,20.6,19.6,20.1,19.6L20.1,19.6z M13.6,18h5.7v-5.7h-5.7V18L13.6,18z"/>
	</g>
</g>
</svg>
