<?xml version="1.0" encoding="UTF-8"?>
<svg width="15px" height="21px" viewBox="0 0 15 21" version="1.1" xmlns="http://www.w3.org/2000/svg" xmlns:xlink="http://www.w3.org/1999/xlink">
    <!-- Generator: Sketch 64 (93537) - https://sketch.com -->
    <title>icon - roles inactive</title>
    <desc>Created with Sketch.</desc>
    <defs>
        <polygon id="path-1" points="0.6516 0.614444444 7.7451 0.614444444 7.7451 8.85966667 0.6516 8.85966667"></polygon>
        <polygon id="path-3" points="0.539170525 0.371758289 8.096925 0.371758289 8.096925 9.33333333 0.539170525 9.33333333"></polygon>
    </defs>
    <g id="Page-1" stroke="none" stroke-width="1" fill="none" fill-rule="evenodd">
        <g id="Artboard" transform="translate(-79.000000, -166.000000)">
            <g id="icon---roles-inactive" transform="translate(79.000000, 166.000000)">
                <g id="Group-3" transform="translate(2.250000, 0.163644)">
                    <mask id="mask-2" fill="white">
                        <use xlink:href="#path-1"></use>
                    </mask>
                    <g id="Clip-2"></g>
                    <path d="M4.19835,7.32666667 C3.0576,7.32666667 2.12985,6.16544444 2.12985,4.73744444 C2.12985,3.30944444 3.0576,2.14666667 4.19835,2.14666667 C5.3391,2.14666667 6.26685,3.30944444 6.26685,4.73744444 C6.26685,6.16544444 5.3391,7.32666667 4.19835,7.32666667 M7.7451,4.73744444 C7.7451,2.46322222 6.1536,0.613666667 4.19835,0.613666667 C2.2431,0.613666667 0.6516,2.46322222 0.6516,4.73744444 C0.6516,7.01011111 2.2431,8.85966667 4.19835,8.85966667 C6.1536,8.85966667 7.7451,7.01011111 7.7451,4.73744444" id="Fill-1" fill="#B9CECE" mask="url(#mask-2)"></path>
                </g>
                <path d="M2.3028,16.9801333 C1.94655,16.9801333 1.6518,16.6939111 1.6278,16.3260222 L1.48005,14.0798 C1.4433,13.4840222 1.97505,12.5436889 2.6883,12.2691333 C4.0983,11.7464667 5.60055,11.5411333 7.08405,11.6391333 C7.36305,11.6570222 7.6038,11.4968 7.74705,11.2471333 C7.7523,11.2378 7.7568,11.2284667 7.76205,11.2206889 C8.0373,10.7625778 7.79205,10.1535778 7.2738,10.1146889 C5.5593,9.98557778 3.8223,10.2204667 2.18355,10.8294667 C0.9168,11.3155778 -0.07995,12.8501333 0.00555,14.1816889 L0.1998,17.1442444 C0.2508,17.9142444 0.86805,18.5131333 1.6128,18.5131333 L5.8383,18.5131333 C6.2493,18.5131333 6.5643,18.1343556 6.5073,17.7120222 C6.5013,17.6622444 6.49455,17.6124667 6.4878,17.5634667 C6.44055,17.2243556 6.1503,16.9801333 5.8203,16.9801333 L2.3028,16.9801333 Z" id="Fill-4" fill="#B7CDCD"></path>
                <g id="Group-8" transform="translate(6.750000, 11.052533)">
                    <mask id="mask-4" fill="white">
                        <use xlink:href="#path-3"></use>
                    </mask>
                    <g id="Clip-7"></g>
                    <path d="M4.318425,1.0703 C3.400425,1.0703 2.492175,1.22196667 1.620675,1.52141111 C1.397925,1.59452222 1.214175,1.84963333 1.21492271,2.08141111 L1.21492271,5.54096667 C1.216425,5.84041111 1.394175,6.36852222 1.628925,6.62363333 C2.852175,7.92485556 3.644175,8.63263333 4.316925,8.63263333 C4.991925,8.63263333 5.783175,7.92485556 7.009425,6.62052222 C7.241175,6.36852222 7.418925,5.84041111 7.421175,5.53785556 L7.421175,2.60485556 C7.421175,2.06352222 7.009425,1.50274444 6.505425,1.3643 C5.790675,1.1683 5.057925,1.0703 4.318425,1.0703 M4.316925,9.33341111 C3.398925,9.33341111 2.527425,8.58441111 1.142925,7.11052222 C0.767175,6.70141111 0.541425,5.99363333 0.539170525,5.54252222 L0.539170525,2.08218889 C0.537675,1.54474444 0.913425,1.01818889 1.412925,0.854855556 C3.284175,0.211633333 5.346675,0.2093 7.228425,0.856411111 C7.712925,1.01507778 8.096925,1.55407778 8.096925,2.08218889 L8.096925,5.53941111 C8.093925,5.99363333 7.868925,6.70296667 7.494675,7.10741111 C6.108675,8.58441111 5.237175,9.33341111 4.316925,9.33341111" id="Fill-6" fill="#B9CECE" mask="url(#mask-4)"></path>
                </g>
                <path d="M8.8104,13.3487667 L8.8104,16.5866556 C8.8119,16.6916556 8.9214,16.9957667 8.9829,17.0634333 C9.47415,17.5853222 10.62315,18.8087667 11.06715,18.8087667 C11.51265,18.8087667 12.6549,17.5923222 13.14315,17.0727667 C13.21515,16.9942111 13.32465,16.6869889 13.32615,16.5897667 L13.32615,13.8908778 C13.32615,13.5712111 13.1199,13.2795444 12.8199,13.2072111 C11.5044,12.8906556 10.11765,12.9365444 8.8104,13.3487667 M11.06715,19.1595444 C10.52565,19.1595444 9.62115,18.2441 8.7399,17.3076556 C8.6094,17.1637667 8.47515,16.7694333 8.47215,16.5889889 L8.47215,13.7462111 C8.47215,13.3596556 8.7144,13.0034333 9.0759,12.9085444 C10.3884,12.5632111 11.7609,12.5639889 13.0614,12.9077667 C13.42215,13.0034333 13.66365,13.3581 13.66365,13.7446556 L13.66365,16.5921 C13.6614,16.7733222 13.52265,17.1676556 13.3914,17.3115444 C12.51015,18.2495444 11.60865,19.1595444 11.06715,19.1595444" id="Fill-9" fill="#B7CDCD"></path>
                <path d="M10.733025,16.7735556 C10.640775,16.7735556 10.552275,16.7338889 10.488525,16.6638889 L9.934275,16.0603333 C9.805275,15.9203333 9.810525,15.6986667 9.945525,15.5648889 C10.081275,15.4311111 10.294275,15.4365556 10.424025,15.5773333 L10.715025,15.8938889 L11.696025,14.6517778 C11.814525,14.5032222 12.027525,14.4806667 12.171525,14.6035556 C12.316275,14.7264444 12.337275,14.9473333 12.218025,15.0974444 L10.994775,16.6452222 C10.934025,16.723 10.842525,16.7688889 10.746525,16.7727778 C10.742025,16.7735556 10.738275,16.7735556 10.733025,16.7735556" id="Fill-11" fill="#B7CDCD"></path>
            </g>
        </g>
    </g>
</svg>