<?xml version="1.0" encoding="UTF-8"?>
<svg width="20px" height="18px" viewBox="0 0 20 18" version="1.1" xmlns="http://www.w3.org/2000/svg" xmlns:xlink="http://www.w3.org/1999/xlink">
    <!-- Generator: Sketch 64 (93537) - https://sketch.com -->
    <title>Icon - Start event</title>
    <desc>Created with Sketch.</desc>
    <g id="Page-1" stroke="none" stroke-width="1" fill="none" fill-rule="evenodd">
        <g id="Config-/-Package-creation-int-logic-/-FILTER" transform="translate(-409.000000, -431.000000)" fill="#031739">
            <g id="Integration-logic---Content" transform="translate(182.000000, 302.000000)">
                <g id="top---transformation-engine" transform="translate(75.773438, 0.210938)">
                    <g id="Icon---Start-event" transform="translate(152.000000, 129.000000)">
                        <path d="M8.48547648,16.4669282 C8.27805888,16.4669282 8.11107648,16.2994803 8.11107648,16.0931606 L8.11107648,11.6079498 C8.11107648,11.4016301 8.27805888,11.2341823 8.48547648,11.2341823 L12.9782765,11.2341823 C13.1841965,11.2341823 13.3526765,11.4016301 13.3526765,11.6079498 C13.3526765,11.8142695 13.1841965,11.9817174 12.9782765,11.9817174 L8.85987648,11.9817174 L8.85987648,16.0931606 C8.85987648,16.2994803 8.69139648,16.4669282 8.48547648,16.4669282" id="Fill-1"></path>
                        <path d="M8.48547648,16.8406958 L0.74887488,16.8406958 C0.33478848,16.8406958 7.488e-05,16.5065476 7.488e-05,16.0931606 L7.488e-05,0.747759396 C7.488e-05,0.334372466 0.33478848,0.000224260541 0.74887488,0.000224260541 L12.9782765,0.000224260541 C13.3923629,0.000224260541 13.7270765,0.334372466 13.7270765,0.747759396 L13.7270765,3.78947986 C13.7270765,4.20286679 13.3923629,4.537015 12.9782765,4.537015 C12.5641901,4.537015 12.2294765,4.20286679 12.2294765,3.78947986 L12.2294765,1.49529453 L1.49767488,1.49529453 L1.49767488,15.3456255 L8.17547328,15.3456255 L12.2294765,11.2984703 L12.2294765,8.08780689 C12.2294765,7.67441996 12.5641901,7.34027175 12.9782765,7.34027175 C13.3923629,7.34027175 13.7270765,7.67441996 13.7270765,8.08780689 L13.7270765,11.6079498 C13.7270765,11.8067942 13.6484525,11.9966681 13.5076781,12.1364572 L9.01487808,16.621668 C8.87485248,16.7622046 8.68465728,16.8406958 8.48547648,16.8406958" id="Fill-3"></path>
                        <path d="M15.0930374,9.77783432 C14.9013446,9.77783432 14.7096518,9.70457588 14.5636358,9.55880653 C14.270855,9.26652029 14.270855,8.79407808 14.5636358,8.50179185 L17.1709574,5.89737943 L14.5636358,3.29296702 C14.270855,3.00142832 14.270855,2.52823858 14.5636358,2.23595234 C14.8564166,1.94441364 15.3296582,1.94441364 15.622439,2.23595234 L18.7591622,5.36887209 C19.051943,5.6604108 19.051943,6.13360054 18.7591622,6.42588678 L15.622439,9.55880653 C15.476423,9.70457588 15.2847302,9.77783432 15.0930374,9.77783432" id="Fill-5"></path>
                        <path d="M8.48547648,6.64536309 C8.07139008,6.64536309 7.73667648,6.31121489 7.73667648,5.89782796 C7.73667648,5.48518856 8.07139008,5.15029282 8.48547648,5.15029282 L17.3774765,5.14954529 C17.7915629,5.14954529 18.1262765,5.48369349 18.1262765,5.89708042 C18.1262765,6.30971982 17.7915629,6.64461556 17.3774765,6.64461556 L8.48547648,6.64536309 Z" id="Fill-7"></path>
                    </g>
                </g>
            </g>
        </g>
    </g>
</svg>