<?xml version="1.0" encoding="UTF-8"?>
<svg width="15px" height="15px" viewBox="0 0 15 15" version="1.1" xmlns="http://www.w3.org/2000/svg" xmlns:xlink="http://www.w3.org/1999/xlink">
    <!-- Generator: Sketch 64 (93537) - https://sketch.com -->
    <title>Icon -transformation</title>
    <desc>Created with Sketch.</desc>
    <defs>
        <polygon id="path-1" points="0 0.000124609272 14.070252 0.000124609272 14.070252 14.3581656 0 14.3581656"></polygon>
    </defs>
    <g id="Symbols" stroke="none" stroke-width="1" fill="none" fill-rule="evenodd">
        <g id="Integration-logic---on-click-task-condition" transform="translate(-13.000000, -107.000000)">
            <g id="Icon--transformation">
                <g>
                    <g transform="translate(13.200000, 107.019868)">
                        <mask id="mask-2" fill="white">
                            <use xlink:href="#path-1"></use>
                        </mask>
                        <g id="Clip-2"></g>
                        <path d="M4.9530768,7.15637277 C5.1024288,7.15637277 5.2494288,7.21743131 5.3593848,7.3302027 C7.0181328,9.01616615 8.6762928,10.7008835 10.3344528,12.3843548 L10.9547928,13.0148777 C10.9918368,13.0478991 11.1270768,13.1120729 11.2305648,13.1120729 L11.2476168,13.1114499 C12.0884568,12.9394891 12.7946448,12.1345132 12.8946048,11.2379495 C12.9016608,11.1694144 12.8358048,10.9912231 12.7811208,10.9320337 L11.3199408,9.53765595 C9.8869848,8.17069224 8.4546168,6.80372853 7.0193088,5.43738787 C6.8652528,5.29034893 6.7952808,5.06854442 6.8352648,4.85297038 C7.0293048,3.81248297 6.7100208,2.7632729 5.9820768,2.04490045 C5.3952528,1.46795952 4.6002768,1.17886601 3.8070648,1.24553197 L4.9965888,2.41623608 C5.4023088,2.81747793 5.4240648,3.48974495 5.0483328,3.91715475 L3.7841328,5.36075317 C3.4266288,5.77320985 2.7563088,5.80000085 2.3670528,5.41558125 L1.17686131,4.24363105 C1.1710608,5.07789012 1.4915208,5.8934578 2.0912808,6.48285966 C2.8092288,7.18939423 3.8494008,7.45356588 4.7966688,7.17880244 C4.8484128,7.16384932 4.9001568,7.15637277 4.9530768,7.15637277 M11.2305648,14.3581656 C10.8401328,14.3581656 10.4026608,14.1793513 10.1404128,13.9139336 L9.5206608,13.2840337 C7.9389408,11.6778202 6.3566328,10.0709836 4.7749128,8.46165489 C3.5289408,8.70838125 2.2212288,8.31150072 1.2904248,7.39624562 C0.1009008,6.22554151 -0.3112872,4.42369144 0.2431968,2.80564005 C0.3108168,2.60938045 0.4660488,2.46171846 0.6577368,2.4124978 C0.8476608,2.36327714 1.0516968,2.41997436 1.1963448,2.56202893 L3.0397248,4.37758601 L4.0687248,3.20314363 L2.2241688,1.38945568 C2.0795208,1.24740111 2.0119008,1.03743449 2.0442408,0.831206146 C2.0748168,0.624977801 2.2035888,0.449278728 2.3829288,0.363921377 C3.8347008,-0.324544848 5.6110488,-0.0186290861 6.7823448,1.13213754 C7.7278488,2.06421489 8.1847248,3.38943449 8.0412528,4.73521462 C9.3989448,6.02741277 10.7525208,7.31961091 12.1066848,8.61180906 L13.5684528,10.0068099 C13.8501048,10.2734737 14.1211728,10.8479224 14.0623728,11.3831193 C13.9030248,12.8198642 12.8140488,14.0603495 11.4739968,14.3338668 C11.3981448,14.349443 11.3152368,14.3581656 11.2305648,14.3581656" id="Fill-1" fill="#FFFFFF" mask="url(#mask-2)"></path>
                    </g>
                </g>
            </g>
        </g>
    </g>
</svg>