<?xml version="1.0" encoding="UTF-8"?>
<svg width="11px" height="11px" viewBox="0 0 11 11" version="1.1" xmlns="http://www.w3.org/2000/svg" xmlns:xlink="http://www.w3.org/1999/xlink">
    <!-- Generator: Sketch 64 (93537) - https://sketch.com -->
    <title>icon - bin</title>
    <desc>Created with Sketch.</desc>
    <g id="Page-1" stroke="none" stroke-width="1" fill="none" fill-rule="evenodd">
        <g id="Config-/-Package-creation-int-logic-/-Mapping" transform="translate(-639.000000, -1028.000000)" fill="#031739">
            <g id="Integration-logic-mapping---Content" transform="translate(180.000000, 291.000000)">
                <g id="Bottom-mapping---edit" transform="translate(20.500000, 322.000000)">
                    <g id="icon---bin" transform="translate(439.000000, 415.000000)">
                        <path d="M9.8658,2.13110352 L0.4536,2.13110352 C0.2027592,2.13110352 0,1.92789072 0,1.67750352 C0,1.42711632 0.2027592,1.22390352 0.4536,1.22390352 L9.8658,1.22390352 C10.1166408,1.22390352 10.3194,1.42711632 10.3194,1.67750352 C10.3194,1.92789072 10.1166408,2.13110352 9.8658,2.13110352" id="Fill-1"></path>
                        <path d="M6.32912616,1.86198264 C6.21663336,1.30859064 5.72493096,0.90715464 5.15974536,0.90715464 C4.59365256,0.90715464 4.10195016,1.30859064 3.99036456,1.86152904 L3.10085496,1.68144984 C3.29817096,0.70711704 4.16409336,-4.536e-05 5.15974536,-4.536e-05 C6.15358296,-4.536e-05 7.01905176,0.70711704 7.21772856,1.68099624 L6.32912616,1.86198264 Z" id="Fill-3"></path>
                        <path d="M2.10143808,10.874425 C1.62470448,10.874425 1.22871168,10.4879578 1.19968128,9.99444096 L0.73020528,2.13219216 C0.71478288,1.88180496 0.90529488,1.66725216 1.15522848,1.65228336 C1.41378048,1.63187136 1.62016848,1.82828016 1.63559088,2.07776016 L2.10506688,9.94000896 L8.21778048,9.96722496 L8.68408128,2.07776016 C8.69905008,1.82737296 8.91677808,1.63867536 9.16308288,1.65228336 C9.41392368,1.66725216 9.60443568,1.88180496 9.58946688,2.13219216 L9.11999088,9.99444096 C9.08778528,10.488865 8.69269968,10.874425 8.21868768,10.874425 L8.21687328,10.874425 L2.10143808,10.874425 Z" id="Fill-5"></path>
                        <path d="M3.438288,9.20930472 C3.200148,9.20930472 2.9996568,9.02242152 2.9865024,8.78110632 L2.6844048,3.37555512 C2.6703432,3.12562152 2.8617624,2.91152232 3.1112424,2.89746072 C3.3602688,2.88022392 3.5757288,3.07527192 3.5897904,3.32520552 L3.891888,8.73030312 C3.9059496,8.98069032 3.7145304,9.19478952 3.4641432,9.20885112 C3.4559784,9.20930472 3.44736,9.20930472 3.438288,9.20930472" id="Fill-7"></path>
                        <path d="M6.8792976,9.20930472 C6.8711328,9.20930472 6.8625144,9.20930472 6.8534424,9.20885112 C6.6039624,9.19478952 6.4125432,8.98069032 6.4266048,8.73030312 L6.7287024,3.32520552 C6.7418568,3.07481832 6.9618528,2.87886312 7.2063432,2.89746072 C7.4567304,2.91152232 7.6481496,3.12562152 7.634088,3.37555512 L7.3319904,8.78110632 C7.318836,9.02242152 7.1183448,9.20930472 6.8792976,9.20930472" id="Fill-9"></path>
                        <path d="M5.1597,9.20930472 C4.9088592,9.20930472 4.7061,9.00609192 4.7061,8.75570472 L4.7061,3.35015352 C4.7061,3.09976632 4.9088592,2.89655352 5.1597,2.89655352 C5.4105408,2.89655352 5.6133,3.09976632 5.6133,3.35015352 L5.6133,8.75570472 C5.6133,9.00609192 5.4105408,9.20930472 5.1597,9.20930472" id="Fill-11"></path>
                    </g>
                </g>
            </g>
        </g>
    </g>
</svg>