<?xml version="1.0" encoding="utf-8"?>
<!-- Generator: Adobe Illustrator 22.0.0, SVG Export Plug-In . SVG Version: 6.00 Build 0)  -->
<svg version="1.1" id="Layer_1" xmlns="http://www.w3.org/2000/svg" xmlns:xlink="http://www.w3.org/1999/xlink" x="0px" y="0px"
	 viewBox="0 0 3383.1 1925.7" enable-background="new 0 0 3383.1 1925.7" xml:space="preserve">
<path fill="#58DECC" d="M978.6,831v223.5c0,4.3,3.5,7.8,7.8,7.8h185.2c0,0,0-4.5,0-7V942.4h-0.7c-0.2,0-0.4-0.2-0.4-0.4v-18.7
	c0-0.2,0.2-0.4,0.4-0.4h0.7v-35.1c1.5-9.7,7.8-17.8,17.6-18V831c0-4.3-3.5-7.8-7.8-7.8H986.4C982.1,823.2,978.6,826.7,978.6,831z"/>
<path fill="#58DECC" d="M1045.1,695.8v102.6h-63.9c-8.8,0-16,7.2-16,16v93.3H624.2V695.8L1045.1,695.8z"/>
<path fill="#E3E8E8" d="M603.2,686.6c0-6.9,5.6-12.5,12.6-12.6H1058c6.9,0,12.5,5.6,12.6,12.6v110.9h-1.5V686.6
	c0-6.1-5-11.1-11.1-11.1H615.7c-6.1,0-11.1,5-11.1,11.1v249.6l360.1,0v1.5H603.2V686.6z"/>
<path fill="#E3E8E8" d="M603.2,948.4v-12.3l361.6,0v1.5H604.6v10.8c0,18.1,14.7,32.8,32.8,32.8h327.3v1.5H637.4
	C618.5,982.6,603.2,967.3,603.2,948.4z"/>
<path fill="#E3E8E8" d="M732.5,1054.9c18.7-17.5,31-40.5,34.7-73.1l0.1-0.7h137.2l0,0.7c1.2,30.4,13.4,53,35.6,73.1l-2.3-0.1
	c-21.5-19.9-33.4-42.4-34.8-72.3H768.7c-3.9,32-15.9,54.8-34.1,72.4L732.5,1054.9z"/>
<path fill="#E3E8E8" d="M964,1068.1V814.8c0-9.6,7.8-17.4,17.5-17.5h207.2c9.6,0,17.4,7.8,17.5,17.5v54.7h-1.5v-54.7
	c0-8.8-7.2-16-16-16H981.5c-8.8,0-16,7.2-16,16v253.3c0,8.8,7.2,16,16,16h207.2v1.5H981.5C971.8,1085.5,964,1077.7,964,1068.1z"/>
<path fill="#E3E8E8" d="M1080.1,811c0-2.8,2.2-5,5-5s5,2.2,5,5s-2.2,5-5,5C1082.3,816,1080.1,813.7,1080.1,811z M1085.1,807.1
	c-2.1,0-3.8,1.7-3.8,3.8c0,0,0,0,0,0c0,2.1,1.7,3.8,3.8,3.8s3.8-1.7,3.8-3.8C1088.9,808.9,1087.2,807.1,1085.1,807.1L1085.1,807.1z"
	/>
<path fill="#E3E8E8" d="M1138.7,1123.5c0-3.5,2.9-6.4,6.4-6.4s6.4,2.9,6.4,6.4s-2.9,6.4-6.4,6.4
	C1141.5,1129.9,1138.7,1127,1138.7,1123.5z M1140.1,1123.5C1140.1,1123.5,1140.1,1123.5,1140.1,1123.5c0,2.7,2.2,4.9,4.9,4.9
	c2.7,0,4.9-2.2,4.9-4.9c0-2.7-2.2-4.9-4.9-4.9C1142.3,1118.6,1140.2,1120.8,1140.1,1123.5z"/>
<path fill="#E3E8E8" d="M1171.3,1066.5V944.9c-0.7-0.3-1.2-1-1.2-1.8v-20.7c0-0.8,0.5-1.5,1.2-1.8v-31.8c0-10.7,8.7-19.5,19.5-19.5
	h68.6c10.7,0,19.5,8.7,19.5,19.5v177.6c0,10.7-8.7,19.5-19.5,19.5h-68.6C1180,1085.9,1171.3,1077.2,1171.3,1066.5z M1190.7,870.9
	c-9.9,0-18,8.1-18,18V922h-0.7c-0.2,0-0.4,0.2-0.4,0.4l0,20.7c0,0.2,0.2,0.4,0.4,0.4h0.7v122.9c0,9.9,8.1,18,18,18h68.6
	c9.9,0,18-8.1,18-18V888.9c0-9.9-8.1-18-18-18H1190.7z"/>
<path fill="#58DECC" d="M1176,889v177.3l0,0l0,0c0,7.7,6.3,14,14,14h68.9c0,0,0,0,0,0c7.7,0,14-6.3,14-14V889c0-7.7-6.3-14-14-14
	h-8.4c0.3,0.8,0.5,1.6,0.5,2.5c0,3.7-3,6.6-6.6,6.6h-39.3c-0.9,0-1.7-0.2-2.5-0.5c-3.4-1.4-5-5.3-3.6-8.7h-9
	C1182.2,875,1176,881.3,1176,889z"/>
<path fill="#E3E8E8" d="M718.6,1069.7c0-8.6,6.9-15.5,15.5-15.5l204.5,0c8.6,0,15.5,6.9,15.5,15.5s-6.9,15.5-15.5,15.5H734.1
	C725.6,1085.2,718.6,1078.3,718.6,1069.7z M734.1,1055.7c-7.7,0-14,6.3-14,14c0,7.7,6.3,14,14,14l204.5,0l0,0c7.7,0,14-6.3,14-14
	c0-7.7-6.3-14-14-14L734.1,1055.7z"/>
<path fill="#243E8A" d="M1722.7,194.8c-58-0.1-115.4,11-169.1,32.8c-2.2,0.9-4.3,1.8-6.5,2.7c-166.9,70.4-275.3,234-275.1,415.2
	v491.8c0,10.8,8.8,19.6,19.6,19.6l0.4,0c377.6,68.6,744.6,103.3,1091.3,103.3c5.2,0,10.4,0,15.6,0c340.7-1,672.5-35.8,986.1-103.3
	l0.5,0c10.8,0,19.6-8.8,19.6-19.6V214.4c0-10.8-8.8-19.6-19.6-19.6L1722.7,194.8z"/>
<path id="f4300551-56ef-4356-8f30-d0080b223343" fill="#E3E8E8" d="M2895.3,587c-7.1,0.1-12.8,6-12.7,13.2c0.1,7,5.7,12.6,12.7,12.7
	h324.5c7.1,0.1,13-5.6,13.2-12.7c0.1-7.1-5.6-13-12.7-13.2l0,0c-0.1,0-0.3,0-0.4,0H2895.3z"/>
<path fill="#FFFFFF" d="M3293.3,583.4c-1,1-1,2.6,0,3.6c0,0,0,0,0,0l10.9,10.9h-27c-1.4,0-2.5,1.1-2.5,2.5c0,1.4,1.1,2.5,2.5,2.5h27
	l-10.9,10.9c-1,1-1,2.6,0,3.6c1,1,2.6,1,3.6,0c0,0,0,0,0,0l15.3-15.3c1-1,1-2.6,0-3.6l-15.3-15.3
	C3295.9,582.4,3294.3,582.4,3293.3,583.4L3293.3,583.4z"/>
<path fill="#FFFFFF" d="M2821.5,583.4c1,1,1,2.6,0,3.6c0,0,0,0,0,0l-10.9,10.9h27c1.4,0,2.5,1.1,2.5,2.5s-1.1,2.5-2.5,2.5
	c0,0,0,0,0,0h-27l10.9,10.9c1,1,1,2.6,0,3.6c-1,1-2.6,1-3.6,0l0,0l-15.3-15.3c-1-1-1-2.6,0-3.6l15.3-15.3
	C2818.9,582.4,2820.5,582.4,2821.5,583.4C2821.5,583.4,2821.5,583.4,2821.5,583.4z"/>
<g>
	<circle fill="#58DECC" cx="2908.4" cy="304.5" r="13.9"/>
	<circle fill="#58DECC" cx="2966.3" cy="304.5" r="13.9"/>
	<circle fill="#58DECC" cx="3024.3" cy="304.5" r="13.9"/>
	<circle fill="#58DECC" cx="3082.2" cy="304.5" r="13.9"/>
	<circle fill="#58DECC" cx="3140.2" cy="304.5" r="13.9"/>
	<circle fill="#58DECC" cx="3198.1" cy="304.5" r="13.9"/>
	<circle fill="#58DECC" cx="3256.1" cy="304.5" r="13.9"/>
	<circle fill="#58DECC" cx="2908.4" cy="348.6" r="13.9"/>
	<circle fill="#58DECC" cx="2966.3" cy="348.6" r="13.9"/>
	<circle fill="#58DECC" cx="3024.3" cy="348.6" r="13.9"/>
	<circle fill="#58DECC" cx="3082.2" cy="348.6" r="13.9"/>
	<circle fill="#58DECC" cx="3140.2" cy="348.6" r="13.9"/>
	<circle fill="#58DECC" cx="3198.1" cy="348.6" r="13.9"/>
	<circle fill="#58DECC" cx="3256.1" cy="348.6" r="13.9"/>
	<circle fill="#58DECC" cx="2908.4" cy="392.6" r="13.9"/>
	<circle fill="#58DECC" cx="2966.3" cy="392.6" r="13.9"/>
	<circle fill="#58DECC" cx="3024.3" cy="392.6" r="13.9"/>
	<circle fill="#58DECC" cx="3082.2" cy="392.6" r="13.9"/>
	<circle fill="#58DECC" cx="3140.2" cy="392.6" r="13.9"/>
	<circle fill="#58DECC" cx="3198.1" cy="392.6" r="13.9"/>
	<circle fill="#58DECC" cx="3256.1" cy="392.6" r="13.9"/>
	<circle fill="#58DECC" cx="2908.4" cy="436.6" r="13.9"/>
	<circle fill="#58DECC" cx="2966.3" cy="436.6" r="13.9"/>
	<circle fill="#58DECC" cx="2908.4" cy="480.7" r="13.9"/>
	<circle fill="#58DECC" cx="2966.3" cy="480.7" r="13.9"/>
	<circle fill="#58DECC" cx="3024.3" cy="480.7" r="13.9"/>
	<circle fill="#58DECC" cx="3024.3" cy="436.6" r="13.9"/>
	<circle fill="#58DECC" cx="3082.2" cy="436.6" r="13.9"/>
	<circle fill="#58DECC" cx="3140.2" cy="436.6" r="13.9"/>
	<circle fill="#58DECC" cx="3198.1" cy="436.6" r="13.9"/>
	<circle fill="#58DECC" cx="3256.1" cy="436.6" r="13.9"/>
</g>
<path fill="#E3E8E8" d="M2708.9,1012c-42.4,0-76.8-34.4-76.8-76.8s34.4-76.8,76.8-76.8s76.8,34.4,76.8,76.8
	C2785.6,977.6,2751.2,1012,2708.9,1012z M2708.9,862.8c-40,0-72.4,32.4-72.4,72.4s32.4,72.4,72.4,72.4s72.4-32.4,72.4-72.4
	C2781.2,895.3,2748.8,862.9,2708.9,862.8z"/>
<path fill="#FFFFFF" d="M2738.3,927.9h-22.1v-22.1c0-4.1-3.3-7.3-7.4-7.3c-4,0-7.3,3.3-7.3,7.3v22.1h-22.1c-4.1,0-7.4,3.3-7.4,7.4
	c0,4.1,3.3,7.4,7.4,7.4h22.1v22.1c0,4.1,3.3,7.3,7.4,7.3c4,0,7.3-3.3,7.3-7.3v-22.1h22.1c4.1,0,7.4-3.3,7.4-7.4
	C2745.6,931.2,2742.4,927.9,2738.3,927.9L2738.3,927.9L2738.3,927.9z"/>
<g>
	<circle fill="#FFFFFF" cx="1389.6" cy="1010.5" r="10.9"/>
	<circle fill="#FFFFFF" cx="1389.6" cy="965" r="10.9"/>
	<circle fill="#FFFFFF" cx="1389.6" cy="919.4" r="10.9"/>
	<circle fill="#FFFFFF" cx="1389.6" cy="873.8" r="10.9"/>
	<circle fill="#FFFFFF" cx="1389.6" cy="828.3" r="10.9"/>
	<circle fill="#FFFFFF" cx="1389.6" cy="782.7" r="10.9"/>
	<circle fill="#FFFFFF" cx="1389.6" cy="737.2" r="10.9"/>
	<circle fill="#FFFFFF" cx="1424.2" cy="1010.5" r="10.9"/>
	<circle fill="#FFFFFF" cx="1424.2" cy="965" r="10.9"/>
	<circle fill="#FFFFFF" cx="1424.2" cy="919.4" r="10.9"/>
	<circle fill="#FFFFFF" cx="1424.2" cy="873.8" r="10.9"/>
	<circle fill="#FFFFFF" cx="1424.2" cy="828.3" r="10.9"/>
	<circle fill="#FFFFFF" cx="1424.2" cy="782.7" r="10.9"/>
	<circle fill="#FFFFFF" cx="1424.2" cy="737.2" r="10.9"/>
	<circle fill="#FFFFFF" cx="1458.8" cy="1010.5" r="10.9"/>
	<circle fill="#FFFFFF" cx="1458.8" cy="965" r="10.9"/>
	<circle fill="#FFFFFF" cx="1458.8" cy="919.4" r="10.9"/>
	<circle fill="#FFFFFF" cx="1458.8" cy="873.8" r="10.9"/>
	<circle fill="#FFFFFF" cx="1458.8" cy="828.3" r="10.9"/>
	<circle fill="#FFFFFF" cx="1458.8" cy="782.7" r="10.9"/>
	<circle fill="#FFFFFF" cx="1458.8" cy="737.2" r="10.9"/>
	<circle fill="#FFFFFF" cx="1493.5" cy="1010.5" r="10.9"/>
	<circle fill="#FFFFFF" cx="1493.5" cy="965" r="10.9"/>
	<circle fill="#FFFFFF" cx="1528.1" cy="1010.5" r="10.9"/>
	<circle fill="#FFFFFF" cx="1528.1" cy="965" r="10.9"/>
	<circle fill="#FFFFFF" cx="1528.1" cy="919.4" r="10.9"/>
	<circle fill="#FFFFFF" cx="1493.5" cy="919.4" r="10.9"/>
	<circle fill="#FFFFFF" cx="1493.5" cy="873.8" r="10.9"/>
	<circle fill="#FFFFFF" cx="1493.5" cy="828.3" r="10.9"/>
	<circle fill="#FFFFFF" cx="1493.5" cy="782.7" r="10.9"/>
	<circle fill="#FFFFFF" cx="1493.5" cy="737.2" r="10.9"/>
</g>
<path fill="#E3E8E8" d="M2354.6,266.7h-726.4c-7.4,0-13.4,6-13.5,13.5v621.1c0,7.4,6,13.4,13.5,13.5h726.4c7.4,0,13.4-6,13.5-13.5
	V280.1C2368.1,272.7,2362.1,266.7,2354.6,266.7z M2362.7,901.3c0,4.5-3.6,8.1-8.1,8.1h-726.4c-4.5,0-8.1-3.6-8.1-8.1V280.1
	c0-4.5,3.6-8.1,8.1-8.1h726.4c4.5,0,8.1,3.6,8.1,8.1V901.3z"/>
<path fill="#FFFFFF" d="M1795.9,804.3c0,1,0,1.9-0.1,2.8c-1.6,30.2-27.4,53.4-57.6,51.9c-28-1.5-50.4-23.8-51.9-51.9
	c-0.1-0.9-0.1-1.9-0.1-2.8c0-30.3,24.5-54.8,54.8-54.8S1795.9,774,1795.9,804.3z"/>
<path fill="#E3E8E8" d="M2298.2,767.7h-430.5c-5,0-9.1,4.1-9.1,9.2c0,5,4.1,9.1,9.1,9.1h430.5c5,0,9.1-4.1,9.1-9.2
	C2307.3,771.8,2303.2,767.8,2298.2,767.7z"/>
<path fill="#FFFFFF" d="M2052.9,822.6h-185.3c-5,0-9.1,4.1-9.1,9.1c0,5,4.1,9.1,9.1,9.1h185.3c5,0,9.1-4.1,9.1-9.1
	C2062,826.7,2058,822.6,2052.9,822.6C2052.9,822.6,2052.9,822.6,2052.9,822.6z"/>
<path fill="#FFFFFF" d="M2527.2,703.2h-726.4c-10.3,0-18.6-8.3-18.6-18.6V365.8c0-10.3,8.3-18.6,18.6-18.6h726.4
	c10.3,0,18.6,8.3,18.6,18.6v318.8C2545.8,694.9,2537.5,703.2,2527.2,703.2z M1800.8,353.8c-6.7,0-12.1,5.4-12.1,12.1v318.8
	c0,6.7,5.4,12.1,12.1,12.1h726.4c6.7,0,12.1-5.4,12.1-12.1V365.8c0-6.7-5.4-12.1-12.1-12.1H1800.8z"/>
<path fill="#FFFFFF" d="M1948.7,463.5c-5,0-9.1,4.1-9.1,9.1c0,5,4.1,9.1,9.1,9.1c0,0,0,0,0,0h430.5c5,0,9.1-4.1,9.1-9.1
	c0-5-4.1-9.1-9.1-9.1c0,0,0,0,0,0H1948.7z"/>
<path fill="#FFFFFF" d="M1948.7,516.4c-5,0-9.1,4.1-9.1,9.1c0,5,4.1,9.1,9.1,9.1h430.5c5,0,9.1-4.1,9.1-9.1c0-5-4.1-9.1-9.1-9.1
	H1948.7z"/>
<path fill="#FFFFFF" d="M1948.7,568.7c-5,0-9.1,4.1-9.1,9.1c0,5,4.1,9.1,9.1,9.1H2134c5,0,9.1-4.1,9.1-9.1c0-5-4.1-9.1-9.1-9.1
	L1948.7,568.7z"/>
<path fill="#FFFFFF" d="M2647,838.3l-73-103l23.6,4.9c1.8,0.4,3.5-0.8,3.9-2.5c0.4-1.8-0.8-3.5-2.5-3.9l0,0l-35.2-7.3l-4.8,35.6
	c-0.2,1.8,1,3.4,2.8,3.7c1.8,0.2,3.4-1,3.7-2.8l0,0l3.2-23.9l73,103c1,1.5,3.1,1.8,4.6,0.8C2647.7,841.8,2648,839.8,2647,838.3
	L2647,838.3z"/>
<path fill="#E3E8E8" d="M2250.7,1138h-518.6c-5.3,0-9.6-4.3-9.6-9.6V999.7c0-5.3,4.3-9.6,9.6-9.6h518.6c5.3,0,9.6,4.3,9.6,9.6v128.6
	C2260.3,1133.7,2256,1138,2250.7,1138z M1732.1,994c-3.2,0-5.8,2.6-5.8,5.8v128.6c0,3.2,2.6,5.8,5.8,5.8h518.6
	c3.2,0,5.8-2.6,5.8-5.8V999.7c0-3.2-2.6-5.8-5.8-5.8L1732.1,994z"/>
<ellipse transform="matrix(0.1602 -0.9871 0.9871 0.1602 476.9059 2678.7744)" fill="#FFFFFF" cx="1812.7" cy="1059.1" rx="39.1" ry="39.1"/>
<path fill="#FFFFFF" d="M1903.1,1033c-3.6,0-6.5,2.9-6.5,6.5c0,3.6,2.9,6.5,6.5,6.5c0,0,0,0,0,0h307.4c3.6,0,6.5-2.9,6.5-6.5
	c0-3.6-2.9-6.5-6.5-6.5c0,0,0,0,0,0H1903.1z"/>
<path fill="#FFFFFF" d="M1903.1,1072.2c-3.6,0-6.5,2.9-6.5,6.5c0,3.6,2.9,6.5,6.5,6.5c0,0,0,0,0,0h132.3c3.6,0,6.5-2.9,6.5-6.5
	c0-3.6-2.9-6.5-6.5-6.5c0,0,0,0,0,0H1903.1z"/>
<path fill="#E3E8E8" d="M2934.9,679.7h230.5c5.3,0,9.6,4.3,9.6,9.6v240c0,5.3-4.3,9.6-9.6,9.6h-230.5c-5.3,0-9.6-4.3-9.6-9.6v-240
	C2925.3,684,2929.6,679.7,2934.9,679.7z M3165.4,935.1c3.2,0,5.8-2.6,5.8-5.8v-240c0-3.2-2.6-5.8-5.8-5.8h-230.5
	c-3.2,0-5.8,2.6-5.8,5.8v240c0,3.2,2.6,5.8,5.8,5.8L3165.4,935.1z"/>
<path fill="#FFFFFF" d="M3116.3,889.4c3.6,0,6.5-2.9,6.5-6.5s-2.9-6.5-6.5-6.5H2984c-3.6,0-6.5,2.9-6.5,6.5s2.9,6.5,6.5,6.5H3116.3z
	"/>
<path fill="#FFFFFF" d="M3116.3,851c3.6,0,6.5-2.9,6.5-6.5c0-3.6-2.9-6.5-6.5-6.5c0,0,0,0,0,0H2984c-3.6,0-6.5,2.9-6.5,6.5
	c0,3.6,2.9,6.5,6.5,6.5c0,0,0,0,0,0H3116.3z"/>
<path fill="#FFFFFF" d="M3050.2,729.2c22.7,0,41,18.4,41,41c0,22.7-18.4,41-41,41s-41-18.4-41-41
	C3009.1,747.6,3027.5,729.2,3050.2,729.2z"/>
<polygon fill="#FFB8B8" points="440.8,936.3 428.6,961.7 498.9,985.3 507.1,968.1 "/>
<path fill="#243E8A" d="M499,1026.1l-1.6-0.8c-10.7-5.1-15.2-17.9-10.1-28.5L504,962l0,0l20.9,10l0,0L499,1026.1L499,1026.1z"/>
<polygon fill="#FFB8B8" points="526.2,1048.2 503.8,1046.9 504.6,1121.1 523.7,1121.8 "/>
<path fill="#243E8A" d="M467.6,1138.6v-1.8c0-11.8,9.6-21.4,21.4-21.4h38.6l0,0v23.2l0,0H467.6L467.6,1138.6z"/>
<path fill="#243E8A" d="M521,1110.5l-19.3-3.1c-3.6-0.6-6.2-3.7-6.1-7.4l7.1-187.1c0-1.1-0.3-2.2-1-3c-1.6-1.8-4.3-2-6.1-0.4
	L467,934.2c-1.1,0.9-1.6,2.3-1.5,3.7c0.3,1.5,1.3,2.8,2.6,3.6l24.6,12.3c3.3,1.7,4.8,5.6,3.5,9.1l-11,27.6c-0.4,1.2-1.2,2.2-2.2,3
	c-2.4,1.9-5.7,2.2-8.3,0.6l-52.6-33.2c-0.2-0.2-0.5-0.3-0.7-0.5c-13.4-9-17-27.3-7.9-40.7l40-59.4l14.9-43l0.3-0.3
	c26.7-22,72.2-7.9,74.6-7.3l0.5,0.1l0.3,0.4c34.4,41.5-4.5,253-14.9,294.9c-0.8,3.2-3.7,5.4-6.9,5.4
	C521.8,1110.6,521.4,1110.6,521,1110.5z"/>
<path fill="#E3E8E8" d="M471.8,824.6c-3.5-0.6-5.9-3.9-5.3-7.4c2-11.9,5-33.5,3.4-44.7c-2-13.3-1.9-36.8-1.5-54.1
	c0.2-12.4,9-22.9,21.1-25.4c17.4-3.6,38.8-4.5,50.4-4.6l1.4,0l0,0c6.6,0.4,11.7,5.7,11.9,12.2c0.3,18.7,0.2,52.7-4.4,71
	c-3.4,13-2.8,26.6,1.5,39.3c0.2,0.5,0.3,1.1,0.3,1.7c0.3,3.6-2.4,6.6-6,6.9l-71.3,5.3c-0.2,0-0.3,0-0.5,0
	C472.5,824.7,472.1,824.6,471.8,824.6z"/>
<path fill="#FFB8B8" d="M429.8,888.8c-5.1-6.2-4.2-15.3,2-20.4l29.1-139.2h24.9l-32.9,142c0.5,0.7,0.9,1.4,1.3,2.2
	c3.4,7.2,0.4,15.8-6.8,19.2C441.3,895.6,434.1,894,429.8,888.8z"/>
<path fill="#FFB8B8" d="M604.7,746c7,8.1,6.1,20.3-2,27.3L552,817.2l-0.2-0.2c-1,7.7-7.7,13.5-15.5,13.5c-8.6,0-15.6-7-15.6-15.6
	c0-8.6,7-15.6,15.6-15.6c0.4,0,0.7,0,1.1,0.1l48.7-38.7L549,728.1l14.9-20.8l39.4,37.3C603.8,745.1,604.2,745.5,604.7,746z"/>
<path fill="#E3E8E8" d="M482.8,738.3l-20.2-1c-0.3,0-0.6,0-0.9-0.1c-3.5-0.7-5.8-4-5.2-7.5c0.9-4.6,1.8-11.3,2.8-20
	c0.1-1,0.3-2,0.5-2.9c2.5-11.4,12.5-15,20.6-13.5c8.4,1.5,16.6,8.6,14.9,20.4c-1.1,7.3-3.3,14.3-6.4,20.9c-1.1,2.2-3.3,3.7-5.8,3.7
	C483,738.3,482.9,738.3,482.8,738.3z"/>
<circle fill="#243E8A" cx="511.4" cy="632.9" r="43.1"/>
<circle fill="#FFB8B8" cx="511.1" cy="644.1" r="35.3"/>
<path fill="#E3E8E8" d="M573.5,721.4l-15.6,12.9c-0.2,0.2-0.5,0.4-0.7,0.5c-3,1.9-7,1-8.9-2.1c-2.5-4-6.3-9.6-11.4-16.6
	c-0.6-0.8-1.1-1.6-1.6-2.5c-5.8-10.1-0.9-19.5,6.1-23.9c7.2-4.5,18-4.9,24.8,5c4.1,6.1,7.2,12.8,9.4,19.8c0.7,2.4,0,5-1.8,6.6
	C573.7,721.2,573.6,721.3,573.5,721.4z"/>
<path fill="#243E8A" d="M522.8,591.6c-2.8,2.2-5.8,3.9-9.1,5.2c-3.4,1.2-7.1,0.8-10.1-1.1c-2.4-1.7-3.7-4.4-5.8-6.5
	c-4.5-4.4-11.9-4.5-17.5-1.7c-5.6,2.8-9.6,8.1-12.4,13.7c-7,13.4-8.7,28.8-12.2,43.5c-3.5,14.7-9.6,29.9-22.2,38.3
	c-7.3,4.8-16.6,6.8-24.9,4.2s-15-10.6-15-19.3c5,5.4,14.4,4.6,20.2,0.1s9-11.6,11.6-18.6c5-13.5,8.6-27.5,13.7-41.1
	s11.7-26.7,21.8-37c10.1-10.3,24-17.5,38.4-17.1c10.1,0.3,20.5,4.8,25.7,13.5s3.3,21.6-5.4,26.7"/>
<path fill="#243E8A" d="M545.3,625.3c2.5-6.3,0.1-13.8-4.7-18.7c-4.8-4.8-11.5-7.3-18.2-8.2c-11.8-1.5-23.7,1.2-33.6,7.7
	c-3.8,2.5-7.5,6-7.7,10.6c-0.2,4.4,3,8.3,6.4,11c0.5,0.4,1,0.8,1.5,1.1c18.7,13.9,45.2,10,59.1-8.7"/>
<linearGradient id="ab32811a-36b8-48f6-a9b0-164845ebe4b4_1_" gradientUnits="userSpaceOnUse" x1="4.59" y1="1064.1503" x2="22.2681" y2="1064.1503" gradientTransform="matrix(34.411 0 0 37.3963 -167.3307 -38375.8203)">
	<stop  offset="0" style="stop-color:#2D6DD0"/>
	<stop  offset="0.99" style="stop-color:#6C139C"/>
</linearGradient>
<path id="ab32811a-36b8-48f6-a9b0-164845ebe4b4" fill="url(#ab32811a-36b8-48f6-a9b0-164845ebe4b4_1_)" d="M214.2,1359.7
	c-11.4,3.1-21.7,9.2-29.8,17.7c-9.5-33.3-29.9-83.7-49.8-91.9c-4.3-2-9.2-1.8-13.3,0.6c-12.4,7.2-20.6,30.5-13.5,74.7
	c-27.4-50.1-36.9-50-41.3-50.1c-4.3,0.1-8.2,2.7-9.8,6.7c-3,6.6-8.9,27.1,5.6,71.3c-17.4-23.9-22.8-26.9-28.9-26.6
	c-4,0.2-7.6,2.7-9.3,6.3c-5.2,9.8-4.6,34.6,11.6,71.5c-5.6-4.9-12.6-7.8-20-8.2c-4,0.3-7.7,2.6-9.6,6.2c-6.6,12.1,7.2,46,24.3,69
	c13.8,18.9,41.5,47.9,81.8,47.9c5.6,0,11.3-0.5,16.8-1.6c4-0.7,6.7-4.5,6-8.5c-0.7-4-4.5-6.7-8.5-6c-0.1,0-0.2,0-0.3,0.1
	c-33.4,6.5-58.6-11.9-73.9-28.4c-22.8-24.7-32.8-54.3-33.4-63.4c4.8,2,18.5,10.1,45.3,44.4c2.4,3.3,6.9,4.1,10.2,1.7
	s4.1-6.9,1.7-10.2c0,0,0,0,0,0l0,0c-37.6-57.1-41.3-91.7-40.1-103.3c11.1,11.3,38.7,52.7,59.6,83.9c2.2,3.4,6.8,4.3,10.2,2.1
	c3.2-2.1,4.2-6.3,2.4-9.7c-43.4-79.6-41.9-115.8-39.4-127.9c6.5,6.6,23.8,29.5,60.2,108.5c1.7,3.7,6.1,5.2,9.8,3.5
	c3.4-1.6,5-5.6,3.8-9.1c-35.3-95.9-20-128.4-14.1-132.1c7.6,0,28.9,36.6,42.3,84.6c0.8,3,1.6,5.9,2.3,8.7c-1.9,3.3-3.3,6.8-4.3,10.4
	c-7.2,26.6-14.5,86.8-0.5,103.4c2.8,3.5,7.2,5.4,11.7,5c5.7-0.6,10.8-3.8,13.9-8.5c13-18.9,5.4-66.3-5-107.7
	c7-10,17.2-17.3,28.9-20.8c5.1-1.6,10.7-0.3,14.5,3.5c5.9,6.7,16.3,31.5-15.1,119.3c-1.4,3.8,0.6,8,4.5,9.4c3.8,1.4,8-0.6,9.4-4.5
	c25-70,28.9-115.1,12.2-134C235.8,1359.5,224.5,1356.5,214.2,1359.7z M181.6,1494c-0.5,1-1.4,1.7-2.5,2.1
	c-5.4-6.4-5.4-44.6,0.5-75.8C190.9,1474.4,184.4,1490.2,181.6,1494L181.6,1494z"/>
<circle fill="#FF6584" cx="108.9" cy="149.2" r="95.5"/>
<path fill="#243E8A" d="M354.2,93.2l9.2-7.4c-7.2-0.8-10.1,3.1-11.3,6.2c-5.6-2.3-11.7,0.7-11.7,0.7l18.4,6.7
	C357.9,97,356.3,94.8,354.2,93.2z"/>
<path fill="#243E8A" d="M492.2,191.2l9.2-7.4c-7.2-0.8-10.1,3.1-11.3,6.2c-5.6-2.3-11.7,0.7-11.7,0.7l18.4,6.7
	C495.9,195,494.3,192.8,492.2,191.2z"/>
<path fill="#243E8A" d="M343.2,232.2l9.2-7.4c-7.2-0.8-10.1,3.1-11.3,6.2c-5.6-2.3-11.7,0.7-11.7,0.7l18.4,6.7
	C346.9,236,345.3,233.8,343.2,232.2z"/>
<ellipse fill="#E6E6E6" cx="499.4" cy="1158.5" rx="144.4" ry="18.7"/>
<path fill="#E6E6E6" d="M387.8,1102.4c0,0-2.3-50.4-50.4-44.6"/>
<path fill="#E6E6E6" d="M590.5,984.3c0,0,2.3-50.4,50.4-44.6"/>
<path fill="#E6E6E6" d="M589.5,1145.2c-0.1-0.5-5.8-53.4,17.4-81.4c8.5-10.3,20-16.1,34-17.2l0.2,2c-13.5,1-24.4,6.6-32.6,16.5
	c-22.6,27.3-17,79.4-16.9,79.9L589.5,1145.2z"/>
<rect x="386" y="1043.7" fill="#E6E6E6" width="2" height="110"/>
<rect x="588" y="932.7" fill="#E6E6E6" width="2" height="221"/>
<circle fill="#243E8A" cx="387.8" cy="1030.9" r="16.4"/>
<circle fill="#243E8A" cx="590.5" cy="917.4" r="16.4"/>
<path fill="#243E8A" d="M499.2,295.2l9.2-7.4c-7.2-0.8-10.1,3.1-11.3,6.2c-5.6-2.3-11.7,0.7-11.7,0.7l18.4,6.7
	C502.9,299,501.3,296.8,499.2,295.2z"/>
<path fill="#243E8A" d="M637.2,393.2l9.2-7.4c-7.2-0.8-10.1,3.1-11.3,6.2c-5.6-2.3-11.7,0.7-11.7,0.7l18.4,6.7
	C640.9,397,639.3,394.8,637.2,393.2z"/>
<path fill="#243E8A" d="M488.2,434.2l9.2-7.4c-7.2-0.8-10.1,3.1-11.3,6.2c-5.6-2.3-11.7,0.7-11.7,0.7l18.4,6.7
	C491.9,438,490.3,435.8,488.2,434.2z"/>
<g>
	<g>
		<path d="M436.5,1521.4h-43.8l-13.1-59.7c-0.6-2.5-1.6-7.5-3-14.9c-1.3-7.4-2.3-13.7-3-18.7c-0.5,4.1-1.3,9.1-2.4,15.1
			c-1.1,6-2.2,11.6-3.3,16.6c-1.1,5.1-5.6,25.6-13.6,61.5h-43.8l-34-137.1h35.7l14.9,68.8c3.4,15.2,5.7,27.3,6.9,36.3
			c0.8-6.4,2.3-15,4.4-26c2.1-10.9,4-20,5.9-27.2l12.1-51.9h34.3l11.7,51.9c2,8.3,4,17.9,6.1,28.8c2.1,10.9,3.4,19,4.1,24.4
			c0.8-6.9,3-19,6.7-36.1l15.2-68.9h35.7L436.5,1521.4z"/>
		<path d="M567.5,1521.4h-81.4v-137.1h81.4v29.7h-44.4v21.6h41.1v29.7h-41.1v25.9h44.4V1521.4z"/>
		<path d="M589.6,1521.4v-137.1h37.1v107.2h52.8v29.9H589.6z"/>
		<path d="M760.5,1412.7c-8.8,0-15.7,3.6-20.6,10.8c-4.9,7.2-7.4,17.2-7.4,29.9c0,26.4,10,39.6,30.1,39.6c6.1,0,11.9-0.8,17.6-2.5
			c5.7-1.7,11.4-3.7,17.2-6.1v31.3c-11.4,5.1-24.4,7.6-38.8,7.6c-20.7,0-36.6-6-47.6-18c-11-12-16.6-29.4-16.6-52.1
			c0-14.2,2.7-26.7,8-37.4c5.3-10.8,13-19,23.1-24.8c10-5.8,21.8-8.7,35.4-8.7c14.8,0,29,3.2,42.5,9.7l-11.3,29.2
			c-5.1-2.4-10.1-4.4-15.2-6C771.8,1413.5,766.3,1412.7,760.5,1412.7z"/>
		<path d="M950.5,1452.6c0,23.1-5.7,40.6-17,52.6c-11.3,12-27.9,18-49.7,18c-21.5,0-38-6-49.5-18.1c-11.5-12.1-17.2-29.6-17.2-52.7
			c0-22.8,5.7-40.3,17.1-52.3c11.4-12,28-18.1,49.8-18.1c21.8,0,38.4,6,49.6,17.9C944.9,1411.9,950.5,1429.5,950.5,1452.6z
			 M856.1,1452.6c0,26.5,9.2,39.8,27.7,39.8c9.4,0,16.3-3.2,20.9-9.7c4.5-6.4,6.8-16.5,6.8-30.1c0-13.7-2.3-23.8-6.9-30.3
			c-4.6-6.5-11.5-9.8-20.6-9.8C865.4,1412.5,856.1,1425.8,856.1,1452.6z"/>
		<path d="M1033.1,1521.4l-28-98.8h-0.8c1.3,16.8,2,29.9,2,39.2v59.6h-32.8v-137.1h49.3l28.6,97.4h0.8l28-97.4h49.4v137.1h-34v-60.1
			c0-3.1,0-6.6,0.1-10.4c0.1-3.8,0.5-13.2,1.3-28h-0.8l-27.7,98.6H1033.1z"/>
		<path d="M1238.6,1521.4h-81.4v-137.1h81.4v29.7h-44.4v21.6h41.1v29.7h-41.1v25.9h44.4V1521.4z"/>
		<path d="M1369.1,1521.4h-37.1v-106.8h-33.5v-30.3h103.9v30.3h-33.4V1521.4z"/>
		<path d="M1548.5,1452.6c0,23.1-5.7,40.6-17,52.6c-11.3,12-27.9,18-49.7,18c-21.5,0-38-6-49.5-18.1c-11.5-12.1-17.2-29.6-17.2-52.7
			c0-22.8,5.7-40.3,17.1-52.3c11.4-12,28-18.1,49.8-18.1c21.8,0,38.4,6,49.6,17.9C1542.9,1411.9,1548.5,1429.5,1548.5,1452.6z
			 M1454.2,1452.6c0,26.5,9.2,39.8,27.7,39.8c9.4,0,16.3-3.2,20.9-9.7c4.5-6.4,6.8-16.5,6.8-30.1c0-13.7-2.3-23.8-6.9-30.3
			c-4.6-6.5-11.5-9.8-20.6-9.8C1463.5,1412.5,1454.2,1425.8,1454.2,1452.6z"/>
		<path d="M1668.3,1435.1l23.6-50.8h40.1l-45.1,83.6v53.6h-37.3v-52.4l-45.1-84.7h40.3L1668.3,1435.1z"/>
		<path d="M1873.3,1452.6c0,23.1-5.7,40.6-17,52.6c-11.3,12-27.9,18-49.7,18c-21.5,0-38-6-49.5-18.1c-11.5-12.1-17.2-29.6-17.2-52.7
			c0-22.8,5.7-40.3,17.1-52.3c11.4-12,28-18.1,49.8-18.1c21.8,0,38.4,6,49.6,17.9C1867.7,1411.9,1873.3,1429.5,1873.3,1452.6z
			 M1779,1452.6c0,26.5,9.2,39.8,27.7,39.8c9.4,0,16.3-3.2,20.9-9.7c4.5-6.4,6.8-16.5,6.8-30.1c0-13.7-2.3-23.8-6.9-30.3
			c-4.6-6.5-11.5-9.8-20.6-9.8C1788.2,1412.5,1779,1425.8,1779,1452.6z"/>
		<path d="M2012.7,1384.2v82.5c0,17.9-5.1,31.8-15.2,41.7c-10.2,9.8-24.8,14.8-43.9,14.8c-18.7,0-33.1-4.8-43.1-14.4
			c-10-9.6-15.1-23.3-15.1-41.3v-83.4h37.2v80.5c0,9.7,1.8,16.7,5.4,21.1c3.6,4.4,9,6.6,16,6.6c7.6,0,13.1-2.2,16.5-6.5
			c3.4-4.3,5.1-11.5,5.1-21.3v-80.3H2012.7z"/>
		<path d="M2076.7,1471.5v49.9h-37.1v-137.1h44.9c37.3,0,55.9,13.5,55.9,40.5c0,15.9-7.8,28.2-23.3,36.9l40,59.7h-42l-29.1-49.9
			H2076.7z M2076.7,1443.6h6.9c12.9,0,19.4-5.7,19.4-17.2c0-9.4-6.3-14.2-19-14.2h-7.3V1443.6z"/>
		<path d="M2332.1,1449.9c0,22.9-6.3,40.5-18.9,52.9c-12.6,12.4-30.3,18.6-53.1,18.6h-44.4v-137.1h47.5c22,0,39,5.6,51,16.9
			C2326.1,1412.4,2332.1,1428.6,2332.1,1449.9z M2293.6,1451.2c0-12.6-2.5-21.9-7.5-28c-5-6.1-12.5-9.1-22.7-9.1h-10.8v76.8h8.3
			c11.3,0,19.5-3.3,24.8-9.8C2291,1474.6,2293.6,1464.6,2293.6,1451.2z"/>
		<path d="M2436.2,1521.4h-81.4v-137.1h81.4v29.7h-44.4v21.6h41.1v29.7h-41.1v25.9h44.4V1521.4z"/>
		<path d="M2547.9,1479.7c0,8.5-2.2,16.1-6.5,22.7c-4.3,6.6-10.5,11.7-18.7,15.4c-8.1,3.7-17.7,5.5-28.6,5.5c-9.1,0-16.8-0.6-23-1.9
			s-12.6-3.5-19.3-6.7v-33c7.1,3.6,14.4,6.5,22,8.5c7.6,2,14.6,3,21,3c5.5,0,9.5-1,12.1-2.9c2.6-1.9,3.8-4.4,3.8-7.4
			c0-1.9-0.5-3.5-1.5-4.9c-1-1.4-2.7-2.8-5-4.3c-2.3-1.4-8.4-4.4-18.2-8.8c-8.9-4.1-15.6-8-20.1-11.8c-4.5-3.8-7.8-8.2-9.9-13.1
			c-2.2-4.9-3.2-10.8-3.2-17.5c0-12.6,4.6-22.5,13.8-29.5c9.2-7.1,21.8-10.6,37.9-10.6c14.2,0,28.7,3.3,43.4,9.8l-11.3,28.6
			c-12.8-5.9-23.9-8.8-33.2-8.8c-4.8,0-8.3,0.8-10.5,2.5c-2.2,1.7-3.3,3.8-3.3,6.3c0,2.7,1.4,5.1,4.2,7.2c2.8,2.1,10.3,6,22.7,11.6
			c11.8,5.3,20,11,24.6,17.1C2545.6,1462.8,2547.9,1470.5,2547.9,1479.7z"/>
		<path d="M2567.2,1521.4v-137.1h37.2v137.1H2567.2z"/>
		<path d="M2687.2,1441.1h59.2v73.9c-16.1,5.5-33.7,8.3-53,8.3c-21.1,0-37.5-6.1-49-18.4c-11.5-12.3-17.3-29.7-17.3-52.4
			c0-22.1,6.3-39.4,18.9-51.7c12.6-12.3,30.3-18.5,53.1-18.5c8.6,0,16.8,0.8,24.4,2.4c7.7,1.6,14.3,3.7,20,6.2l-11.7,29.1
			c-9.9-4.9-20.7-7.3-32.5-7.3c-10.8,0-19.2,3.5-25.1,10.6c-5.9,7-8.9,17.1-8.9,30.2c0,12.8,2.7,22.6,8,29.3
			c5.3,6.7,13.1,10.1,23.1,10.1c5.5,0,10.6-0.5,15.2-1.6v-21.5h-24.5V1441.1z"/>
		<path d="M2903,1521.4h-48.6l-50.1-96.6h-0.8c1.2,15.2,1.8,26.8,1.8,34.8v61.8h-32.8v-137.1h48.4l49.9,95.3h0.6
			c-0.9-13.8-1.3-24.9-1.3-33.3v-62h33V1521.4z"/>
		<path d="M404.8,1680.4c0,22.9-6.3,40.5-18.9,52.9c-12.6,12.4-30.3,18.6-53.1,18.6h-44.4v-137.1h47.5c22,0,39,5.6,51,16.9
			C398.8,1642.9,404.8,1659.1,404.8,1680.4z M366.3,1681.7c0-12.6-2.5-21.9-7.5-28c-5-6.1-12.5-9.1-22.7-9.1h-10.8v76.8h8.3
			c11.3,0,19.5-3.3,24.8-9.8C363.7,1705.2,366.3,1695.2,366.3,1681.7z"/>
		<path d="M555.8,1683.1c0,23.1-5.7,40.6-17,52.6c-11.3,12-27.9,18-49.7,18c-21.5,0-38-6-49.5-18.1c-11.5-12.1-17.2-29.6-17.2-52.7
			c0-22.8,5.7-40.3,17.1-52.3c11.4-12,28-18.1,49.8-18.1c21.8,0,38.4,6,49.6,17.9C550.1,1642.5,555.8,1660,555.8,1683.1z
			 M461.4,1683.1c0,26.5,9.2,39.8,27.7,39.8c9.4,0,16.3-3.2,20.9-9.7c4.5-6.4,6.8-16.5,6.8-30.1c0-13.7-2.3-23.8-6.9-30.3
			c-4.6-6.5-11.5-9.8-20.6-9.8C470.7,1643,461.4,1656.4,461.4,1683.1z"/>
		<path d="M639.7,1643.2c-8.8,0-15.7,3.6-20.6,10.8c-4.9,7.2-7.4,17.2-7.4,29.9c0,26.4,10,39.6,30.1,39.6c6.1,0,11.9-0.8,17.6-2.5
			c5.7-1.7,11.4-3.7,17.2-6.1v31.3c-11.4,5.1-24.4,7.6-38.8,7.6c-20.7,0-36.6-6-47.6-18c-11-12-16.6-29.4-16.6-52.1
			c0-14.2,2.7-26.7,8-37.4c5.3-10.8,13-19,23.1-24.8c10-5.8,21.8-8.7,35.4-8.7c14.8,0,29,3.2,42.5,9.7l-11.3,29.2
			c-5.1-2.4-10.1-4.4-15.2-6C650.9,1644,645.5,1643.2,639.7,1643.2z"/>
		<path d="M817.9,1614.7v82.5c0,17.9-5.1,31.8-15.2,41.7c-10.2,9.8-24.8,14.8-43.9,14.8c-18.7,0-33.1-4.8-43.1-14.4
			c-10-9.6-15.1-23.3-15.1-41.3v-83.4h37.2v80.5c0,9.7,1.8,16.7,5.4,21.1c3.6,4.4,9,6.6,16,6.6c7.6,0,13.1-2.2,16.5-6.5
			c3.4-4.3,5.1-11.5,5.1-21.3v-80.3H817.9z"/>
		<path d="M904.5,1751.9l-28-98.8h-0.8c1.3,16.8,2,29.9,2,39.2v59.6h-32.8v-137.1h49.3l28.6,97.4h0.8l28-97.4h49.4v137.1h-34v-60.1
			c0-3.1,0-6.6,0.1-10.4c0.1-3.8,0.5-13.2,1.3-28h-0.8l-27.7,98.6H904.5z"/>
		<path d="M1110,1751.9h-81.4v-137.1h81.4v29.7h-44.4v21.6h41.1v29.7h-41.1v25.9h44.4V1751.9z"/>
		<path d="M1262.7,1751.9h-48.6l-50.1-96.6h-0.8c1.2,15.2,1.8,26.8,1.8,34.8v61.8h-32.8v-137.1h48.4l49.9,95.3h0.6
			c-0.9-13.8-1.3-24.9-1.3-33.3v-62h33V1751.9z"/>
		<path d="M1350.9,1751.9h-37.1V1645h-33.5v-30.3h103.9v30.3h-33.4V1751.9z"/>
		<path d="M1486.1,1751.9l-6.8-25.7h-44.6l-6.9,25.7h-40.7l44.7-137.7h49.4l45.3,137.7H1486.1z M1471.7,1695.8l-5.9-22.5
			c-1.4-5-3-11.5-5-19.4c-2-7.9-3.3-13.6-3.9-17.1c-0.6,3.2-1.7,8.4-3.3,15.8c-1.7,7.3-5.3,21.7-11,43.2H1471.7z"/>
		<path d="M1600,1751.9H1563V1645h-33.5v-30.3h103.9v30.3H1600V1751.9z"/>
		<path d="M1651.1,1751.9v-137.1h37.2v137.1H1651.1z"/>
		<path d="M1844.4,1683.1c0,23.1-5.7,40.6-17,52.6c-11.3,12-27.9,18-49.7,18c-21.5,0-38-6-49.5-18.1c-11.5-12.1-17.2-29.6-17.2-52.7
			c0-22.8,5.7-40.3,17.1-52.3c11.4-12,28-18.1,49.8-18.1c21.8,0,38.4,6,49.6,17.9C1838.7,1642.5,1844.4,1660,1844.4,1683.1z
			 M1750,1683.1c0,26.5,9.2,39.8,27.7,39.8c9.4,0,16.3-3.2,20.9-9.7c4.5-6.4,6.8-16.5,6.8-30.1c0-13.7-2.3-23.8-6.9-30.3
			c-4.6-6.5-11.5-9.8-20.6-9.8C1759.3,1643,1750,1656.4,1750,1683.1z"/>
		<path d="M1997.8,1751.9h-48.6l-50.1-96.6h-0.8c1.2,15.2,1.8,26.8,1.8,34.8v61.8h-32.8v-137.1h48.4l49.9,95.3h0.6
			c-0.9-13.8-1.3-24.9-1.3-33.3v-62h33V1751.9z"/>
	</g>
	<g>
		
			<linearGradient id="SVGID_1_" gradientUnits="userSpaceOnUse" x1="256.4678" y1="1573.916" x2="2883" y2="1573.916" gradientTransform="matrix(1 0 0 1 20 -6)">
			<stop  offset="0" style="stop-color:#422096"/>
			<stop  offset="0.103" style="stop-color:#3F2996"/>
			<stop  offset="0.2741" style="stop-color:#354396"/>
			<stop  offset="0.4911" style="stop-color:#266C96"/>
			<stop  offset="0.5666" style="stop-color:#207C96"/>
			<stop  offset="1" style="stop-color:#58DECC"/>
		</linearGradient>
		<path fill="url(#SVGID_1_)" d="M436.5,1521.4h-43.8l-13.1-59.7c-0.6-2.5-1.6-7.5-3-14.9c-1.3-7.4-2.3-13.7-3-18.7
			c-0.5,4.1-1.3,9.1-2.4,15.1c-1.1,6-2.2,11.6-3.3,16.6c-1.1,5.1-5.6,25.6-13.6,61.5h-43.8l-34-137.1h35.7l14.9,68.8
			c3.4,15.2,5.7,27.3,6.9,36.3c0.8-6.4,2.3-15,4.4-26c2.1-10.9,4-20,5.9-27.2l12.1-51.9h34.3l11.7,51.9c2,8.3,4,17.9,6.1,28.8
			c2.1,10.9,3.4,19,4.1,24.4c0.8-6.9,3-19,6.7-36.1l15.2-68.9h35.7L436.5,1521.4z"/>
		
			<linearGradient id="SVGID_2_" gradientUnits="userSpaceOnUse" x1="256.4678" y1="1573.916" x2="2883" y2="1573.916" gradientTransform="matrix(1 0 0 1 20 -6)">
			<stop  offset="0" style="stop-color:#422096"/>
			<stop  offset="0.103" style="stop-color:#3F2996"/>
			<stop  offset="0.2741" style="stop-color:#354396"/>
			<stop  offset="0.4911" style="stop-color:#266C96"/>
			<stop  offset="0.5666" style="stop-color:#207C96"/>
			<stop  offset="1" style="stop-color:#58DECC"/>
		</linearGradient>
		<path fill="url(#SVGID_2_)" d="M567.5,1521.4h-81.4v-137.1h81.4v29.7h-44.4v21.6h41.1v29.7h-41.1v25.9h44.4V1521.4z"/>
		
			<linearGradient id="SVGID_3_" gradientUnits="userSpaceOnUse" x1="256.4678" y1="1573.916" x2="2883" y2="1573.916" gradientTransform="matrix(1 0 0 1 20 -6)">
			<stop  offset="0" style="stop-color:#422096"/>
			<stop  offset="0.103" style="stop-color:#3F2996"/>
			<stop  offset="0.2741" style="stop-color:#354396"/>
			<stop  offset="0.4911" style="stop-color:#266C96"/>
			<stop  offset="0.5666" style="stop-color:#207C96"/>
			<stop  offset="1" style="stop-color:#58DECC"/>
		</linearGradient>
		<path fill="url(#SVGID_3_)" d="M589.6,1521.4v-137.1h37.1v107.2h52.8v29.9H589.6z"/>
		
			<linearGradient id="SVGID_4_" gradientUnits="userSpaceOnUse" x1="256.4678" y1="1573.916" x2="2883" y2="1573.916" gradientTransform="matrix(1 0 0 1 20 -6)">
			<stop  offset="0" style="stop-color:#422096"/>
			<stop  offset="0.103" style="stop-color:#3F2996"/>
			<stop  offset="0.2741" style="stop-color:#354396"/>
			<stop  offset="0.4911" style="stop-color:#266C96"/>
			<stop  offset="0.5666" style="stop-color:#207C96"/>
			<stop  offset="1" style="stop-color:#58DECC"/>
		</linearGradient>
		<path fill="url(#SVGID_4_)" d="M760.5,1412.7c-8.8,0-15.7,3.6-20.6,10.8c-4.9,7.2-7.4,17.2-7.4,29.9c0,26.4,10,39.6,30.1,39.6
			c6.1,0,11.9-0.8,17.6-2.5c5.7-1.7,11.4-3.7,17.2-6.1v31.3c-11.4,5.1-24.4,7.6-38.8,7.6c-20.7,0-36.6-6-47.6-18
			c-11-12-16.6-29.4-16.6-52.1c0-14.2,2.7-26.7,8-37.4c5.3-10.8,13-19,23.1-24.8c10-5.8,21.8-8.7,35.4-8.7c14.8,0,29,3.2,42.5,9.7
			l-11.3,29.2c-5.1-2.4-10.1-4.4-15.2-6C771.8,1413.5,766.3,1412.7,760.5,1412.7z"/>
		
			<linearGradient id="SVGID_5_" gradientUnits="userSpaceOnUse" x1="256.4678" y1="1573.916" x2="2883" y2="1573.916" gradientTransform="matrix(1 0 0 1 20 -6)">
			<stop  offset="0" style="stop-color:#422096"/>
			<stop  offset="0.103" style="stop-color:#3F2996"/>
			<stop  offset="0.2741" style="stop-color:#354396"/>
			<stop  offset="0.4911" style="stop-color:#266C96"/>
			<stop  offset="0.5666" style="stop-color:#207C96"/>
			<stop  offset="1" style="stop-color:#58DECC"/>
		</linearGradient>
		<path fill="url(#SVGID_5_)" d="M950.5,1452.6c0,23.1-5.7,40.6-17,52.6c-11.3,12-27.9,18-49.7,18c-21.5,0-38-6-49.5-18.1
			c-11.5-12.1-17.2-29.6-17.2-52.7c0-22.8,5.7-40.3,17.1-52.3c11.4-12,28-18.1,49.8-18.1c21.8,0,38.4,6,49.6,17.9
			C944.9,1411.9,950.5,1429.5,950.5,1452.6z M856.1,1452.6c0,26.5,9.2,39.8,27.7,39.8c9.4,0,16.3-3.2,20.9-9.7
			c4.5-6.4,6.8-16.5,6.8-30.1c0-13.7-2.3-23.8-6.9-30.3c-4.6-6.5-11.5-9.8-20.6-9.8C865.4,1412.5,856.1,1425.8,856.1,1452.6z"/>
		
			<linearGradient id="SVGID_6_" gradientUnits="userSpaceOnUse" x1="256.4678" y1="1573.916" x2="2883" y2="1573.916" gradientTransform="matrix(1 0 0 1 20 -6)">
			<stop  offset="0" style="stop-color:#422096"/>
			<stop  offset="0.103" style="stop-color:#3F2996"/>
			<stop  offset="0.2741" style="stop-color:#354396"/>
			<stop  offset="0.4911" style="stop-color:#266C96"/>
			<stop  offset="0.5666" style="stop-color:#207C96"/>
			<stop  offset="1" style="stop-color:#58DECC"/>
		</linearGradient>
		<path fill="url(#SVGID_6_)" d="M1033.1,1521.4l-28-98.8h-0.8c1.3,16.8,2,29.9,2,39.2v59.6h-32.8v-137.1h49.3l28.6,97.4h0.8
			l28-97.4h49.4v137.1h-34v-60.1c0-3.1,0-6.6,0.1-10.4c0.1-3.8,0.5-13.2,1.3-28h-0.8l-27.7,98.6H1033.1z"/>
		
			<linearGradient id="SVGID_7_" gradientUnits="userSpaceOnUse" x1="256.4678" y1="1573.916" x2="2883" y2="1573.916" gradientTransform="matrix(1 0 0 1 20 -6)">
			<stop  offset="0" style="stop-color:#422096"/>
			<stop  offset="0.103" style="stop-color:#3F2996"/>
			<stop  offset="0.2741" style="stop-color:#354396"/>
			<stop  offset="0.4911" style="stop-color:#266C96"/>
			<stop  offset="0.5666" style="stop-color:#207C96"/>
			<stop  offset="1" style="stop-color:#58DECC"/>
		</linearGradient>
		<path fill="url(#SVGID_7_)" d="M1238.6,1521.4h-81.4v-137.1h81.4v29.7h-44.4v21.6h41.1v29.7h-41.1v25.9h44.4V1521.4z"/>
		
			<linearGradient id="SVGID_8_" gradientUnits="userSpaceOnUse" x1="256.4678" y1="1573.916" x2="2883" y2="1573.916" gradientTransform="matrix(1 0 0 1 20 -6)">
			<stop  offset="0" style="stop-color:#422096"/>
			<stop  offset="0.103" style="stop-color:#3F2996"/>
			<stop  offset="0.2741" style="stop-color:#354396"/>
			<stop  offset="0.4911" style="stop-color:#266C96"/>
			<stop  offset="0.5666" style="stop-color:#207C96"/>
			<stop  offset="1" style="stop-color:#58DECC"/>
		</linearGradient>
		<path fill="url(#SVGID_8_)" d="M1369.1,1521.4h-37.1v-106.8h-33.5v-30.3h103.9v30.3h-33.4V1521.4z"/>
		
			<linearGradient id="SVGID_9_" gradientUnits="userSpaceOnUse" x1="256.4678" y1="1573.916" x2="2883" y2="1573.916" gradientTransform="matrix(1 0 0 1 20 -6)">
			<stop  offset="0" style="stop-color:#422096"/>
			<stop  offset="0.103" style="stop-color:#3F2996"/>
			<stop  offset="0.2741" style="stop-color:#354396"/>
			<stop  offset="0.4911" style="stop-color:#266C96"/>
			<stop  offset="0.5666" style="stop-color:#207C96"/>
			<stop  offset="1" style="stop-color:#58DECC"/>
		</linearGradient>
		<path fill="url(#SVGID_9_)" d="M1548.5,1452.6c0,23.1-5.7,40.6-17,52.6c-11.3,12-27.9,18-49.7,18c-21.5,0-38-6-49.5-18.1
			c-11.5-12.1-17.2-29.6-17.2-52.7c0-22.8,5.7-40.3,17.1-52.3c11.4-12,28-18.1,49.8-18.1c21.8,0,38.4,6,49.6,17.9
			C1542.9,1411.9,1548.5,1429.5,1548.5,1452.6z M1454.2,1452.6c0,26.5,9.2,39.8,27.7,39.8c9.4,0,16.3-3.2,20.9-9.7
			c4.5-6.4,6.8-16.5,6.8-30.1c0-13.7-2.3-23.8-6.9-30.3c-4.6-6.5-11.5-9.8-20.6-9.8C1463.5,1412.5,1454.2,1425.8,1454.2,1452.6z"/>
		
			<linearGradient id="SVGID_10_" gradientUnits="userSpaceOnUse" x1="256.4678" y1="1573.916" x2="2883" y2="1573.916" gradientTransform="matrix(1 0 0 1 20 -6)">
			<stop  offset="0" style="stop-color:#422096"/>
			<stop  offset="0.103" style="stop-color:#3F2996"/>
			<stop  offset="0.2741" style="stop-color:#354396"/>
			<stop  offset="0.4911" style="stop-color:#266C96"/>
			<stop  offset="0.5666" style="stop-color:#207C96"/>
			<stop  offset="1" style="stop-color:#58DECC"/>
		</linearGradient>
		<path fill="url(#SVGID_10_)" d="M1668.3,1435.1l23.6-50.8h40.1l-45.1,83.6v53.6h-37.3v-52.4l-45.1-84.7h40.3L1668.3,1435.1z"/>
		
			<linearGradient id="SVGID_11_" gradientUnits="userSpaceOnUse" x1="256.4678" y1="1573.916" x2="2883" y2="1573.916" gradientTransform="matrix(1 0 0 1 20 -6)">
			<stop  offset="0" style="stop-color:#422096"/>
			<stop  offset="0.103" style="stop-color:#3F2996"/>
			<stop  offset="0.2741" style="stop-color:#354396"/>
			<stop  offset="0.4911" style="stop-color:#266C96"/>
			<stop  offset="0.5666" style="stop-color:#207C96"/>
			<stop  offset="1" style="stop-color:#58DECC"/>
		</linearGradient>
		<path fill="url(#SVGID_11_)" d="M1873.3,1452.6c0,23.1-5.7,40.6-17,52.6c-11.3,12-27.9,18-49.7,18c-21.5,0-38-6-49.5-18.1
			c-11.5-12.1-17.2-29.6-17.2-52.7c0-22.8,5.7-40.3,17.1-52.3c11.4-12,28-18.1,49.8-18.1c21.8,0,38.4,6,49.6,17.9
			C1867.7,1411.9,1873.3,1429.5,1873.3,1452.6z M1779,1452.6c0,26.5,9.2,39.8,27.7,39.8c9.4,0,16.3-3.2,20.9-9.7
			c4.5-6.4,6.8-16.5,6.8-30.1c0-13.7-2.3-23.8-6.9-30.3c-4.6-6.5-11.5-9.8-20.6-9.8C1788.2,1412.5,1779,1425.8,1779,1452.6z"/>
		
			<linearGradient id="SVGID_12_" gradientUnits="userSpaceOnUse" x1="256.4678" y1="1573.916" x2="2883" y2="1573.916" gradientTransform="matrix(1 0 0 1 20 -6)">
			<stop  offset="0" style="stop-color:#422096"/>
			<stop  offset="0.103" style="stop-color:#3F2996"/>
			<stop  offset="0.2741" style="stop-color:#354396"/>
			<stop  offset="0.4911" style="stop-color:#266C96"/>
			<stop  offset="0.5666" style="stop-color:#207C96"/>
			<stop  offset="1" style="stop-color:#58DECC"/>
		</linearGradient>
		<path fill="url(#SVGID_12_)" d="M2012.7,1384.2v82.5c0,17.9-5.1,31.8-15.2,41.7c-10.2,9.8-24.8,14.8-43.9,14.8
			c-18.7,0-33.1-4.8-43.1-14.4c-10-9.6-15.1-23.3-15.1-41.3v-83.4h37.2v80.5c0,9.7,1.8,16.7,5.4,21.1c3.6,4.4,9,6.6,16,6.6
			c7.6,0,13.1-2.2,16.5-6.5c3.4-4.3,5.1-11.5,5.1-21.3v-80.3H2012.7z"/>
		
			<linearGradient id="SVGID_13_" gradientUnits="userSpaceOnUse" x1="256.4678" y1="1573.916" x2="2883" y2="1573.916" gradientTransform="matrix(1 0 0 1 20 -6)">
			<stop  offset="0" style="stop-color:#422096"/>
			<stop  offset="0.103" style="stop-color:#3F2996"/>
			<stop  offset="0.2741" style="stop-color:#354396"/>
			<stop  offset="0.4911" style="stop-color:#266C96"/>
			<stop  offset="0.5666" style="stop-color:#207C96"/>
			<stop  offset="1" style="stop-color:#58DECC"/>
		</linearGradient>
		<path fill="url(#SVGID_13_)" d="M2076.7,1471.5v49.9h-37.1v-137.1h44.9c37.3,0,55.9,13.5,55.9,40.5c0,15.9-7.8,28.2-23.3,36.9
			l40,59.7h-42l-29.1-49.9H2076.7z M2076.7,1443.6h6.9c12.9,0,19.4-5.7,19.4-17.2c0-9.4-6.3-14.2-19-14.2h-7.3V1443.6z"/>
		
			<linearGradient id="SVGID_14_" gradientUnits="userSpaceOnUse" x1="256.4678" y1="1573.916" x2="2883" y2="1573.916" gradientTransform="matrix(1 0 0 1 20 -6)">
			<stop  offset="0" style="stop-color:#422096"/>
			<stop  offset="0.103" style="stop-color:#3F2996"/>
			<stop  offset="0.2741" style="stop-color:#354396"/>
			<stop  offset="0.4911" style="stop-color:#266C96"/>
			<stop  offset="0.5666" style="stop-color:#207C96"/>
			<stop  offset="1" style="stop-color:#58DECC"/>
		</linearGradient>
		<path fill="url(#SVGID_14_)" d="M2332.1,1449.9c0,22.9-6.3,40.5-18.9,52.9c-12.6,12.4-30.3,18.6-53.1,18.6h-44.4v-137.1h47.5
			c22,0,39,5.6,51,16.9C2326.1,1412.4,2332.1,1428.6,2332.1,1449.9z M2293.6,1451.2c0-12.6-2.5-21.9-7.5-28
			c-5-6.1-12.5-9.1-22.7-9.1h-10.8v76.8h8.3c11.3,0,19.5-3.3,24.8-9.8C2291,1474.6,2293.6,1464.6,2293.6,1451.2z"/>
		
			<linearGradient id="SVGID_15_" gradientUnits="userSpaceOnUse" x1="256.4678" y1="1573.916" x2="2883" y2="1573.916" gradientTransform="matrix(1 0 0 1 20 -6)">
			<stop  offset="0" style="stop-color:#422096"/>
			<stop  offset="0.103" style="stop-color:#3F2996"/>
			<stop  offset="0.2741" style="stop-color:#354396"/>
			<stop  offset="0.4911" style="stop-color:#266C96"/>
			<stop  offset="0.5666" style="stop-color:#207C96"/>
			<stop  offset="1" style="stop-color:#58DECC"/>
		</linearGradient>
		<path fill="url(#SVGID_15_)" d="M2436.2,1521.4h-81.4v-137.1h81.4v29.7h-44.4v21.6h41.1v29.7h-41.1v25.9h44.4V1521.4z"/>
		
			<linearGradient id="SVGID_16_" gradientUnits="userSpaceOnUse" x1="256.4678" y1="1573.916" x2="2883" y2="1573.916" gradientTransform="matrix(1 0 0 1 20 -6)">
			<stop  offset="0" style="stop-color:#422096"/>
			<stop  offset="0.103" style="stop-color:#3F2996"/>
			<stop  offset="0.2741" style="stop-color:#354396"/>
			<stop  offset="0.4911" style="stop-color:#266C96"/>
			<stop  offset="0.5666" style="stop-color:#207C96"/>
			<stop  offset="1" style="stop-color:#58DECC"/>
		</linearGradient>
		<path fill="url(#SVGID_16_)" d="M2547.9,1479.7c0,8.5-2.2,16.1-6.5,22.7c-4.3,6.6-10.5,11.7-18.7,15.4c-8.1,3.7-17.7,5.5-28.6,5.5
			c-9.1,0-16.8-0.6-23-1.9s-12.6-3.5-19.3-6.7v-33c7.1,3.6,14.4,6.5,22,8.5c7.6,2,14.6,3,21,3c5.5,0,9.5-1,12.1-2.9
			c2.6-1.9,3.8-4.4,3.8-7.4c0-1.9-0.5-3.5-1.5-4.9c-1-1.4-2.7-2.8-5-4.3c-2.3-1.4-8.4-4.4-18.2-8.8c-8.9-4.1-15.6-8-20.1-11.8
			c-4.5-3.8-7.8-8.2-9.9-13.1c-2.2-4.9-3.2-10.8-3.2-17.5c0-12.6,4.6-22.5,13.8-29.5c9.2-7.1,21.8-10.6,37.9-10.6
			c14.2,0,28.7,3.3,43.4,9.8l-11.3,28.6c-12.8-5.9-23.9-8.8-33.2-8.8c-4.8,0-8.3,0.8-10.5,2.5c-2.2,1.7-3.3,3.8-3.3,6.3
			c0,2.7,1.4,5.1,4.2,7.2c2.8,2.1,10.3,6,22.7,11.6c11.8,5.3,20,11,24.6,17.1C2545.6,1462.8,2547.9,1470.5,2547.9,1479.7z"/>
		
			<linearGradient id="SVGID_17_" gradientUnits="userSpaceOnUse" x1="256.4678" y1="1573.916" x2="2883" y2="1573.916" gradientTransform="matrix(1 0 0 1 20 -6)">
			<stop  offset="0" style="stop-color:#422096"/>
			<stop  offset="0.103" style="stop-color:#3F2996"/>
			<stop  offset="0.2741" style="stop-color:#354396"/>
			<stop  offset="0.4911" style="stop-color:#266C96"/>
			<stop  offset="0.5666" style="stop-color:#207C96"/>
			<stop  offset="1" style="stop-color:#58DECC"/>
		</linearGradient>
		<path fill="url(#SVGID_17_)" d="M2567.2,1521.4v-137.1h37.2v137.1H2567.2z"/>
		
			<linearGradient id="SVGID_18_" gradientUnits="userSpaceOnUse" x1="256.4678" y1="1573.916" x2="2883" y2="1573.916" gradientTransform="matrix(1 0 0 1 20 -6)">
			<stop  offset="0" style="stop-color:#422096"/>
			<stop  offset="0.103" style="stop-color:#3F2996"/>
			<stop  offset="0.2741" style="stop-color:#354396"/>
			<stop  offset="0.4911" style="stop-color:#266C96"/>
			<stop  offset="0.5666" style="stop-color:#207C96"/>
			<stop  offset="1" style="stop-color:#58DECC"/>
		</linearGradient>
		<path fill="url(#SVGID_18_)" d="M2687.2,1441.1h59.2v73.9c-16.1,5.5-33.7,8.3-53,8.3c-21.1,0-37.5-6.1-49-18.4
			c-11.5-12.3-17.3-29.7-17.3-52.4c0-22.1,6.3-39.4,18.9-51.7c12.6-12.3,30.3-18.5,53.1-18.5c8.6,0,16.8,0.8,24.4,2.4
			c7.7,1.6,14.3,3.7,20,6.2l-11.7,29.1c-9.9-4.9-20.7-7.3-32.5-7.3c-10.8,0-19.2,3.5-25.1,10.6c-5.9,7-8.9,17.1-8.9,30.2
			c0,12.8,2.7,22.6,8,29.3c5.3,6.7,13.1,10.1,23.1,10.1c5.5,0,10.6-0.5,15.2-1.6v-21.5h-24.5V1441.1z"/>
		
			<linearGradient id="SVGID_19_" gradientUnits="userSpaceOnUse" x1="256.4678" y1="1573.916" x2="2883" y2="1573.916" gradientTransform="matrix(1 0 0 1 20 -6)">
			<stop  offset="0" style="stop-color:#422096"/>
			<stop  offset="0.103" style="stop-color:#3F2996"/>
			<stop  offset="0.2741" style="stop-color:#354396"/>
			<stop  offset="0.4911" style="stop-color:#266C96"/>
			<stop  offset="0.5666" style="stop-color:#207C96"/>
			<stop  offset="1" style="stop-color:#58DECC"/>
		</linearGradient>
		<path fill="url(#SVGID_19_)" d="M2903,1521.4h-48.6l-50.1-96.6h-0.8c1.2,15.2,1.8,26.8,1.8,34.8v61.8h-32.8v-137.1h48.4l49.9,95.3
			h0.6c-0.9-13.8-1.3-24.9-1.3-33.3v-62h33V1521.4z"/>
		
			<linearGradient id="SVGID_20_" gradientUnits="userSpaceOnUse" x1="256.4678" y1="1573.916" x2="2883" y2="1573.916" gradientTransform="matrix(1 0 0 1 20 -6)">
			<stop  offset="0" style="stop-color:#422096"/>
			<stop  offset="0.103" style="stop-color:#3F2996"/>
			<stop  offset="0.2741" style="stop-color:#354396"/>
			<stop  offset="0.4911" style="stop-color:#266C96"/>
			<stop  offset="0.5666" style="stop-color:#207C96"/>
			<stop  offset="1" style="stop-color:#58DECC"/>
		</linearGradient>
		<path fill="url(#SVGID_20_)" d="M404.8,1680.4c0,22.9-6.3,40.5-18.9,52.9c-12.6,12.4-30.3,18.6-53.1,18.6h-44.4v-137.1h47.5
			c22,0,39,5.6,51,16.9C398.8,1642.9,404.8,1659.1,404.8,1680.4z M366.3,1681.7c0-12.6-2.5-21.9-7.5-28c-5-6.1-12.5-9.1-22.7-9.1
			h-10.8v76.8h8.3c11.3,0,19.5-3.3,24.8-9.8C363.7,1705.2,366.3,1695.2,366.3,1681.7z"/>
		
			<linearGradient id="SVGID_21_" gradientUnits="userSpaceOnUse" x1="256.4678" y1="1573.916" x2="2883" y2="1573.916" gradientTransform="matrix(1 0 0 1 20 -6)">
			<stop  offset="0" style="stop-color:#422096"/>
			<stop  offset="0.103" style="stop-color:#3F2996"/>
			<stop  offset="0.2741" style="stop-color:#354396"/>
			<stop  offset="0.4911" style="stop-color:#266C96"/>
			<stop  offset="0.5666" style="stop-color:#207C96"/>
			<stop  offset="1" style="stop-color:#58DECC"/>
		</linearGradient>
		<path fill="url(#SVGID_21_)" d="M555.8,1683.1c0,23.1-5.7,40.6-17,52.6c-11.3,12-27.9,18-49.7,18c-21.5,0-38-6-49.5-18.1
			c-11.5-12.1-17.2-29.6-17.2-52.7c0-22.8,5.7-40.3,17.1-52.3c11.4-12,28-18.1,49.8-18.1c21.8,0,38.4,6,49.6,17.9
			C550.1,1642.5,555.8,1660,555.8,1683.1z M461.4,1683.1c0,26.5,9.2,39.8,27.7,39.8c9.4,0,16.3-3.2,20.9-9.7
			c4.5-6.4,6.8-16.5,6.8-30.1c0-13.7-2.3-23.8-6.9-30.3c-4.6-6.5-11.5-9.8-20.6-9.8C470.7,1643,461.4,1656.4,461.4,1683.1z"/>
		
			<linearGradient id="SVGID_22_" gradientUnits="userSpaceOnUse" x1="256.4678" y1="1573.916" x2="2883" y2="1573.916" gradientTransform="matrix(1 0 0 1 20 -6)">
			<stop  offset="0" style="stop-color:#422096"/>
			<stop  offset="0.103" style="stop-color:#3F2996"/>
			<stop  offset="0.2741" style="stop-color:#354396"/>
			<stop  offset="0.4911" style="stop-color:#266C96"/>
			<stop  offset="0.5666" style="stop-color:#207C96"/>
			<stop  offset="1" style="stop-color:#58DECC"/>
		</linearGradient>
		<path fill="url(#SVGID_22_)" d="M639.7,1643.2c-8.8,0-15.7,3.6-20.6,10.8c-4.9,7.2-7.4,17.2-7.4,29.9c0,26.4,10,39.6,30.1,39.6
			c6.1,0,11.9-0.8,17.6-2.5c5.7-1.7,11.4-3.7,17.2-6.1v31.3c-11.4,5.1-24.4,7.6-38.8,7.6c-20.7,0-36.6-6-47.6-18
			c-11-12-16.6-29.4-16.6-52.1c0-14.2,2.7-26.7,8-37.4c5.3-10.8,13-19,23.1-24.8c10-5.8,21.8-8.7,35.4-8.7c14.8,0,29,3.2,42.5,9.7
			l-11.3,29.2c-5.1-2.4-10.1-4.4-15.2-6C650.9,1644,645.5,1643.2,639.7,1643.2z"/>
		
			<linearGradient id="SVGID_23_" gradientUnits="userSpaceOnUse" x1="256.4678" y1="1573.916" x2="2883" y2="1573.916" gradientTransform="matrix(1 0 0 1 20 -6)">
			<stop  offset="0" style="stop-color:#422096"/>
			<stop  offset="0.103" style="stop-color:#3F2996"/>
			<stop  offset="0.2741" style="stop-color:#354396"/>
			<stop  offset="0.4911" style="stop-color:#266C96"/>
			<stop  offset="0.5666" style="stop-color:#207C96"/>
			<stop  offset="1" style="stop-color:#58DECC"/>
		</linearGradient>
		<path fill="url(#SVGID_23_)" d="M817.9,1614.7v82.5c0,17.9-5.1,31.8-15.2,41.7c-10.2,9.8-24.8,14.8-43.9,14.8
			c-18.7,0-33.1-4.8-43.1-14.4c-10-9.6-15.1-23.3-15.1-41.3v-83.4h37.2v80.5c0,9.7,1.8,16.7,5.4,21.1c3.6,4.4,9,6.6,16,6.6
			c7.6,0,13.1-2.2,16.5-6.5c3.4-4.3,5.1-11.5,5.1-21.3v-80.3H817.9z"/>
		
			<linearGradient id="SVGID_24_" gradientUnits="userSpaceOnUse" x1="256.4678" y1="1573.916" x2="2883" y2="1573.916" gradientTransform="matrix(1 0 0 1 20 -6)">
			<stop  offset="0" style="stop-color:#422096"/>
			<stop  offset="0.103" style="stop-color:#3F2996"/>
			<stop  offset="0.2741" style="stop-color:#354396"/>
			<stop  offset="0.4911" style="stop-color:#266C96"/>
			<stop  offset="0.5666" style="stop-color:#207C96"/>
			<stop  offset="1" style="stop-color:#58DECC"/>
		</linearGradient>
		<path fill="url(#SVGID_24_)" d="M904.5,1751.9l-28-98.8h-0.8c1.3,16.8,2,29.9,2,39.2v59.6h-32.8v-137.1h49.3l28.6,97.4h0.8
			l28-97.4h49.4v137.1h-34v-60.1c0-3.1,0-6.6,0.1-10.4c0.1-3.8,0.5-13.2,1.3-28h-0.8l-27.7,98.6H904.5z"/>
		
			<linearGradient id="SVGID_25_" gradientUnits="userSpaceOnUse" x1="256.4678" y1="1573.916" x2="2883" y2="1573.916" gradientTransform="matrix(1 0 0 1 20 -6)">
			<stop  offset="0" style="stop-color:#422096"/>
			<stop  offset="0.103" style="stop-color:#3F2996"/>
			<stop  offset="0.2741" style="stop-color:#354396"/>
			<stop  offset="0.4911" style="stop-color:#266C96"/>
			<stop  offset="0.5666" style="stop-color:#207C96"/>
			<stop  offset="1" style="stop-color:#58DECC"/>
		</linearGradient>
		<path fill="url(#SVGID_25_)" d="M1110,1751.9h-81.4v-137.1h81.4v29.7h-44.4v21.6h41.1v29.7h-41.1v25.9h44.4V1751.9z"/>
		
			<linearGradient id="SVGID_26_" gradientUnits="userSpaceOnUse" x1="256.4678" y1="1573.916" x2="2883" y2="1573.916" gradientTransform="matrix(1 0 0 1 20 -6)">
			<stop  offset="0" style="stop-color:#422096"/>
			<stop  offset="0.103" style="stop-color:#3F2996"/>
			<stop  offset="0.2741" style="stop-color:#354396"/>
			<stop  offset="0.4911" style="stop-color:#266C96"/>
			<stop  offset="0.5666" style="stop-color:#207C96"/>
			<stop  offset="1" style="stop-color:#58DECC"/>
		</linearGradient>
		<path fill="url(#SVGID_26_)" d="M1262.7,1751.9h-48.6l-50.1-96.6h-0.8c1.2,15.2,1.8,26.8,1.8,34.8v61.8h-32.8v-137.1h48.4
			l49.9,95.3h0.6c-0.9-13.8-1.3-24.9-1.3-33.3v-62h33V1751.9z"/>
		
			<linearGradient id="SVGID_27_" gradientUnits="userSpaceOnUse" x1="256.4678" y1="1573.916" x2="2883" y2="1573.916" gradientTransform="matrix(1 0 0 1 20 -6)">
			<stop  offset="0" style="stop-color:#422096"/>
			<stop  offset="0.103" style="stop-color:#3F2996"/>
			<stop  offset="0.2741" style="stop-color:#354396"/>
			<stop  offset="0.4911" style="stop-color:#266C96"/>
			<stop  offset="0.5666" style="stop-color:#207C96"/>
			<stop  offset="1" style="stop-color:#58DECC"/>
		</linearGradient>
		<path fill="url(#SVGID_27_)" d="M1350.9,1751.9h-37.1V1645h-33.5v-30.3h103.9v30.3h-33.4V1751.9z"/>
		
			<linearGradient id="SVGID_28_" gradientUnits="userSpaceOnUse" x1="256.4678" y1="1573.916" x2="2883" y2="1573.916" gradientTransform="matrix(1 0 0 1 20 -6)">
			<stop  offset="0" style="stop-color:#422096"/>
			<stop  offset="0.103" style="stop-color:#3F2996"/>
			<stop  offset="0.2741" style="stop-color:#354396"/>
			<stop  offset="0.4911" style="stop-color:#266C96"/>
			<stop  offset="0.5666" style="stop-color:#207C96"/>
			<stop  offset="1" style="stop-color:#58DECC"/>
		</linearGradient>
		<path fill="url(#SVGID_28_)" d="M1486.1,1751.9l-6.8-25.7h-44.6l-6.9,25.7h-40.7l44.7-137.7h49.4l45.3,137.7H1486.1z
			 M1471.7,1695.8l-5.9-22.5c-1.4-5-3-11.5-5-19.4c-2-7.9-3.3-13.6-3.9-17.1c-0.6,3.2-1.7,8.4-3.3,15.8c-1.7,7.3-5.3,21.7-11,43.2
			H1471.7z"/>
		
			<linearGradient id="SVGID_29_" gradientUnits="userSpaceOnUse" x1="256.4678" y1="1573.916" x2="2883" y2="1573.916" gradientTransform="matrix(1 0 0 1 20 -6)">
			<stop  offset="0" style="stop-color:#422096"/>
			<stop  offset="0.103" style="stop-color:#3F2996"/>
			<stop  offset="0.2741" style="stop-color:#354396"/>
			<stop  offset="0.4911" style="stop-color:#266C96"/>
			<stop  offset="0.5666" style="stop-color:#207C96"/>
			<stop  offset="1" style="stop-color:#58DECC"/>
		</linearGradient>
		<path fill="url(#SVGID_29_)" d="M1600,1751.9H1563V1645h-33.5v-30.3h103.9v30.3H1600V1751.9z"/>
		
			<linearGradient id="SVGID_30_" gradientUnits="userSpaceOnUse" x1="256.4678" y1="1573.916" x2="2883" y2="1573.916" gradientTransform="matrix(1 0 0 1 20 -6)">
			<stop  offset="0" style="stop-color:#422096"/>
			<stop  offset="0.103" style="stop-color:#3F2996"/>
			<stop  offset="0.2741" style="stop-color:#354396"/>
			<stop  offset="0.4911" style="stop-color:#266C96"/>
			<stop  offset="0.5666" style="stop-color:#207C96"/>
			<stop  offset="1" style="stop-color:#58DECC"/>
		</linearGradient>
		<path fill="url(#SVGID_30_)" d="M1651.1,1751.9v-137.1h37.2v137.1H1651.1z"/>
		
			<linearGradient id="SVGID_31_" gradientUnits="userSpaceOnUse" x1="256.4678" y1="1573.916" x2="2883" y2="1573.916" gradientTransform="matrix(1 0 0 1 20 -6)">
			<stop  offset="0" style="stop-color:#422096"/>
			<stop  offset="0.103" style="stop-color:#3F2996"/>
			<stop  offset="0.2741" style="stop-color:#354396"/>
			<stop  offset="0.4911" style="stop-color:#266C96"/>
			<stop  offset="0.5666" style="stop-color:#207C96"/>
			<stop  offset="1" style="stop-color:#58DECC"/>
		</linearGradient>
		<path fill="url(#SVGID_31_)" d="M1844.4,1683.1c0,23.1-5.7,40.6-17,52.6c-11.3,12-27.9,18-49.7,18c-21.5,0-38-6-49.5-18.1
			c-11.5-12.1-17.2-29.6-17.2-52.7c0-22.8,5.7-40.3,17.1-52.3c11.4-12,28-18.1,49.8-18.1c21.8,0,38.4,6,49.6,17.9
			C1838.7,1642.5,1844.4,1660,1844.4,1683.1z M1750,1683.1c0,26.5,9.2,39.8,27.7,39.8c9.4,0,16.3-3.2,20.9-9.7
			c4.5-6.4,6.8-16.5,6.8-30.1c0-13.7-2.3-23.8-6.9-30.3c-4.6-6.5-11.5-9.8-20.6-9.8C1759.3,1643,1750,1656.4,1750,1683.1z"/>
		
			<linearGradient id="SVGID_32_" gradientUnits="userSpaceOnUse" x1="256.4678" y1="1573.916" x2="2883" y2="1573.916" gradientTransform="matrix(1 0 0 1 20 -6)">
			<stop  offset="0" style="stop-color:#422096"/>
			<stop  offset="0.103" style="stop-color:#3F2996"/>
			<stop  offset="0.2741" style="stop-color:#354396"/>
			<stop  offset="0.4911" style="stop-color:#266C96"/>
			<stop  offset="0.5666" style="stop-color:#207C96"/>
			<stop  offset="1" style="stop-color:#58DECC"/>
		</linearGradient>
		<path fill="url(#SVGID_32_)" d="M1997.8,1751.9h-48.6l-50.1-96.6h-0.8c1.2,15.2,1.8,26.8,1.8,34.8v61.8h-32.8v-137.1h48.4
			l49.9,95.3h0.6c-0.9-13.8-1.3-24.9-1.3-33.3v-62h33V1751.9z"/>
	</g>
</g>
</svg>
