<?xml version="1.0" encoding="UTF-8"?>
<svg width="15px" height="18px" viewBox="0 0 15 18" version="1.1" xmlns="http://www.w3.org/2000/svg" xmlns:xlink="http://www.w3.org/1999/xlink">
    <!-- Generator: Sketch 64 (93537) - https://sketch.com -->
    <title>Icon - End event</title>
    <desc>Created with Sketch.</desc>
    <g id="Page-1" stroke="none" stroke-width="1" fill="none" fill-rule="evenodd">
        <g id="Config-/-Package-creation-int-logic-/-FILTER" transform="translate(-851.000000, -431.000000)" fill="#031739">
            <g id="Integration-logic---Content" transform="translate(182.000000, 302.000000)">
                <g id="top---transformation-engine" transform="translate(75.773438, 0.210938)">
                    <g id="Icon---End-event" transform="translate(594.000000, 129.000000)">
                        <path d="M8.48547648,16.4669282 C8.27955648,16.4669282 8.11107648,16.2994803 8.11107648,16.0931606 L8.11107648,11.6079498 C8.11107648,11.4016301 8.27955648,11.2341823 8.48547648,11.2341823 L12.9782765,11.2341823 C13.1856941,11.2341823 13.3526765,11.4016301 13.3526765,11.6079498 C13.3526765,11.8142695 13.1856941,11.9817174 12.9782765,11.9817174 L8.85987648,11.9817174 L8.85987648,16.0931606 C8.85987648,16.2994803 8.69289408,16.4669282 8.48547648,16.4669282" id="Fill-1"></path>
                        <path d="M1.4976,15.3456255 L8.1753984,15.3456255 L12.2294016,11.2984703 L12.2294016,1.49529453 L1.4976,1.49529453 L1.4976,15.3456255 Z M8.4854016,16.8406958 L0.7488,16.8406958 C0.3347136,16.8406958 0,16.5065476 0,16.0931606 L0,0.747759396 C0,0.334372466 0.3347136,0.000224260541 0.7488,0.000224260541 L12.9782016,0.000224260541 C13.392288,0.000224260541 13.7270016,0.334372466 13.7270016,0.747759396 L13.7270016,11.6079498 C13.7270016,11.8067942 13.6483776,11.9966681 13.5076032,12.1364572 L9.0148032,16.621668 C8.8747776,16.7622046 8.6845824,16.8406958 8.4854016,16.8406958 L8.4854016,16.8406958 Z" id="Fill-3"></path>
                        <path d="M6.35461632,8.90912374 C6.18314112,8.90912374 6.01690752,8.85006846 5.88212352,8.74092834 L4.00413312,7.21446159 C3.68439552,6.95431936 3.63572352,6.48337223 3.89630592,6.16267965 C4.15613952,5.84348215 4.62863232,5.79489237 4.95061632,6.05578213 L6.24529152,7.1083116 L9.20380032,3.45510739 C9.46363392,3.13441482 9.93313152,3.0828349 10.2566131,3.34447219 C10.5785971,3.60311935 10.6280179,4.07406649 10.3674355,4.39550659 L6.93643392,8.63178821 C6.81213312,8.78578044 6.63092352,8.88445508 6.43249152,8.90463853 C6.40703232,8.90762867 6.38082432,8.90912374 6.35461632,8.90912374" id="Fill-5"></path>
                    </g>
                </g>
            </g>
        </g>
    </g>
</svg>