<?xml version="1.0" encoding="UTF-8"?>
<svg width="16px" height="19px" viewBox="0 0 16 19" version="1.1" xmlns="http://www.w3.org/2000/svg" xmlns:xlink="http://www.w3.org/1999/xlink">
    <!-- Generator: Sketch 64 (93537) - https://sketch.com -->
    <title>icon - target file</title>
    <desc>Created with Sketch.</desc>
    <g id="Page-1" stroke="none" stroke-width="1" fill="none" fill-rule="evenodd">
        <g id="Config-/-Package-creation-int-logic-/-Mapping" transform="translate(-781.000000, -738.000000)" fill="#F2EEE8">
            <g id="Integration-logic-mapping---Content" transform="translate(180.000000, 291.000000)">
                <g id="Bottom-mapping---edit" transform="translate(20.500000, 322.000000)">
                    <g id="icon---target-file" transform="translate(581.000000, 125.000000)">
                        <path d="M9.0656,17.62264 C8.844,17.62264 8.6656,17.44344 8.6656,17.22264 L8.6656,12.42264 C8.6656,12.20184 8.844,12.02264 9.0656,12.02264 L13.8656,12.02264 C14.0856,12.02264 14.2656,12.20184 14.2656,12.42264 C14.2656,12.64344 14.0856,12.82264 13.8656,12.82264 L9.4656,12.82264 L9.4656,17.22264 C9.4656,17.44344 9.2856,17.62264 9.0656,17.62264" id="Fill-1"></path>
                        <path d="M1.6,16.42264 L8.7344,16.42264 L13.0656,12.09144 L13.0656,1.60024 L1.6,1.60024 L1.6,16.42264 Z M9.0656,18.02264 L0.8,18.02264 C0.3576,18.02264 0,17.66504 0,17.22264 L0,0.80024 C0,0.35784 0.3576,0.00024 0.8,0.00024 L13.8656,0.00024 C14.308,0.00024 14.6656,0.35784 14.6656,0.80024 L14.6656,12.42264 C14.6656,12.63544 14.5816,12.83864 14.4312,12.98824 L9.6312,17.78824 C9.4816,17.93864 9.2784,18.02264 9.0656,18.02264 L9.0656,18.02264 Z" id="Fill-3"></path>
                        <path d="M7.3328,10.78832 C7.128,10.78832 6.9232,10.70992 6.7672,10.55392 L4.4144,8.20272 C4.1016,7.89072 4.1016,7.38352 4.4144,7.07152 C4.7264,6.75872 5.2328,6.75872 5.5456,7.07152 L7.3328,8.85712 L9.12,7.07152 C9.4328,6.75872 9.9392,6.75872 10.2512,7.07152 C10.564,7.38352 10.564,7.88992 10.2512,8.20272 L7.8984,10.55392 C7.7424,10.70992 7.5376,10.78832 7.3328,10.78832" id="Fill-5"></path>
                        <path d="M7.3328,10.1492 C6.892,10.1492 6.5328,9.7916 6.5328,9.3492 L6.5328,3.9004 C6.5328,3.4596 6.8904,3.1004 7.3328,3.1004 C7.7736,3.1004 8.1328,3.4588 8.1328,3.9004 L8.1328,9.3492 C8.1328,9.7908 7.7752,10.1492 7.3328,10.1492" id="Fill-7"></path>
                    </g>
                </g>
            </g>
        </g>
    </g>
</svg>