<?xml version="1.0" encoding="UTF-8"?>
<svg width="13px" height="13px" viewBox="0 0 13 13" version="1.1" xmlns="http://www.w3.org/2000/svg" xmlns:xlink="http://www.w3.org/1999/xlink">
    <!-- Generator: Sketch 64 (93537) - https://sketch.com -->
    <title>icon - sender</title>
    <desc>Created with Sketch.</desc>
    <defs>
        <polygon id="path-1" points="0 0.358972601 12.12042 0.358972601 12.12042 12.4589189 0 12.4589189"></polygon>
        <polygon id="path-3" points="0.278512 0.207648649 11.320192 0.207648649 11.320192 11.2305733 0.278512 11.2305733"></polygon>
    </defs>
    <g id="Page-1" stroke="none" stroke-width="1" fill="none" fill-rule="evenodd">
        <g id="Config-/-Package-creation-int-logic-/-FILTER" transform="translate(-334.000000, -382.000000)">
            <g id="Integration-logic---Content" transform="translate(182.000000, 302.000000)">
                <g id="top---transformation-engine" transform="translate(75.773438, 0.210938)">
                    <g id="Sender" transform="translate(0.000000, 71.000000)">
                        <g id="icon---sender" transform="translate(76.700000, 9.084628)">
                            <g id="Group-3" transform="translate(0.000000, 0.311733)">
                                <mask id="mask-2" fill="white">
                                    <use xlink:href="#path-1"></use>
                                </mask>
                                <g id="Clip-2"></g>
                                <path d="M0.52,12.4589189 C0.38688,12.4589189 0.25376,12.408045 0.15236,12.3068163 C-0.05096,12.1038397 -0.05096,11.7757549 0.15236,11.5727783 L11.23304,0.510815676 C11.43584,0.308358243 11.765,0.308358243 11.96832,0.510815676 C12.17112,0.71379223 12.17112,1.04239622 11.96832,1.24485365 L0.88764,12.3068163 C0.78624,12.408045 0.65312,12.4589189 0.52,12.4589189" id="Fill-1" fill="#FFFFFF" mask="url(#mask-2)"></path>
                            </g>
                            <g id="Group-6" transform="translate(1.040000, 0.311733)">
                                <mask id="mask-4" fill="white">
                                    <use xlink:href="#path-3"></use>
                                </mask>
                                <g id="Clip-5"></g>
                                <path d="M10.800192,11.2305733 C10.512632,11.2305733 10.280192,10.9980069 10.280192,10.7114517 L10.280192,1.24578807 L0.798512,1.24578807 C0.510952,1.24578807 0.278512,1.01322158 0.278512,0.726666446 C0.278512,0.439592189 0.510952,0.207544824 0.798512,0.207544824 L10.800192,0.207544824 C11.087752,0.207544824 11.320192,0.439592189 11.320192,0.726666446 L11.320192,10.7114517 C11.320192,10.9980069 11.087752,11.2305733 10.800192,11.2305733" id="Fill-4" fill="#FFFFFF" mask="url(#mask-4)"></path>
                            </g>
                        </g>
                    </g>
                </g>
            </g>
        </g>
    </g>
</svg>