<?xml version="1.0" encoding="UTF-8"?>
<svg width="16px" height="17px" viewBox="0 0 16 17" version="1.1" xmlns="http://www.w3.org/2000/svg" xmlns:xlink="http://www.w3.org/1999/xlink">
    <!-- Generator: Sketch 64 (93537) - https://sketch.com -->
    <title>Icon - connector</title>
    <desc>Created with Sketch.</desc>
    <defs>
        <polygon id="path-1" points="0 0.301020397 7.108584 0.301020397 7.108584 7.83258278 0 7.83258278"></polygon>
    </defs>
    <g id="Symbols" stroke="none" stroke-width="1" fill="none" fill-rule="evenodd">
        <g id="Integration-logic---on-click-task-condition" transform="translate(-13.000000, -70.000000)">
            <g id="Conector">
                <g>
                    <g transform="translate(13.200000, 70.569536)">
                        <g id="Icon---connector">
                            <path d="M6.9798624,13.9559536 C6.6082464,13.9559536 6.3078624,13.6376659 6.3078624,13.2439006 L6.3065184,9.73703968 L2.9962464,9.73561558 C2.6253024,9.73561558 2.3242464,9.41661584 2.3242464,9.0235626 C2.3242464,8.63050935 2.6259744,8.31150962 2.9962464,8.31150962 L6.9785184,8.31293372 C7.3501344,8.31293372 7.6505184,8.6312214 7.6505184,9.0249867 L7.6518624,13.2439006 C7.6518624,13.6369539 7.3514784,13.9559536 6.9798624,13.9559536" id="Fill-1" fill="#031739"></path>
                            <g id="Group-5" transform="translate(0.000000, 8.586362)">
                                <mask id="mask-2" fill="white">
                                    <use xlink:href="#path-1"></use>
                                </mask>
                                <g id="Clip-4"></g>
                                <path d="M0.672,7.83258278 C0.499968,7.83258278 0.327936,7.76280159 0.196896,7.62395126 C-0.065856,7.34553854 -0.065856,6.89552106 0.196896,6.61710834 L5.961312,0.509829934 C6.224064,0.231417219 6.64944,0.231417219 6.91152,0.509829934 C7.174272,0.787530596 7.174272,1.23826013 6.91152,1.51667285 L1.147104,7.62395126 C1.016064,7.76280159 0.844032,7.83258278 0.672,7.83258278" id="Fill-3" fill="#031739" mask="url(#mask-2)"></path>
                            </g>
                            <path d="M12.4989312,8.10650956 L12.4989312,8.10650956 L8.5166592,8.10579751 C8.1450432,8.10579751 7.8446592,7.78750983 7.8446592,7.39374453 L7.8433152,3.17411857 C7.8433152,2.78106532 8.1443712,2.46206559 8.5153152,2.46206559 C8.8869312,2.46206559 9.1873152,2.78106532 9.1873152,3.17411857 L9.1886592,6.68169155 L12.4989312,6.6824036 C12.8705472,6.6824036 13.1709312,7.00140334 13.1709312,7.39445658 C13.1709312,7.78822188 12.8692032,8.10650956 12.4989312,8.10650956" id="Fill-6" fill="#031739"></path>
                            <path d="M9.058896,7.53216763 C8.886864,7.53216763 8.714832,7.46238644 8.583792,7.32353611 C8.32104,7.04512339 8.32104,6.59510591 8.583792,6.31669319 L14.346864,0.208702728 C14.609616,-0.0697099868 15.034992,-0.0697099868 15.297072,0.208702728 C15.559824,0.486403391 15.559824,0.937132927 15.297072,1.21554564 L9.534,7.32353611 C9.40296,7.46238644 9.230928,7.53216763 9.058896,7.53216763" id="Fill-8" fill="#031739"></path>
                        </g>
                    </g>
                </g>
            </g>
        </g>
    </g>
</svg>