<?xml version="1.0" encoding="utf-8"?>
<!-- Generator: Adobe Illustrator 22.0.0, SVG Export Plug-In . SVG Version: 6.00 Build 0)  -->
<svg version="1.1" id="Layer_1" xmlns="http://www.w3.org/2000/svg" xmlns:xlink="http://www.w3.org/1999/xlink" x="0px" y="0px"
	 viewBox="0 0 22.9 20.3" style="enable-background:new 0 0 22.9 20.3;" xml:space="preserve">
<style type="text/css">
	.st0{fill:#00227D;}
</style>
<g>
	<g>
		<g>
			<path class="st0" d="M14.7,12.7H8.2c-0.5,0-0.8-0.4-0.8-0.8c0-0.5,0.4-0.8,0.8-0.8h6.5c0.5,0,0.8,0.4,0.8,0.8
				C15.5,12.4,15.1,12.7,14.7,12.7L14.7,12.7z"/>
		</g>
		<g>
			<path class="st0" d="M14.7,9.5H8.2c-0.5,0-0.8-0.4-0.8-0.8c0-0.5,0.4-0.8,0.8-0.8h6.5c0.5,0,0.8,0.4,0.8,0.8
				C15.5,9.1,15.1,9.5,14.7,9.5L14.7,9.5z"/>
		</g>
	</g>
	<g>
		<path class="st0" d="M20.4,20H2.5c-0.5,0-0.8-0.4-0.8-0.8V1.3c0-0.5,0.4-0.8,0.8-0.8h17.9c0.5,0,0.8,0.4,0.8,0.8v17.9
			C21.2,19.7,20.9,20,20.4,20L20.4,20z M3.3,18.4h16.3V2.1H3.3V18.4L3.3,18.4z"/>
	</g>
</g>
</svg>
