<?xml version="1.0" encoding="UTF-8"?>
<svg width="51px" height="58px" viewBox="0 0 51 58" version="1.1" xmlns="http://www.w3.org/2000/svg" xmlns:xlink="http://www.w3.org/1999/xlink">
    <title>icon - user profile</title>
    <defs>
        <polygon id="path-1" points="13.4890409 12.9466495 35.1272344 12.9466495 35.1272344 39.2125784 13.4890409 39.2125784"></polygon>
    </defs>
    <g id="Symbols" stroke="none" stroke-width="1" fill="none" fill-rule="evenodd">
        <g id="Header---Packages" transform="translate(-986.000000, -9.000000)">
            <g id="icon---user-profile" transform="translate(986.092145, 9.143416)">
                <mask id="mask-2" fill="white">
                    <use xlink:href="#path-1"></use>
                </mask>
                <g id="Clip-2"></g>
                <path d="M20.7598997,22.7377519 C20.8049716,22.7465878 20.8500435,22.7598418 20.8951153,22.7764091 C21.2489776,22.9111572 21.5011883,23.2701171 21.5443422,23.6953466 C21.6028398,24.2575332 21.6584604,24.8141972 21.7112041,25.3763838 C21.7284657,25.4470713 21.8665582,25.6867461 22.1475382,25.8921816 C22.3872823,26.0677959 22.5464723,26.3516504 22.5838724,26.6741621 L22.80156,28.4656484 C22.8389601,28.7594434 22.7718317,29.0598652 22.6145597,29.2951221 C22.4572876,29.5314834 22.2223384,29.6850078 21.9662918,29.7203516 C19.8306518,30.015251 17.7909094,30.6900957 15.9036443,31.7250049 C15.6226643,31.8939922 15.3810023,32.4804776 15.4107305,32.8107208 C15.4836127,33.7208223 15.5641667,34.6187745 15.6447207,35.5178311 C15.674449,35.8480743 15.9669367,36.2125567 16.1731166,36.2578409 C21.5107781,37.2441524 27.0795528,37.2496749 32.46804,36.2523184 C32.6531224,36.2125567 32.9456101,35.8558057 32.9753384,35.5178311 L33.2074106,32.8162432 C33.2361799,32.4826866 32.9926,31.8939922 32.6799737,31.7062286 C30.8253138,30.6889912 28.7855714,30.015251 26.6508904,29.7203516 C26.3938848,29.6850078 26.1618126,29.5314834 26.0045405,29.2951221 C25.8472684,29.0609697 25.7791811,28.7616524 25.8146632,28.4667529 L26.0400226,26.6653262 C26.0812586,26.3483369 26.2385307,26.0677959 26.4725209,25.8954951 C26.749665,25.691164 26.8829627,25.4559072 26.9011832,25.3808017 L27.0737989,23.6931377 C27.1188708,23.2679082 27.3720405,22.9111572 27.7259027,22.7764091 C27.7690567,22.7598418 27.8131696,22.7465878 27.8582414,22.7377519 L27.9694827,21.5106611 C27.916739,21.4830488 27.8639953,21.449914 27.8150875,21.4112568 C27.5216408,21.1793134 27.3643687,20.7772783 27.4056047,20.3675117 L27.4180714,20.2581669 C27.4650612,19.8075341 27.512051,19.3591103 27.555205,18.907373 L27.5724665,18.6820566 C27.6434308,17.8238661 27.6693231,16.856331 27.0776348,16.2477558 C26.4590952,15.5508212 25.4349086,15.155413 24.3090706,15.155413 C23.1832325,15.155413 22.1628819,15.5497167 21.5769474,16.212412 C20.950736,16.8585399 20.9775873,17.8271796 21.0485515,18.6864745 L21.2115775,20.3752431 C21.2528135,20.7850097 21.0917055,21.1870449 20.7953818,21.4167792 C20.748392,21.4532275 20.7004432,21.4841533 20.6496174,21.5106611 L20.7598997,22.7377519 Z M24.3071526,39.2123575 C21.4868037,39.2123575 18.6376854,38.9505929 15.8432288,38.4336905 C14.7643806,38.2006427 13.8504763,37.0221495 13.7382761,35.744252 C13.6558041,34.8407774 13.5752501,33.9350938 13.50045,33.0238877 C13.3911267,31.781334 14.0691228,30.3388672 15.0453606,29.7490684 C16.8626205,28.7517119 18.776737,28.0636133 20.7714074,27.6847725 L20.7397612,27.4362617 C20.2017756,26.9116279 19.8536672,26.2400967 19.8028415,25.5961777 C19.7836619,25.3841152 19.7616055,25.1709482 19.741467,24.9555722 C19.2936251,24.7346738 18.9675732,24.2475927 18.9148295,23.6566894 L18.6827573,21.0898495 C18.6434393,20.675665 18.7460497,20.2625849 18.977163,19.9323417 C19.0462093,19.8340419 19.1248453,19.7456825 19.2111532,19.6705771 L19.138271,18.896328 C19.0663478,18.0315107 18.8985269,16.0047675 20.2669859,14.5998534 C21.1828082,13.5616307 22.6682623,12.9464286 24.3090706,12.9464286 C25.9498788,12.9464286 27.4372509,13.5616307 28.3866373,14.6340927 C29.7205732,16.003663 29.5537113,18.0270927 29.4827471,18.8919101 L29.4654855,19.1039726 C29.447265,19.2994677 29.4280855,19.4872314 29.4098649,19.6694726 C29.4932958,19.7434736 29.5709729,19.829624 29.6381012,19.9268193 C29.8682555,20.2559579 29.9727839,20.6701425 29.9334659,21.093163 L29.7033116,23.6566894 C29.6563218,24.2464883 29.3293109,24.7368828 28.8757152,24.9577812 L28.8066689,25.625999 C28.7654329,26.2367832 28.4202015,26.9083144 27.8812569,27.4362617 L27.8515286,27.685877 C29.8423632,28.0636133 31.7488078,28.7495029 33.5353805,29.730292 C34.5413465,30.3344492 35.2212606,31.7758116 35.1167322,33.0283057 L34.88466,35.7431475 C34.7657469,37.0265675 33.8499247,38.2028517 32.7960098,38.4292726 C29.9785378,38.9505929 27.1303785,39.2123575 24.3071526,39.2123575 L24.3071526,39.2123575 Z" id="Fill-1" fill="#103068" mask="url(#mask-2)"></path>
            </g>
        </g>
    </g>
</svg>