<?xml version="1.0" encoding="utf-8"?>
<!-- Generator: Adobe Illustrator 22.0.0, SVG Export Plug-In . SVG Version: 6.00 Build 0)  -->
<svg version="1.1" id="Layer_1" xmlns="http://www.w3.org/2000/svg" xmlns:xlink="http://www.w3.org/1999/xlink" x="0px" y="0px"
	 viewBox="0 0 22.9 16.6" style="enable-background:new 0 0 22.9 16.6;" xml:space="preserve">
<style type="text/css">
	.st0{fill:#103068;}
</style>
<g>
	<g>
		<path class="st0" d="M20.5,16.6H2.4c-1.3,0-2.4-1.1-2.4-2.4V2.4C0,1.1,1.1,0,2.4,0h18.2c1.3,0,2.4,1.1,2.4,2.4v11.9
			C22.9,15.5,21.8,16.6,20.5,16.6L20.5,16.6z M2.4,2C2.2,2,2,2.2,2,2.4v11.9c0,0.2,0.2,0.4,0.4,0.4h18.2c0.2,0,0.4-0.2,0.4-0.4V2.4
			c0-0.2-0.2-0.4-0.4-0.4H2.4L2.4,2z"/>
	</g>
	<g>
		<path class="st0" d="M20.5,16.1H2.4c-0.8,0-1.5-0.5-1.7-1.2c-0.1-0.2,0-0.4,0.1-0.6L7.8,8c0.2-0.2,0.5-0.2,0.7,0
			c0.2,0.2,0.2,0.5,0,0.7l-6.8,6c0.2,0.2,0.4,0.3,0.6,0.3h18.2c0.2,0,0.5-0.1,0.6-0.3l-6.9-6.1c-0.2-0.2-0.2-0.5,0-0.7
			c0.2-0.2,0.5-0.2,0.7,0l7.2,6.4c0.2,0.1,0.2,0.4,0.1,0.5C22,15.6,21.3,16.1,20.5,16.1L20.5,16.1z"/>
	</g>
	<g>
		<path class="st0" d="M11.4,11.6c-0.1,0-0.2,0-0.3-0.1L0.8,2.3C0.6,2.1,0.6,1.9,0.6,1.7c0.3-0.7,1-1.2,1.7-1.2h18.2
			c0.8,0,1.5,0.5,1.7,1.2c0.1,0.2,0,0.4-0.1,0.5l-10.3,9.2C11.7,11.6,11.6,11.6,11.4,11.6L11.4,11.6z M1.7,1.8l9.7,8.7l9.7-8.7
			c-0.2-0.2-0.4-0.3-0.6-0.3H2.4C2.1,1.5,1.9,1.6,1.7,1.8L1.7,1.8z"/>
	</g>
</g>
</svg>
