<?xml version="1.0" encoding="UTF-8"?>
<svg width="16px" height="19px" viewBox="0 0 16 19" version="1.1" xmlns="http://www.w3.org/2000/svg" xmlns:xlink="http://www.w3.org/1999/xlink">
    <!-- Generator: Sketch 64 (93537) - https://sketch.com -->
    <title>icon - source file</title>
    <desc>Created with Sketch.</desc>
    <g id="Page-1" stroke="none" stroke-width="1" fill="none" fill-rule="evenodd">
        <g id="Config-/-Package-creation-int-logic-/-Mapping" transform="translate(-271.000000, -737.000000)" fill="#F2EEE8">
            <g id="Integration-logic-mapping---Content" transform="translate(180.000000, 291.000000)">
                <g id="Bottom-mapping---edit" transform="translate(20.500000, 322.000000)">
                    <g id="icon---source-file" transform="translate(71.000000, 124.000000)">
                        <path d="M9.0656,17.62264 C8.8456,17.62264 8.6656,17.44344 8.6656,17.22264 L8.6656,12.42264 C8.6656,12.20184 8.8456,12.02264 9.0656,12.02264 L13.8656,12.02264 C14.0872,12.02264 14.2656,12.20184 14.2656,12.42264 C14.2656,12.64344 14.0872,12.82264 13.8656,12.82264 L9.4656,12.82264 L9.4656,17.22264 C9.4656,17.44344 9.2872,17.62264 9.0656,17.62264" id="Fill-1"></path>
                        <path d="M1.6,16.42264 L8.7344,16.42264 L13.0656,12.09144 L13.0656,1.60024 L1.6,1.60024 L1.6,16.42264 Z M9.0656,18.02264 L0.8,18.02264 C0.3576,18.02264 0,17.66504 0,17.22264 L0,0.80024 C0,0.35784 0.3576,0.00024 0.8,0.00024 L13.8656,0.00024 C14.308,0.00024 14.6656,0.35784 14.6656,0.80024 L14.6656,12.42264 C14.6656,12.63544 14.5816,12.83864 14.4312,12.98824 L9.6312,17.78824 C9.4816,17.93864 9.2784,18.02264 9.0656,18.02264 L9.0656,18.02264 Z" id="Fill-3"></path>
                        <path d="M9.68592,7.05232 C9.48112,7.05232 9.27632,6.97392 9.12032,6.81792 L7.33312,5.03232 L5.54512,6.81792 C5.23312,7.13072 4.72672,7.13072 4.41392,6.81792 C4.10192,6.50512 4.10192,5.99872 4.41392,5.68672 L6.76752,3.33552 C7.07952,3.02272 7.58592,3.02272 7.89872,3.33552 L10.25152,5.68672 C10.56432,5.99872 10.56432,6.50512 10.25152,6.81792 C10.09552,6.97392 9.89072,7.05232 9.68592,7.05232" id="Fill-5"></path>
                        <path d="M7.3328,10.78832 C6.8904,10.78832 6.5328,10.43072 6.5328,9.98832 L6.5328,4.53952 C6.5328,4.09792 6.8904,3.73952 7.3328,3.73952 C7.7752,3.73952 8.1328,4.09792 8.1328,4.53952 L8.1328,9.98832 C8.1328,10.43072 7.7752,10.78832 7.3328,10.78832" id="Fill-7"></path>
                    </g>
                </g>
            </g>
        </g>
    </g>
</svg>