<?xml version="1.0" encoding="UTF-8"?>
<svg width="15px" height="16px" viewBox="0 0 15 16" version="1.1" xmlns="http://www.w3.org/2000/svg" xmlns:xlink="http://www.w3.org/1999/xlink">
    <!-- Generator: Sketch 64 (93537) - https://sketch.com -->
    <title>icon - process</title>
    <desc>Created with Sketch.</desc>
    <defs>
        <polygon id="path-1" points="0 0.000331125828 14.856875 0.000331125828 14.856875 15.742053 0 15.742053"></polygon>
    </defs>
    <g id="Symbols" stroke="none" stroke-width="1" fill="none" fill-rule="evenodd">
        <g id="Integration-logic---on-click-task-condition" transform="translate(-13.000000, -36.000000)">
            <g id="process">
                <g>
                    <g transform="translate(12.200000, 35.602649)">
                        <g id="icon---process" transform="translate(0.800000, 0.423841)">
                            <mask id="mask-2" fill="white">
                                <use xlink:href="#path-1"></use>
                            </mask>
                            <g id="Clip-2"></g>
                            <path d="M1.25,14.4175497 L13.606875,14.4175497 L13.606875,1.32417219 L1.25,1.32417219 L1.25,14.4175497 Z M14.231875,15.742053 L0.625,15.742053 C0.279375,15.742053 0,15.4453642 0,15.0798013 L0,0.66192053 C0,0.296357616 0.279375,-0.000331125828 0.625,-0.000331125828 L14.231875,-0.000331125828 C14.5775,-0.000331125828 14.856875,0.296357616 14.856875,0.66192053 L14.856875,15.0798013 C14.856875,15.4453642 14.5775,15.742053 14.231875,15.742053 L14.231875,15.742053 Z" id="Fill-1" fill="#142747" mask="url(#mask-2)"></path>
                            <path d="M14.0088125,4.85337748 L0.8481875,4.85337748 C0.6763125,4.85337748 0.5356875,4.70503311 0.5356875,4.52225166 C0.5356875,4.3394702 0.6763125,4.19112583 0.8481875,4.19112583 L14.0088125,4.19112583 C14.1819375,4.19112583 14.3213125,4.3394702 14.3213125,4.52225166 C14.3213125,4.70503311 14.1819375,4.85337748 14.0088125,4.85337748" id="Fill-3" fill="#142747" mask="url(#mask-2)"></path>
                            <path d="M2.8405625,1.94403974 C2.4061875,1.94403974 2.0530625,2.31754967 2.0530625,2.77847682 C2.0530625,3.23940397 2.4061875,3.61291391 2.8405625,3.61291391 C3.2749375,3.61291391 3.6280625,3.23940397 3.6280625,2.77847682 C3.6280625,2.31754967 3.2749375,1.94403974 2.8405625,1.94403974" id="Fill-4" fill="#142747" mask="url(#mask-2)"></path>
                            <path d="M4.973125,1.94403974 C4.53875,1.94403974 4.185625,2.31754967 4.185625,2.77847682 C4.185625,3.23940397 4.53875,3.61291391 4.973125,3.61291391 C5.4075,3.61291391 5.760625,3.23940397 5.760625,2.77847682 C5.760625,2.31754967 5.4075,1.94403974 4.973125,1.94403974" id="Fill-5" fill="#142747" mask="url(#mask-2)"></path>
                            <path d="M7.1056875,1.94403974 C6.6713125,1.94403974 6.3181875,2.31754967 6.3181875,2.77847682 C6.3181875,3.23940397 6.6713125,3.61291391 7.1056875,3.61291391 C7.5413125,3.61291391 7.8944375,3.23940397 7.8944375,2.77847682 C7.8944375,2.31754967 7.5413125,1.94403974 7.1056875,1.94403974" id="Fill-6" fill="#142747" mask="url(#mask-2)"></path>
                            <path d="M9.421375,10.2331788 L5.437,10.2331788 C5.091375,10.2331788 4.812,9.93649007 4.812,9.57092715 C4.812,9.20536424 5.091375,8.9086755 5.437,8.9086755 L9.421375,8.9086755 C9.767,8.9086755 10.046375,9.20536424 10.046375,9.57092715 C10.046375,9.93649007 9.767,10.2331788 9.421375,10.2331788" id="Fill-7" fill="#142747" mask="url(#mask-2)"></path>
                            <path d="M7.4291875,12.344106 C7.0835625,12.344106 6.8041875,12.0474172 6.8041875,11.6818543 L6.8041875,7.46 C6.8041875,7.09443709 7.0835625,6.79774834 7.4291875,6.79774834 C7.7748125,6.79774834 8.0541875,7.09443709 8.0541875,7.46 L8.0541875,11.6818543 C8.0541875,12.0474172 7.7748125,12.344106 7.4291875,12.344106" id="Fill-8" fill="#142747" mask="url(#mask-2)"></path>
                        </g>
                    </g>
                </g>
            </g>
        </g>
    </g>
</svg>