<?xml version="1.0" encoding="UTF-8"?>
<svg width="14px" height="15px" viewBox="0 0 14 15" version="1.1" xmlns="http://www.w3.org/2000/svg" xmlns:xlink="http://www.w3.org/1999/xlink">
    <!-- Generator: Sketch 64 (93537) - https://sketch.com -->
    <title>icon - multicast</title>
    <desc>Created with Sketch.</desc>
    <defs>
        <polygon id="path-1" points="0.116928 0.0937536424 4.648448 0.0937536424 4.648448 4.89589828 0.116928 4.89589828"></polygon>
    </defs>
    <g id="Symbols" stroke="none" stroke-width="1" fill="none" fill-rule="evenodd">
        <g id="Integration-logic---on-click-task-condition" transform="translate(-36.000000, -251.000000)">
            <g id="icon---multicast">
                <g>
                    <g transform="translate(36.000000, 251.125828)">
                        <path d="M0.56,5.3965902 L0.56,5.3965902 C0.25032,5.3965902 0,5.13075709 0,4.80321272 L0.00112,1.18895046 C0.00112,0.860812715 0.25144,0.59557298 0.56112,0.59557298 L3.97264,0.594386225 C4.2812,0.594386225 4.53264,0.85962596 4.53264,1.18776371 C4.53264,1.51530808 4.28176,1.78114119 3.97264,1.78114119 L1.12112,1.78232795 L1.12,4.80321272 C1.12,5.13135046 0.86968,5.3965902 0.56,5.3965902" id="Fill-1" fill="#031739"></path>
                        <path d="M6.804224,8.39706278 C6.660864,8.39706278 6.517504,8.33891179 6.408304,8.22320318 L0.630224,2.10132768 C0.411264,1.86931709 0.411264,1.49370914 0.630224,1.26229192 C0.848624,1.03028132 1.203104,1.03028132 1.422064,1.26229192 L7.200144,7.38416742 C7.419104,7.61617801 7.419104,7.99119258 7.200144,8.22320318 C7.090944,8.33891179 6.947584,8.39706278 6.804224,8.39706278" id="Fill-3" fill="#031739"></path>
                        <g id="Group-7" transform="translate(8.960000, 0.499505)">
                            <mask id="mask-2" fill="white">
                                <use xlink:href="#path-1"></use>
                            </mask>
                            <g id="Clip-6"></g>
                            <path d="M4.088448,4.89589828 C3.779888,4.89589828 3.528448,4.63065854 3.528448,4.30252079 L3.527328,1.28163603 L0.676928,1.28044927 C0.367248,1.28044927 0.116928,1.01461616 0.116928,0.687071788 C0.116928,0.35893404 0.367248,0.0936943046 0.676928,0.0936943046 L4.087328,0.0948810596 C4.397008,0.0948810596 4.647328,0.360120795 4.647328,0.688258543 L4.648448,4.30252079 C4.648448,4.63006517 4.398128,4.89589828 4.088448,4.89589828" id="Fill-5" fill="#031739" mask="url(#mask-2)"></path>
                        </g>
                        <path d="M6.818448,8.38199099 C6.675088,8.38199099 6.531728,8.32384 6.422528,8.20813139 C6.203568,7.97612079 6.203568,7.60110623 6.422528,7.36909563 L12.187728,1.26146119 C12.406688,1.0294506 12.760608,1.0294506 12.979568,1.26146119 C13.198528,1.49347179 13.198528,1.86848636 12.979568,2.10049695 L7.214368,8.20813139 C7.105168,8.32384 6.961808,8.38199099 6.818448,8.38199099" id="Fill-8" fill="#031739"></path>
                        <path d="M6.7298,14.7405648 C6.42012,14.7405648 6.1698,14.475325 6.1698,14.1471873 L6.1698,7.76897272 C6.1698,7.44083497 6.42012,7.17559523 6.7298,7.17559523 C7.03948,7.17559523 7.2898,7.44083497 7.2898,7.76897272 L7.2898,14.1471873 C7.2898,14.475325 7.03948,14.7405648 6.7298,14.7405648" id="Fill-10" fill="#031739"></path>
                    </g>
                </g>
            </g>
        </g>
    </g>
</svg>