<?xml version="1.0" encoding="UTF-8"?>
<svg width="104px" height="35px" viewBox="0 0 104 35" version="1.1" xmlns="http://www.w3.org/2000/svg" xmlns:xlink="http://www.w3.org/1999/xlink">
    <!-- Generator: Sketch 64 (93537) - https://sketch.com -->
    <title>GDPR compliant - sidebar full</title>
    <desc>Created with Sketch.</desc>
    <defs>
        <filter x="-12.4%" y="-42.9%" width="124.7%" height="185.7%" filterUnits="objectBoundingBox" id="filter-1">
            <feOffset dx="0" dy="2" in="SourceAlpha" result="shadowOffsetOuter1"></feOffset>
            <feGaussianBlur stdDeviation="2" in="shadowOffsetOuter1" result="shadowBlurOuter1"></feGaussianBlur>
            <feColorMatrix values="0 0 0 0 0.847058824   0 0 0 0 0.866666667   0 0 0 0 0.890196078  0 0 0 1 0" type="matrix" in="shadowBlurOuter1" result="shadowMatrixOuter1"></feColorMatrix>
            <feMerge>
                <feMergeNode in="shadowMatrixOuter1"></feMergeNode>
                <feMergeNode in="SourceGraphic"></feMergeNode>
            </feMerge>
        </filter>
    </defs>
    <g id="Page-1" stroke="none" stroke-width="1" fill="none" fill-rule="evenodd">
        <g id="Artboard" transform="translate(-159.000000, -40.000000)">
            <g id="GDPR-compliant---sidebar-full" filter="url(#filter-1)" transform="translate(163.000000, 41.000000)">
                <g id="Group" fill="#DEA85A" fill-rule="nonzero">
                    <polygon id="Shape" points="14.0000393 0 14.4535908 1.46796068 15.9215686 1.46796068 14.7340281 2.37517657 15.1875797 3.84313725 14.0000393 2.93534337 12.8127343 3.84313725 13.2663644 2.37517657 12.0784314 1.46796068 13.5464092 1.46796068"></polygon>
                    <polygon id="Shape" points="14.0000393 24.1568627 14.4535908 25.6252632 15.9215686 25.6252632 14.7340281 26.5323426 15.1875797 28 14.0000393 27.0930031 12.8127343 28 13.2663644 26.5323426 12.0784314 25.6252632 13.5464092 25.6252632"></polygon>
                    <polygon id="Shape" points="20.0392157 2.19607843 20.4925966 3.66402247 21.9607843 3.66402247 20.7729955 4.57160186 21.2266904 6.03921569 20.0392157 5.1316363 18.8515054 6.03921569 19.3051218 4.57160186 18.1176471 3.66402247 19.5858348 3.66402247"></polygon>
                    <polygon id="Shape" points="24.9805492 6.35947712 25.433893 7.82731166 26.9019608 7.82731166 25.714269 8.73477984 26.1679269 10.2026144 24.9805492 9.29547645 23.7928574 10.2026144 24.2465153 8.73477984 23.0588235 7.82731166 24.5265772 7.82731166"></polygon>
                    <polygon id="Shape" points="24.9805884 18.1176471 25.4339416 19.5860911 26.9019608 19.5860911 25.7143233 20.4932485 26.168226 21.9607843 24.9805884 21.0539572 23.7928724 21.9607843 24.2465396 20.4932485 23.0588235 19.5860911 24.5269213 19.5860911"></polygon>
                    <polygon id="Shape" points="3.0197649 6.35947712 3.47318285 7.82731166 4.94117647 7.82731166 3.75360465 8.73477984 4.2070226 10.2026144 3.0197649 9.29547645 1.8319575 10.2026144 2.28561103 8.73477984 1.09803922 7.82731166 2.56634695 7.82731166"></polygon>
                    <polygon id="Shape" points="26.0785491 12.0784314 26.5319023 13.5462659 28 13.5462659 26.8123625 14.4534038 27.2659511 15.9215686 26.0785491 15.014761 24.8909116 15.9215686 25.3448143 14.4534038 24.1568627 13.5462659 25.6246464 13.5462659"></polygon>
                    <polygon id="Shape" points="1.92184346 12.0784314 2.37523362 13.5462659 3.84313725 13.5462659 2.65540266 14.4534038 3.10934248 15.9215686 1.92184346 15.014761 0.734030343 15.9215686 1.18773459 14.4534038 0 13.5462659 1.46813921 13.5462659"></polygon>
                    <polygon id="Shape" points="3.01988267 18.1176471 3.47327283 19.5860911 4.94117647 19.5860911 3.75375597 20.4932485 4.20706761 21.9607843 3.01988267 21.0539572 1.83214808 21.9607843 2.28577381 20.4932485 1.09803922 19.5860911 2.56625695 19.5860911"></polygon>
                    <polygon id="Shape" points="21.1373727 23.0588235 21.5907258 24.5265635 23.0588235 24.5265635 21.8708719 25.4342208 22.3247747 26.9019608 21.1373727 25.9948813 19.9494211 26.9019608 20.4034023 25.4342208 19.2156863 24.5265635 20.683784 24.5265635"></polygon>
                    <polygon id="Shape" points="7.96082358 2.19607843 8.41413521 3.66402247 9.88235294 3.66402247 8.69461835 4.57160186 9.14855817 6.03921569 7.96082358 5.1316363 6.77332455 6.03921569 7.22695028 4.57160186 6.03921569 3.66402247 7.50711933 3.66402247"></polygon>
                    <polygon id="Shape" points="6.86262732 23.0588235 7.31621598 24.5273186 8.78431373 24.5273186 7.5966762 25.4341262 8.05026485 26.9019608 6.86262732 25.9954008 5.67522534 26.9019608 6.128814 25.4341262 4.94117647 24.5273186 6.40896015 24.5273186"></polygon>
                </g>
                <path d="M17.1428571,13.1363636 L16.7142857,13.1363636 L16.7142857,11.8068182 C16.7142857,10.259375 15.4964286,9 14,9 C12.5035714,9 11.2857143,10.259375 11.2857143,11.8068182 L11.2857143,13.1363636 L10.8571429,13.1363636 C10.3839286,13.1363636 10,13.5333807 10,14.0227273 L10,17.5681818 C10,18.0575284 10.3839286,18.4545455 10.8571429,18.4545455 L17.1428571,18.4545455 C17.6160714,18.4545455 18,18.0575284 18,17.5681818 L18,14.0227273 C18,13.5333807 17.6160714,13.1363636 17.1428571,13.1363636 Z M15.2857143,13.1363636 L12.7142857,13.1363636 L12.7142857,11.8068182 C12.7142857,11.0737216 13.2910714,10.4772727 14,10.4772727 C14.7089286,10.4772727 15.2857143,11.0737216 15.2857143,11.8068182 L15.2857143,13.1363636 Z" id="Shape" fill="#2263A1" fill-rule="nonzero"></path>
                <text id="GDPR-COMPLIANT" font-family="Raleway-Bold, Raleway" font-size="10" font-weight="bold" letter-spacing="0.250000004" fill="#2263A1">
                    <tspan x="36" y="13">GDPR</tspan>
                    <tspan x="64.29" y="13" font-family="HelveticaNeue-Medium, Helvetica Neue" font-weight="400"></tspan>
                    <tspan x="36" y="24" font-family="Raleway-Regular, Raleway" font-weight="normal">COMPLIANT</tspan>
                </text>
            </g>
        </g>
    </g>
</svg>