<?xml version="1.0" encoding="utf-8"?>
<!-- Generator: Adobe Illustrator 22.0.0, SVG Export Plug-In . SVG Version: 6.00 Build 0)  -->
<svg version="1.1" id="Layer_1" xmlns="http://www.w3.org/2000/svg" xmlns:xlink="http://www.w3.org/1999/xlink" x="0px" y="0px"
	 viewBox="0 0 22.9 16.6" style="enable-background:new 0 0 22.9 16.6;" xml:space="preserve">
<style type="text/css">
	.st0{fill:#00227D;}
</style>
<g>
	<g>
		<path class="st0" d="M15.2,10.9c-0.2,0-0.3-0.1-0.4-0.2l-1.6-1.6c-0.2-0.2-0.2-0.6,0-0.8c0.2-0.2,0.6-0.2,0.8,0l1.1,1.1l3-3.7
			c0.2-0.3,0.6-0.3,0.8-0.1c0.3,0.2,0.3,0.6,0.1,0.8l-3.4,4.2C15.6,10.8,15.4,10.9,15.2,10.9C15.2,10.9,15.2,10.9,15.2,10.9
			L15.2,10.9z"/>
	</g>
	<g>
		<path class="st0" d="M15.9,15.5c-1.9,0-3.7-0.7-5-2.1c-2.8-2.8-2.8-7.2,0-10c1.3-1.3,3.1-2.1,5-2.1c1.9,0,3.7,0.7,5,2.1
			c2.8,2.8,2.8,7.2,0,10C19.6,14.8,17.8,15.5,15.9,15.5L15.9,15.5z M15.9,2.6c-1.6,0-3,0.6-4.1,1.7c-2.3,2.3-2.3,6,0,8.3
			c1.1,1.1,2.6,1.7,4.1,1.7c1.6,0,3-0.6,4.1-1.7c2.3-2.3,2.3-6,0-8.3C19,3.2,17.5,2.6,15.9,2.6L15.9,2.6z"/>
	</g>
</g>
<g>
	<path class="st0" d="M10.7,11.7H3.6c-0.7,0-1.3-0.2-1.3-0.4V5.6c0-0.2,0.6-0.4,1.3-0.4h6.6c0.1-0.3,0.2-0.5,0.3-0.8H3.6
		C1.6,4.4,0,4.9,0,5.6v5.7c0,0.6,1.6,1.2,3.6,1.2h7.5C10.9,12.2,10.8,12,10.7,11.7z"/>
</g>
</svg>
