<?xml version="1.0" encoding="UTF-8"?>
<svg width="9px" height="10px" viewBox="0 0 9 10" version="1.1" xmlns="http://www.w3.org/2000/svg" xmlns:xlink="http://www.w3.org/1999/xlink">
    <!-- Generator: Sketch 64 (93537) - https://sketch.com -->
    <title>icon - pen</title>
    <desc>Created with Sketch.</desc>
    <g id="Page-1" stroke="none" stroke-width="1" fill="none" fill-rule="evenodd">
        <g id="Config-/-Package-creation-int-logic-/-Mapping" transform="translate(-593.000000, -1029.000000)" fill="#031739">
            <g id="Integration-logic-mapping---Content" transform="translate(180.000000, 291.000000)">
                <g id="Bottom-mapping---edit" transform="translate(20.500000, 322.000000)">
                    <g id="icon---pen" transform="translate(393.000000, 416.000000)">
                        <path d="M0.778600308,7.54148033 C1.4931623,7.54947049 2.19035525,7.56475602 2.85593657,7.61373919 L7.57162885,2.8981542 C7.38300116,2.41214393 7.09189617,1.96573707 6.72332531,1.59680004 C6.35440706,1.22751561 5.90802293,0.9367432 5.42203741,0.748105904 L0.705997752,5.46369089 C0.754978424,6.12617952 0.770610553,6.82479757 0.778600308,7.54148033 M2.98898336,8.32 C2.97960408,8.32 2.97022481,8.3196526 2.96049815,8.3189578 C2.16534385,8.25329952 1.31044008,8.24079318 0.431219661,8.23280302 C0.241897209,8.23106603 0.0887023439,8.07786336 0.0873128214,7.88853127 C0.0789756858,7.0068343 0.0668173632,6.15015 0.00116242106,5.35981879 C-0.00717471445,5.25803108 0.0296476341,5.15798036 0.101555428,5.08572151 L5.08542556,0.101597604 C5.17852357,0.00918964716 5.31504417,-0.0231183979 5.4383643,0.0168324105 C6.10464038,0.232914174 6.71950412,0.609493969 7.21452154,1.10557879 C7.70988634,1.60096882 8.08644696,2.21482167 8.30286511,2.88113168 C8.34350864,3.00550028 8.31050748,3.14168043 8.21810423,3.23443578 L3.23458148,8.21821229 C3.16892653,8.28387057 3.08069185,8.32 2.98898336,8.32" id="Fill-1"></path>
                        <path d="M8.12082565,4.16 C8.06946435,4.16 8.01889935,4.14048756 7.97988068,4.10186088 L5.25852799,1.38007403 C5.18049067,1.30202425 5.18049067,1.1761889 5.25852799,1.09853733 C5.33616717,1.02048756 5.46198245,1.02048756 5.54001978,1.09853733 L8.26177062,3.81992597 C8.33940979,3.89797575 8.33940979,4.0238111 8.26177062,4.10186088 C8.22275195,4.14048756 8.17139065,4.16 8.12082565,4.16" id="Fill-3"></path>
                        <path d="M3.96032544,8.32 C3.87623631,8.32 3.79852361,8.26659457 3.77102527,8.1821024 C3.37249859,6.95616881 2.40368025,5.98690012 1.17781219,5.58875068 C1.0733982,5.55487411 1.01561184,5.44248357 1.04988513,5.338064 C1.08336137,5.23324588 1.19614442,5.17585497 1.30055841,5.20973155 C2.64718004,5.64693869 3.71284037,6.71225744 4.15042266,8.05934962 C4.1838989,8.16376919 4.12690959,8.27615972 4.02169855,8.31043485 C4.00177221,8.31681162 3.9806503,8.32 3.96032544,8.32" id="Fill-5"></path>
                        <path d="M0.501147638,8.87388665 L1.62520709,8.91141584 C1.5975477,8.28666525 1.0955978,7.77980047 0.461245568,7.72637657 L0.501147638,8.87388665 Z M1.83333266,9.36 C1.83151893,9.36 1.82879833,9.36 1.8269846,9.36 L0.274431331,9.30790066 C0.154725121,9.3043685 0.059957705,9.21120781 0.0558768115,9.09508809 L0.000104599959,7.5201868 C-0.00352286095,7.402301 0.0876170944,7.30251751 0.20823017,7.29236256 C0.278058792,7.28397368 0.312519671,7.28 0.349701145,7.28 C1.30372336,7.28 2.08,8.03588198 2.08,8.96528126 C2.08,9.02665252 2.07229165,9.08537466 2.06322299,9.14453831 C2.04644599,9.25359372 1.94578395,9.36 1.83333266,9.36 L1.83333266,9.36 Z" id="Fill-7"></path>
                    </g>
                </g>
            </g>
        </g>
    </g>
</svg>