<?xml version="1.0" encoding="UTF-8"?>
<svg width="19px" height="17px" viewBox="0 0 19 17" version="1.1" xmlns="http://www.w3.org/2000/svg" xmlns:xlink="http://www.w3.org/1999/xlink">
    <!-- Generator: Sketch 64 (93537) - https://sketch.com -->
    <title>icon - notif error</title>
    <desc>Created with Sketch.</desc>
    <defs>
        <polygon id="path-1" points="0.000166607997 0.24017556 17.7044322 0.24017556 17.7044322 15.7012277 0.000166607997 15.7012277"></polygon>
    </defs>
    <g id="Page-1" stroke="none" stroke-width="1" fill="none" fill-rule="evenodd">
        <g id="Config-/-Package-creation-int-logic-/-FILTER" transform="translate(-366.000000, -453.000000)">
            <g id="Integration-logic---Content" transform="translate(182.000000, 302.000000)">
                <g id="top---transformation-engine" transform="translate(75.773438, 0.210938)">
                    <g id="channel-missing" transform="translate(109.000000, 151.000000)">
                        <g id="icon---notif-error">
                            <path d="M8.77297735,12.7639006 C8.58837569,12.7639006 8.42643272,12.704023 8.28714843,12.5836026 C8.14919701,12.4645128 8.08055451,12.2968556 8.08055451,12.0819617 C8.08055451,11.89368 8.14719771,11.7340065 8.27848481,11.6016106 C8.41110478,11.4705452 8.57238132,11.4040146 8.7636473,11.4040146 C8.95491328,11.4040146 9.11952198,11.4705452 9.25347481,11.6016106 C9.38876051,11.7340065 9.45607014,11.89368 9.45607014,12.0819617 C9.45607014,12.2941944 9.38876051,12.4605209 9.25214195,12.582272 C9.11552339,12.7033577 8.95491328,12.7639006 8.77297735,12.7639006 M8.2678219,9.77135303 L8.1218733,7.59314034 C8.09454959,7.16867495 8.08055451,6.86396468 8.08055451,6.67900954 C8.08055451,6.42752377 8.14719771,6.23125843 8.27848481,6.08954819 C8.41110478,5.94916857 8.58570996,5.8779808 8.80030106,5.8779808 C9.06220883,5.8779808 9.23614758,5.96846245 9.32478304,6.14942576 C9.41208563,6.32905845 9.45607014,6.58919319 9.45607014,6.92849939 C9.45607014,7.12875657 9.44607366,7.33234029 9.42541427,7.53858523 L9.22881683,9.78066732 C9.20749101,10.0474551 9.16217363,10.2523695 9.09219827,10.3940797 C9.02288935,10.5364552 8.90693018,10.6083083 8.74565364,10.6083083 C8.58171137,10.6083083 8.46841793,10.5391165 8.40444046,10.4007328 C8.34112942,10.2630144 8.29514561,10.0534429 8.2678219,9.77135303" id="Fill-1" fill="#FDB281"></path>
                            <g id="Group-5" transform="translate(0.000000, 0.158875)">
                                <mask id="mask-2" fill="white">
                                    <use xlink:href="#path-1"></use>
                                </mask>
                                <g id="Clip-4"></g>
                                <path d="M1.82102541,14.3706152 L15.8840732,14.3706152 L8.85254933,2.21280862 L1.82102541,14.3706152 Z M17.0383335,15.7012277 L0.666765205,15.7012277 C0.428182553,15.7012277 0.208259997,15.5748195 0.0896351026,15.3685746 C-0.0296562235,15.1623297 -0.0296562235,14.9095133 0.0896351026,14.7032683 L8.27475279,0.54954297 C8.51266902,0.137053089 9.19109678,0.137053089 9.429013,0.54954297 L17.6147971,14.7032683 C17.7347549,14.9095133 17.7347549,15.1623297 17.6147971,15.3685746 C17.4961722,15.5748195 17.2762497,15.7012277 17.0383335,15.7012277 L17.0383335,15.7012277 Z" id="Fill-3" fill="#FDB281" mask="url(#mask-2)"></path>
                            </g>
                        </g>
                    </g>
                </g>
            </g>
        </g>
    </g>
</svg>