<?xml version="1.0" encoding="UTF-8"?>
<svg width="19px" height="21px" viewBox="0 0 19 21" version="1.1" xmlns="http://www.w3.org/2000/svg" xmlns:xlink="http://www.w3.org/1999/xlink">
    <!-- Generator: Sketch 64 (93537) - https://sketch.com -->
    <title>icon - packages active</title>
    <desc>Created with Sketch.</desc>
    <defs>
        <polygon id="path-1" points="0.000413043478 0.6947625 18.876087 0.6947625 18.876087 20.25 0.000413043478 20.25"></polygon>
        <polygon id="path-3" points="0.000479627614 0.727395618 18.876087 0.727395618 18.876087 6.741825 0.000479627614 6.741825"></polygon>
    </defs>
    <g id="Page-1" stroke="none" stroke-width="1" fill="none" fill-rule="evenodd">
        <g id="Artboard" transform="translate(-52.000000, -228.000000)">
            <g id="icon---packages-active" transform="translate(52.000000, 228.000000)">
                <g id="Group-3" transform="translate(0.000000, 0.055275)">
                    <mask id="mask-2" fill="white">
                        <use xlink:href="#path-1"></use>
                    </mask>
                    <g id="Clip-2"></g>
                    <path d="M1.65258696,14.553825 L9.43928261,18.633825 L17.2243261,14.553825 L17.2243261,6.390075 L9.43928261,2.310075 L1.65258696,6.390075 L1.65258696,14.553825 Z M9.43928261,20.250075 C9.29719565,20.250075 9.1551087,20.216325 9.02623913,20.149575 L0.413456522,15.636075 C0.158195652,15.502575 0.000413043478,15.255075 0.000413043478,14.986575 L0.000413043478,5.957325 C0.000413043478,5.689575 0.158195652,5.442075 0.413456522,5.307825 L9.02623913,0.794325 C9.28067391,0.661575 9.59706522,0.661575 9.85232609,0.794325 L18.4634565,5.307825 C18.7195435,5.442075 18.8765,5.689575 18.8765,5.957325 L18.8765,14.986575 C18.8765,15.255075 18.7195435,15.502575 18.4634565,15.636075 L9.85232609,20.149575 C9.72428261,20.216325 9.58302174,20.250075 9.43928261,20.250075 L9.43928261,20.250075 Z" id="Fill-1" fill="#243E8A" mask="url(#mask-2)"></path>
                </g>
                <g id="Group-6" transform="translate(0.000000, 4.555275)">
                    <mask id="mask-4" fill="white">
                        <use xlink:href="#path-3"></use>
                    </mask>
                    <g id="Clip-5"></g>
                    <path d="M9.43911739,6.741825 C9.29703043,6.741825 9.1532913,6.708075 9.02607391,6.641325 L0.413291304,2.127825 C0.0184217391,1.920075 -0.117056522,1.461825 0.111769565,1.102575 C0.338943478,0.744075 0.84616087,0.621075 1.23937826,0.828075 L9.43911739,5.126325 L17.6372043,0.828075 C18.0304217,0.621075 18.5376391,0.743325 18.7664652,1.102575 C18.9936391,1.461825 18.8581609,1.920075 18.4632913,2.127825 L9.85216087,6.641325 C9.72494348,6.708075 9.58285652,6.741825 9.43911739,6.741825" id="Fill-4" fill="#243E8A" mask="url(#mask-4)"></path>
                </g>
                <path d="M9.43911739,20.3052 C8.9822913,20.3052 8.61303043,19.96995 8.61303043,19.5552 L8.61303043,10.6902 C8.61303043,10.27545 8.9822913,9.9402 9.43911739,9.9402 C9.89594348,9.9402 10.2652043,10.27545 10.2652043,10.6902 L10.2652043,19.5552 C10.2652043,19.96995 9.89594348,20.3052 9.43911739,20.3052" id="Fill-7" fill="#243E8A"></path>
            </g>
        </g>
    </g>
</svg>