<?xml version="1.0" encoding="UTF-8"?>
<svg width="21px" height="19px" viewBox="0 0 21 19" version="1.1" xmlns="http://www.w3.org/2000/svg" xmlns:xlink="http://www.w3.org/1999/xlink">
    <!-- Generator: Sketch 64 (93537) - https://sketch.com -->
    <title>icon - support inactive</title>
    <desc>Created with Sketch.</desc>
    <defs>
        <polygon id="path-1" points="0 0.791 4.7406625 0.791 4.7406625 9.125 0 9.125"></polygon>
        <polygon id="path-3" points="0.6559875 0.8125 3.4454875 0.8125 3.4454875 4 0.6559875 4"></polygon>
    </defs>
    <g id="Page-1" stroke="none" stroke-width="1" fill="none" fill-rule="evenodd">
        <g id="Artboard" transform="translate(-77.000000, -270.000000)">
            <g id="icon---support-inactive" transform="translate(77.000000, 270.000000)">
                <path d="M16.6984125,14.75 C16.2145375,14.75 15.8234125,14.303 15.8234125,13.75 L15.8234125,8.25 C15.8234125,4.804 13.3690375,2 10.3546625,2 C7.3385375,2 4.8859125,4.804 4.8859125,8.25 L4.8859125,13.75 C4.8859125,14.303 4.4947875,14.75 4.0109125,14.75 C3.5270375,14.75 3.1359125,14.303 3.1359125,13.75 L3.1359125,8.25 C3.1359125,3.701 6.3742875,0 10.3546625,0 C14.3350375,0 17.5734125,3.701 17.5734125,8.25 L17.5734125,13.75 C17.5734125,14.303 17.1822875,14.75 16.6984125,14.75" id="Fill-1" fill="#B7CDCD"></path>
                <path d="M16.8436625,14.75 C16.3597875,14.75 15.9686625,14.303 15.9686625,13.75 C15.9686625,13.197 16.3597875,12.75 16.8436625,12.75 C18.0091625,12.75 18.9576625,11.778 18.9576625,10.584 C18.9576625,9.389 18.0091625,8.416 16.8436625,8.416 C16.3597875,8.416 15.9686625,7.969 15.9686625,7.416 C15.9686625,6.863 16.3597875,6.416 16.8436625,6.416 C18.9751625,6.416 20.7076625,8.286 20.7076625,10.584 C20.7076625,12.881 18.9751625,14.75 16.8436625,14.75" id="Fill-3" fill="#B7CDCD"></path>
                <g id="Group-7" transform="translate(0.000000, 5.625000)">
                    <mask id="mask-2" fill="white">
                        <use xlink:href="#path-1"></use>
                    </mask>
                    <g id="Clip-6"></g>
                    <path d="M3.8656625,9.125 C1.7341625,9.125 -8.75e-05,7.256 -8.75e-05,4.959 C-8.75e-05,2.661 1.7341625,0.791 3.8656625,0.791 C4.3495375,0.791 4.7406625,1.238 4.7406625,1.791 C4.7406625,2.344 4.3495375,2.791 3.8656625,2.791 C2.6984125,2.791 1.7499125,3.764 1.7499125,4.959 C1.7499125,6.153 2.6984125,7.125 3.8656625,7.125 C4.3495375,7.125 4.7406625,7.572 4.7406625,8.125 C4.7406625,8.678 4.3495375,9.125 3.8656625,9.125" id="Fill-5" fill="#B7CDCD" mask="url(#mask-2)"></path>
                </g>
                <path d="M13.071975,18.1289 C12.991475,18.1289 12.909225,18.1269 12.8261,18.1249 C12.343975,18.1089 11.962475,17.6489 11.976475,17.0969 C11.990475,16.5449 12.37635,16.1079 12.8751,16.1249 C14.004725,16.1789 14.816725,15.8979 15.3111,15.3419 C15.8081,14.7819 15.8221,14.0819 15.8221,14.0749 C15.81685,13.5239 16.202725,13.0699 16.6866,13.0629 L16.6971,13.0629 C17.17485,13.0629 17.56685,13.5019 17.5721,14.0499 C17.57385,14.2059 17.55985,15.6159 16.5396,16.7669 C15.73635,17.6709 14.5691,18.1289 13.071975,18.1289" id="Fill-8" fill="#B7CDCD"></path>
                <g id="Group-12" transform="translate(10.500000, 14.625000)">
                    <mask id="mask-4" fill="white">
                        <use xlink:href="#path-3"></use>
                    </mask>
                    <g id="Clip-11"></g>
                    <path d="M2.0507375,0.8125 C1.2798625,0.8125 0.6559875,1.5265 0.6559875,2.4065 C0.6559875,3.2865 1.2798625,4.0005 2.0507375,4.0005 C2.8198625,4.0005 3.4454875,3.2865 3.4454875,2.4065 C3.4454875,1.5265 2.8198625,0.8125 2.0507375,0.8125" id="Fill-10" fill="#B7CDCD" mask="url(#mask-4)"></path>
                </g>
            </g>
        </g>
    </g>
</svg>