<?xml version="1.0" encoding="utf-8"?>
<!-- Generator: Adobe Illustrator 22.0.0, SVG Export Plug-In . SVG Version: 6.00 Build 0)  -->
<svg version="1.1" id="Layer_1" xmlns="http://www.w3.org/2000/svg" xmlns:xlink="http://www.w3.org/1999/xlink" x="0px" y="0px"
	 viewBox="0 0 22.9 20.3" style="enable-background:new 0 0 22.9 20.3;" xml:space="preserve">
<style type="text/css">
	.st0{fill:#00227D;}
</style>
<g>
	<g>
		<g>
			<path class="st0" d="M20.3,7.8c-0.5,0-0.8-0.4-0.8-0.8V1.8h-5.2c-0.5,0-0.8-0.4-0.8-0.8c0-0.5,0.4-0.8,0.8-0.8h6
				c0.5,0,0.8,0.4,0.8,0.8v6C21.1,7.5,20.7,7.8,20.3,7.8L20.3,7.8z"/>
		</g>
		<g>
			<path class="st0" d="M11.7,8.1c-1.1,0-2.1-0.2-3.2-0.5C6.2,6.7,4.4,5.1,3.2,2.9C3,2.5,2.8,2,2.7,1.5C2.5,1.1,2.8,0.6,3.2,0.4
				C3.6,0.3,4.1,0.5,4.3,1c0.1,0.4,0.3,0.8,0.5,1.2c0.9,1.8,2.4,3.1,4.3,3.8c2,0.7,4.1,0.6,5.9-0.3c1.9-0.9,3.3-2.5,4-4.4
				c0.2-0.4,0.6-0.7,1.1-0.5c0.4,0.2,0.7,0.6,0.5,1.1C19.7,4.1,18,6,15.7,7.1C14.4,7.8,13.1,8.1,11.7,8.1L11.7,8.1z"/>
		</g>
		<g>
			<path class="st0" d="M2.7,7.8C2.3,7.8,1.9,7.5,1.9,7V1c0-0.5,0.4-0.8,0.8-0.8h6c0.5,0,0.8,0.4,0.8,0.8c0,0.5-0.4,0.8-0.8,0.8H3.6
				V7C3.6,7.5,3.2,7.8,2.7,7.8L2.7,7.8z"/>
		</g>
	</g>
	<g>
		<path class="st0" d="M11.5,19.3c-0.5,0-0.8-0.4-0.8-0.8V7.6c0-0.5,0.4-0.8,0.8-0.8c0.5,0,0.8,0.4,0.8,0.8v10.9
			C12.3,18.9,12,19.3,11.5,19.3L11.5,19.3z"/>
	</g>
</g>
<circle class="st0" cx="11.6" cy="18.1" r="2.2"/>
</svg>
