<?xml version="1.0" encoding="UTF-8"?>
<svg width="12px" height="14px" viewBox="0 0 12 14" version="1.1" xmlns="http://www.w3.org/2000/svg" xmlns:xlink="http://www.w3.org/1999/xlink">
    <!-- Generator: Sketch 64 (93537) - https://sketch.com -->
    <title>icon  splitter</title>
    <desc>Created with Sketch.</desc>
    <g id="Symbols" stroke="none" stroke-width="1" fill="none" fill-rule="evenodd">
        <g id="Integration-logic---on-click-task-condition" transform="translate(-36.000000, -210.000000)" fill="#031739">
            <g id="icon--splitter">
                <g>
                    <g transform="translate(36.000000, 210.860927)">
                        <path d="M1.9375,5.58463576 C1.421,5.58463576 1,6.03019868 1,6.57801325 C1,7.12582781 1.421,7.57139073 1.9375,7.57139073 C2.455,7.57139073 2.875,7.12582781 2.875,6.57801325 C2.875,6.03019868 2.455,5.58463576 1.9375,5.58463576 M1.9375,8.63099338 C0.869,8.63099338 0,7.71019868 0,6.57801325 C0,5.44582781 0.869,4.52503311 1.9375,4.52503311 C3.006,4.52503311 3.875,5.44582781 3.875,6.57801325 C3.875,7.71019868 3.006,8.63099338 1.9375,8.63099338" id="Fill-1"></path>
                        <path d="M9.8955,1.05960265 C9.379,1.05960265 8.958,1.50516556 8.958,2.05298013 C8.958,2.6007947 9.379,3.04635762 9.8955,3.04635762 C10.413,3.04635762 10.833,2.6007947 10.833,2.05298013 C10.833,1.50516556 10.413,1.05960265 9.8955,1.05960265 M9.8955,4.10596026 C8.827,4.10596026 7.958,3.18516556 7.958,2.05298013 C7.958,0.920794702 8.827,-1.88223241e-15 9.8955,-1.88223241e-15 C10.964,-1.88223241e-15 11.833,0.920794702 11.833,2.05298013 C11.833,3.18516556 10.964,4.10596026 9.8955,4.10596026" id="Fill-3"></path>
                        <path d="M9.8955,10.1101987 C9.379,10.1101987 8.958,10.5557616 8.958,11.1035762 C8.958,11.6513907 9.379,12.0969536 9.8955,12.0969536 C10.413,12.0969536 10.833,11.6513907 10.833,11.1035762 C10.833,10.5557616 10.413,10.1101987 9.8955,10.1101987 M9.8955,13.1565563 C8.827,13.1565563 7.958,12.2357616 7.958,11.1035762 C7.958,9.97139073 8.827,9.05059603 9.8955,9.05059603 C10.964,9.05059603 11.833,9.97139073 11.833,11.1035762 C11.833,12.2357616 10.964,13.1565563 9.8955,13.1565563" id="Fill-5"></path>
                        <path d="M8.416,10.8288212 C8.331,10.8288212 8.245,10.8060397 8.166,10.7578278 L3.0625,7.63570861 C2.823,7.48895364 2.741,7.16524503 2.88,6.9114702 C3.0175,6.65769536 3.323,6.57133775 3.5625,6.71756291 L8.666,9.84021192 C8.9055,9.98643709 8.9875,10.3101457 8.8495,10.5639205 C8.757,10.7339868 8.589,10.8288212 8.416,10.8288212" id="Fill-7"></path>
                        <path d="M3.31345,6.50919205 C3.14045,6.50919205 2.97245,6.41435762 2.87995,6.24429139 C2.74095,5.99051656 2.82345,5.66680795 3.06245,5.52058278 L8.16595,2.39793377 C8.40345,2.25170861 8.71095,2.33806623 8.84945,2.59184106 C8.98745,2.84561589 8.90545,3.1693245 8.66595,3.31607947 L3.56245,6.43819868 C3.48445,6.4864106 3.39845,6.50919205 3.31345,6.50919205" id="Fill-9"></path>
                    </g>
                </g>
            </g>
        </g>
    </g>
</svg>