<?xml version="1.0" encoding="utf-8"?>
<!-- Generator: Adobe Illustrator 22.0.0, SVG Export Plug-In . SVG Version: 6.00 Build 0)  -->
<svg version="1.1" id="Layer_1" xmlns="http://www.w3.org/2000/svg" xmlns:xlink="http://www.w3.org/1999/xlink" x="0px" y="0px"
	 viewBox="0 0 22.9 20.3" style="enable-background:new 0 0 22.9 20.3;" xml:space="preserve">
<style type="text/css">
	.st0{fill:#00227D;}
</style>
<g>
	<g>
		<path class="st0" d="M20.5,18.5H2c-0.5,0-0.9-0.4-0.9-0.9V2.9C1.1,2.4,1.5,2,2,2h18.5c0.5,0,0.9,0.4,0.9,0.9v14.7
			C21.4,18.1,21,18.5,20.5,18.5L20.5,18.5z M2.9,16.7h16.7V3.8H2.9V16.7L2.9,16.7z"/>
	</g>
	<g>
		<path class="st0" d="M17.1,5.3c-0.5,0-0.9-0.4-0.9-0.9v-3c0-0.5,0.4-0.9,0.9-0.9c0.5,0,0.9,0.4,0.9,0.9v3
			C18,4.9,17.6,5.3,17.1,5.3L17.1,5.3z"/>
	</g>
	<g>
		<path class="st0" d="M5.6,5.3c-0.5,0-0.9-0.4-0.9-0.9v-3c0-0.5,0.4-0.9,0.9-0.9c0.5,0,0.9,0.4,0.9,0.9v3C6.5,4.9,6.1,5.3,5.6,5.3
			L5.6,5.3z"/>
	</g>
	<g>
		<path class="st0" d="M20.5,8.3H2.2c-0.2,0-0.4-0.2-0.4-0.4c0-0.2,0.2-0.4,0.4-0.4h18.3c0.2,0,0.4,0.2,0.4,0.4
			C20.9,8.1,20.7,8.3,20.5,8.3L20.5,8.3z"/>
	</g>
	<polygon class="st0" points="6.2,10.1 4.5,10.1 4.5,11.8 6.2,11.8 6.2,10.1 	"/>
	<polygon class="st0" points="9.3,10.1 7.5,10.1 7.5,11.8 9.3,11.8 9.3,10.1 	"/>
	<polygon class="st0" points="12.3,10.1 10.5,10.1 10.5,11.8 12.3,11.8 12.3,10.1 	"/>
	<polygon class="st0" points="15.3,10.1 13.6,10.1 13.6,11.8 15.3,11.8 15.3,10.1 	"/>
	<polygon class="st0" points="18.3,10.1 16.6,10.1 16.6,11.8 18.3,11.8 18.3,10.1 	"/>
	<polygon class="st0" points="6.2,12.9 4.5,12.9 4.5,14.6 6.2,14.6 6.2,12.9 	"/>
	<polygon class="st0" points="9.3,12.9 7.5,12.9 7.5,14.6 9.3,14.6 9.3,12.9 	"/>
	<polygon class="st0" points="12.3,12.9 10.5,12.9 10.5,14.6 12.3,14.6 12.3,12.9 	"/>
	<polygon class="st0" points="15.3,12.9 13.6,12.9 13.6,14.6 15.3,14.6 15.3,12.9 	"/>
	<polygon class="st0" points="18.3,12.9 16.6,12.9 16.6,14.6 18.3,14.6 18.3,12.9 	"/>
</g>
</svg>
