<?xml version="1.0" encoding="utf-8"?>
<!-- Generator: Adobe Illustrator 22.0.0, SVG Export Plug-In . SVG Version: 6.00 Build 0)  -->
<svg version="1.1" id="Layer_1" xmlns="http://www.w3.org/2000/svg" xmlns:xlink="http://www.w3.org/1999/xlink" x="0px" y="0px"
	 viewBox="0 0 228 228" enable-background="new 0 0 228 228" xml:space="preserve">
<path fill="#243E8A" d="M199.5,228.6H28.5C12.8,228.6,0,215.8,0,200V27.5C0,11.8,12.8-1,28.5-1h170.9C215.2-1,228,11.8,228,27.5V200
	C228,215.8,215.2,228.6,199.5,228.6z"/>
<path fill="#FFFFFF" stroke="#FFFFFF" stroke-width="4" stroke-miterlimit="10" d="M29.9,22.1h-5.3V58c1.8-0.4,3.5-1,5.3-1.8V22.1z"
	/>
<path fill="#FFFFFF" stroke="#FFFFFF" stroke-width="4" stroke-miterlimit="10" d="M24.5,74.9v132h5.3V72.7
	C28,73.6,26.3,74.4,24.5,74.9z"/>
<path fill="#FFFFFF" stroke="#FFFFFF" stroke-width="4" stroke-miterlimit="10" d="M206.8,206.9h-5.1L94.3,34.2h-1.1l-0.3,114.9
	v57.8h-5.3v-55.1l0.3-129.7h5.1l107.5,172.7h1.1l0.5-172.4l5.3-0.6l-0.3,134.1L206.8,206.9z"/>
</svg>
