<?xml version="1.0" encoding="UTF-8"?>
<svg width="161px" height="38px" viewBox="0 0 161 38" version="1.1" xmlns="http://www.w3.org/2000/svg" xmlns:xlink="http://www.w3.org/1999/xlink">
    <!-- Generator: Sketch 64 (93537) - https://sketch.com -->
    <title>logo Shapein</title>
    <desc>Created with Sketch.</desc>
    <g id="Page-1" stroke="none" stroke-width="1" fill="none" fill-rule="evenodd">
        <g id="Artboard" transform="translate(-280.000000, -34.000000)">
            <g id="logo-Shapein" transform="translate(281.000000, 34.000000)">
                <polygon id="Fill-1" fill="#243E8A" points="119.1484 37.1 159.3865 37.1 159.3865 0 119.1484 0"></polygon>
                <g id="Group-36" transform="translate(0.000000, 2.800000)">
                    <path d="M14.78561,1.98205 L14.60081,2.82625 L14.27741,2.87315 C12.58271,1.99815 10.84111,1.55995 9.05401,1.55995 C7.57561,1.55995 6.28131,1.88055 5.17181,2.52175 C4.06231,3.16295 3.21461,3.99175 2.62941,5.00675 C2.04351,6.02315 1.75161,7.06335 1.75161,8.12595 C1.75161,9.22075 2.04351,10.16575 2.62941,10.96375 C3.21461,11.76105 3.93071,12.41765 4.77911,12.93355 C5.62611,13.44875 6.80491,14.08225 8.31481,14.83265 C9.97871,15.67685 11.29611,16.41185 12.26701,17.03695 C13.23791,17.66275 14.06951,18.46705 14.76251,19.45265 C15.45621,20.43755 15.80271,21.63315 15.80271,23.04015 C15.80271,24.41635 15.43311,25.70645 14.69321,26.90905 C13.95401,28.11375 12.92921,29.06645 11.61951,29.77065 C10.30911,30.47415 8.83841,30.82555 7.20531,30.82555 C6.00341,30.82555 4.77071,30.63795 3.50791,30.26275 C2.24371,29.88755 1.13491,29.34085 0.17941,28.62125 L0.22561,27.73015 L0.45731,27.63635 C1.38131,28.38675 2.44461,28.94955 3.64581,29.32475 C4.84841,29.69995 6.01881,29.88755 7.15911,29.88755 C8.66901,29.88755 10.01721,29.55925 11.20371,28.90265 C12.38951,28.24605 13.29881,27.39485 13.93091,26.34695 C14.56231,25.29975 14.87871,24.19725 14.87871,23.04015 C14.87871,21.85225 14.57001,20.83585 13.95401,19.99165 C13.33731,19.14745 12.59041,18.44395 11.71191,17.88115 C10.83411,17.31835 9.62381,16.66175 8.08381,15.91135 C6.45001,15.09865 5.16341,14.38745 4.22471,13.77775 C3.28391,13.16735 2.48241,12.38685 1.82091,11.43205 C1.15731,10.47935 0.82691,9.32995 0.82691,7.98525 C0.82691,6.64125 1.18041,5.40575 1.89021,4.28015 C2.59791,3.15455 3.58421,2.26345 4.84841,1.60685 C6.11121,0.95025 7.54411,0.62195 9.14641,0.62195 C10.99581,0.62195 12.87461,1.07555 14.78561,1.98205" id="Fill-2" fill="#000000"></path>
                    <path d="M14.78561,1.98205 L14.60081,2.82625 L14.27741,2.87315 C12.58271,1.99815 10.84111,1.55995 9.05401,1.55995 C7.57561,1.55995 6.28131,1.88055 5.17181,2.52175 C4.06231,3.16295 3.21461,3.99175 2.62941,5.00675 C2.04351,6.02315 1.75161,7.06335 1.75161,8.12595 C1.75161,9.22075 2.04351,10.16575 2.62941,10.96375 C3.21461,11.76105 3.93071,12.41765 4.77911,12.93355 C5.62611,13.44875 6.80491,14.08225 8.31481,14.83265 C9.97871,15.67685 11.29611,16.41185 12.26701,17.03695 C13.23791,17.66275 14.06951,18.46705 14.76251,19.45265 C15.45621,20.43755 15.80271,21.63315 15.80271,23.04015 C15.80271,24.41635 15.43311,25.70645 14.69321,26.90905 C13.95401,28.11375 12.92921,29.06645 11.61951,29.77065 C10.30911,30.47415 8.83841,30.82555 7.20531,30.82555 C6.00341,30.82555 4.77071,30.63795 3.50791,30.26275 C2.24371,29.88755 1.13491,29.34085 0.17941,28.62125 L0.22561,27.73015 L0.45731,27.63635 C1.38131,28.38675 2.44461,28.94955 3.64581,29.32475 C4.84841,29.69995 6.01881,29.88755 7.15911,29.88755 C8.66901,29.88755 10.01721,29.55925 11.20371,28.90265 C12.38951,28.24605 13.29881,27.39485 13.93091,26.34695 C14.56231,25.29975 14.87871,24.19725 14.87871,23.04015 C14.87871,21.85225 14.57001,20.83585 13.95401,19.99165 C13.33731,19.14745 12.59041,18.44395 11.71191,17.88115 C10.83411,17.31835 9.62381,16.66175 8.08381,15.91135 C6.45001,15.09865 5.16341,14.38745 4.22471,13.77775 C3.28391,13.16735 2.48241,12.38685 1.82091,11.43205 C1.15731,10.47935 0.82691,9.32995 0.82691,7.98525 C0.82691,6.64125 1.18041,5.40575 1.89021,4.28015 C2.59791,3.15455 3.58421,2.26345 4.84841,1.60685 C6.11121,0.95025 7.54411,0.62195 9.14641,0.62195 C10.99581,0.62195 12.87461,1.07555 14.78561,1.98205 Z" id="Stroke-4" stroke="#000000" stroke-width="0.5"></path>
                    <polygon id="Fill-6" fill="#000000" points="44.09055 30.63795 43.16585 30.63795 43.16585 15.91135 24.21475 15.91135 24.21475 30.63795 23.29075 30.63795 23.29075 0.76265 24.21475 0.76265 24.21475 14.97335 43.16585 14.97335 43.16585 0.76265 44.09055 0.76265"></polygon>
                    <polygon id="Stroke-8" stroke="#000000" stroke-width="0.5" points="44.09055 30.63795 43.16585 30.63795 43.16585 15.91135 24.21475 15.91135 24.21475 30.63795 23.29075 30.63795 23.29075 0.76265 24.21475 0.76265 24.21475 14.97335 43.16585 14.97335 43.16585 0.76265 44.09055 0.76265"></polygon>
                    <polygon id="Fill-10" fill="#000000" points="62.349 0.76251 61.425 0.76251 49.6839 30.63781 50.7934 30.63781 51.4402 28.62111 61.7484 2.35711 61.9325 2.35711 71.4553 28.62111 72.0559 30.63781 73.1192 30.63781"></polygon>
                    <polygon id="Stroke-12" stroke="#000000" stroke-width="0.5" points="62.349 0.76251 61.425 0.76251 49.6839 30.63781 50.7934 30.63781 51.4402 28.62111 61.7484 2.35711 61.9325 2.35711 71.4553 28.62111 72.0559 30.63781 73.1192 30.63781"></polygon>
                    <path d="M80.07531,20.69613 L80.07531,30.81323 L79.15131,30.81323 L79.15131,4.93143 L80.07531,20.69613 Z M91.14581,14.06573 C92.45481,12.69793 93.11001,10.89053 93.11001,8.64143 C93.11001,6.63733 92.49331,5.07983 91.26131,3.96893 C90.02791,2.85873 88.27161,2.26303 85.99171,2.18113 L80.07531,2.22243 L80.07531,16.40163 L85.57521,16.40163 C87.97971,16.21263 89.83541,15.43353 91.14581,14.06573 L91.14581,14.06573 Z M91.86191,3.25843 C93.31021,4.51773 94.03471,6.31253 94.03471,8.64143 C94.03471,11.40433 93.18631,13.52393 91.49231,15.00023 C89.79691,16.47653 87.36301,17.21433 84.18921,17.21433 L80.07531,17.21433 L80.07531,27.33143 L79.15131,27.33143 L79.15131,1.44963 L85.66831,1.36913 C88.34931,1.36913 90.41361,1.99913 91.86191,3.25843 L91.86191,3.25843 Z" id="Fill-14" fill="#000000"></path>
                    <path d="M80.07531,20.69613 L80.07531,30.81323 L79.15131,30.81323 L79.15131,4.93143 L80.07531,20.69613 Z M91.14581,14.06573 C92.45481,12.69793 93.11001,10.89053 93.11001,8.64143 C93.11001,6.63733 92.49331,5.07983 91.26131,3.96893 C90.02791,2.85873 88.27161,2.26303 85.99171,2.18113 L80.07531,2.22243 L80.07531,16.40163 L85.57521,16.40163 C87.97971,16.21263 89.83541,15.43353 91.14581,14.06573 Z M91.86191,3.25843 C93.31021,4.51773 94.03471,6.31253 94.03471,8.64143 C94.03471,11.40433 93.18631,13.52393 91.49231,15.00023 C89.79691,16.47653 87.36301,17.21433 84.18921,17.21433 L80.07531,17.21433 L80.07531,27.33143 L79.15131,27.33143 L79.15131,1.44963 L85.66831,1.36913 C88.34931,1.36913 90.41361,1.99913 91.86191,3.25843 Z" id="Stroke-16" stroke="#000000" stroke-width="0.5"></path>
                    <polygon id="Fill-18" fill="#000000" points="115.96564 30.63795 101.59044 30.63795 101.59044 0.76265 115.82704 0.76265 115.96564 0.95025 115.78084 1.70065 102.51444 1.70065 102.51444 14.69195 113.51564 14.69195 113.65424 14.87955 113.46944 15.62995 102.51444 15.62995 102.51444 29.69995 116.01184 29.69995 116.15044 29.88755"></polygon>
                    <polygon id="Stroke-20" stroke="#000000" stroke-width="0.5" points="115.96564 30.63795 101.59044 30.63795 101.59044 0.76265 115.82704 0.76265 115.96564 0.95025 115.78084 1.70065 102.51444 1.70065 102.51444 14.69195 113.51564 14.69195 113.65424 14.87955 113.46944 15.62995 102.51444 15.62995 102.51444 29.69995 116.01184 29.69995 116.15044 29.88755"></polygon>
                    <path d="M125.58994,0.92449 L124.72964,0.92449 L124.72964,6.73309 C125.01734,6.67079 125.30364,6.57419 125.58994,6.44189 L125.58994,0.92449 Z" id="Fill-22" fill="#FFFFFF"></path>
                    <path d="M125.58994,0.92449 L124.72964,0.92449 L124.72964,6.73309 C125.01734,6.67079 125.30364,6.57419 125.58994,6.44189 L125.58994,0.92449 Z" id="Stroke-24" stroke="#FFFFFF" stroke-width="0.7"></path>
                    <path d="M124.72999,9.47219 L124.72999,30.79979 L125.59029,30.79979 L125.59029,9.10889 C125.29419,9.25309 125.00859,9.37769 124.72999,9.47219" id="Fill-26" fill="#FFFFFF"></path>
                    <path d="M124.72999,9.47219 L124.72999,30.79979 L125.59029,30.79979 L125.59029,9.10889 C125.29419,9.25309 125.00859,9.37769 124.72999,9.47219 Z" id="Stroke-28" stroke="#FFFFFF" stroke-width="0.7"></path>
                    <polygon id="Fill-30" fill="#FFFFFF" points="154.19152 30.79993 153.37462 30.79993 135.99852 2.89443 135.82702 2.89443 135.78292 21.46683 135.78292 30.79993 134.92332 30.79993 134.92332 21.88893 134.96602 0.92463 135.78292 0.92463 153.15902 28.83013 153.33122 28.83013 153.41732 0.97153 154.27692 0.87773 154.23492 22.54553"></polygon>
                    <polygon id="Stroke-32" stroke="#FFFFFF" stroke-width="0.7" points="154.19152 30.79993 153.37462 30.79993 135.99852 2.89443 135.82702 2.89443 135.78292 21.46683 135.78292 30.79993 134.92332 30.79993 134.92332 21.88893 134.96602 0.92463 135.78292 0.92463 153.15902 28.83013 153.33122 28.83013 153.41732 0.97153 154.27692 0.87773 154.23492 22.54553"></polygon>
                    <line x1="55.95744" y1="15.70177" x2="67.68244" y2="15.70037" id="Stroke-34" stroke="#000000" stroke-width="1.05"></line>
                </g>
            </g>
        </g>
    </g>
</svg>